STARTFONT 2.1
FONT -DIGITAL-VT220-Bold-r-Normal-80col-60-600-75-75-c-300-iso10646-1
SIZE 60 75 75
FONTBOUNDINGBOX 30 60 0 -12
STARTPROPERTIES 21
FOUNDRY "DIGITAL"
FAMILY_NAME "vt220"
WEIGHT_NAME "Bold"
RELATIVE_SETWIDTH 50
SLANT "r"
SETWIDTH_NAME "Normal"
ADD_STYLE_NAME "80col"
PIXEL_SIZE 60
POINT_SIZE 600
RESOLUTION_X 75
RESOLUTION_Y 75
SPACING "c"
CHARSET_REGISTRY "ISO10646"
CHARSET_ENCODING "1"
CAP_HEIGHT 42
X_HEIGHT 30
WEIGHT 10
QUAD_WIDTH 30
FONT_ASCENT 48
FONT_DESCENT 12
AVERAGE_WIDTH 300
ENDPROPERTIES
CHARS 237
STARTCHAR U+00FD
ENCODING 253
SWIDTH 1000 0
DWIDTH 30 0
BBX 30 60 0 -12
BITMAP
00000000
00000000
00000000
00000000
00000000
00000000
00000000
00000000
00000000
00000000
00000000
00000000
00000000
00000000
00000000
00000000
00000000
00000000
00000000
00000000
00000000
00000000
00000000
00000000
00000000
00000000
00000000
00000000
00000000
00000000
00000000
00000000
00000000
00000000
00000000
00000000
00000000
00000000
00000000
00000000
00000000
00000000
00000000
00000000
00000000
00000000
00000000
00000000
00000000
00000000
00000000
00000000
00000000
00000000
00000000
00000000
00000000
00000000
00000000
00000000
ENDCHAR
STARTCHAR U+25A1
ENCODING 9633
SWIDTH 1000 0
DWIDTH 30 0
BBX 30 60 0 -12
BITMAP
00000000
00000000
00000000
00000000
00000000
00000000
ffffff00
ffffff00
ffffff00
ffffff00
ffffff00
ffffff00
fc007f00
fc007f00
fc007f00
fc007f00
fc007f00
fc007f00
fc007f00
fc007f00
fc007f00
fc007f00
fc007f00
fc007f00
fc007f00
fc007f00
fc007f00
fc007f00
fc007f00
fc007f00
fc007f00
fc007f00
fc007f00
fc007f00
fc007f00
fc007f00
fc007f00
fc007f00
fc007f00
fc007f00
fc007f00
fc007f00
ffffff00
ffffff00
ffffff00
ffffff00
ffffff00
ffffff00
00000000
00000000
00000000
00000000
00000000
00000000
00000000
00000000
00000000
00000000
00000000
00000000
ENDCHAR
STARTCHAR U+00FE
ENCODING 254
SWIDTH 1000 0
DWIDTH 30 0
BBX 30 60 0 -12
BITMAP
00000000
00000000
00000000
00000000
00000000
00000000
fc000000
fc000000
fc000000
fc000000
fc000000
fc000000
fc000000
fc000000
fc000000
fc000000
fc000000
fc000000
fffff800
fffff800
fffff800
fffff800
fffff800
fffff800
ff807f00
ff807f00
ff807f00
ff807f00
ff807f00
ff807f00
ff807f00
ff807f00
ff807f00
ff807f00
ff807f00
ff807f00
fffff800
fffff800
fffff800
fffff800
fffff800
fffff800
fc000000
fc000000
fc000000
fc000000
fc000000
fc000000
fc000000
fc000000
fc000000
fc000000
fc000000
fc000000
fc000000
fc000000
fc000000
fc000000
fc000000
fc000000
ENDCHAR
STARTCHAR U+00FF
ENCODING 255
SWIDTH 1000 0
DWIDTH 30 0
BBX 30 60 0 -12
BITMAP
00000000
00000000
00000000
00000000
00000000
00000000
3f83f800
3f83f800
3f83f800
3f83f800
3f83f800
3f83f800
00000000
00000000
00000000
00000000
00000000
00000000
fc03f800
fc03f800
fc03f800
fc03f800
fc03f800
fc03f800
fc03f800
fc03f800
fc03f800
fc03f800
fc03f800
fc03f800
fc1ff800
fc1ff800
fc1ff800
fc1ff800
fc1ff800
fc1ff800
3ffff800
3ffff800
3ffff800
3ffff800
3ffff800
3ffff800
0003f800
0003f800
0003f800
0003f800
0003f800
0003f800
fc03f800
fc03f800
fc03f800
fc03f800
fc03f800
fc03f800
3fffc000
3fffc000
3fffc000
3fffc000
3fffc000
3fffc000
ENDCHAR
STARTCHAR U+00FC
ENCODING 252
SWIDTH 1000 0
DWIDTH 30 0
BBX 30 60 0 -12
BITMAP
00000000
00000000
00000000
00000000
00000000
00000000
3f83f800
3f83f800
3f83f800
3f83f800
3f83f800
3f83f800
00000000
00000000
00000000
00000000
00000000
00000000
fc03f800
fc03f800
fc03f800
fc03f800
fc03f800
fc03f800
fc03f800
fc03f800
fc03f800
fc03f800
fc03f800
fc03f800
fc03f800
fc03f800
fc03f800
fc03f800
fc03f800
fc03f800
fc03f800
fc03f800
fc03f800
fc03f800
fc03f800
fc03f800
3fffff00
3fffff00
3fffff00
3fffff00
3fffff00
3fffff00
00000000
00000000
00000000
00000000
00000000
00000000
00000000
00000000
00000000
00000000
00000000
00000000
ENDCHAR
STARTCHAR U+00FB
ENCODING 251
SWIDTH 1000 0
DWIDTH 30 0
BBX 30 60 0 -12
BITMAP
07ffc000
07ffc000
07ffc000
07ffc000
07ffc000
07ffc000
3f83f800
3f83f800
3f83f800
3f83f800
3f83f800
3f83f800
00000000
00000000
00000000
00000000
00000000
00000000
fc03f800
fc03f800
fc03f800
fc03f800
fc03f800
fc03f800
fc03f800
fc03f800
fc03f800
fc03f800
fc03f800
fc03f800
fc03f800
fc03f800
fc03f800
fc03f800
fc03f800
fc03f800
fc03f800
fc03f800
fc03f800
fc03f800
fc03f800
fc03f800
3fffff00
3fffff00
3fffff00
3fffff00
3fffff00
3fffff00
00000000
00000000
00000000
00000000
00000000
00000000
00000000
00000000
00000000
00000000
00000000
00000000
ENDCHAR
STARTCHAR U+00FA
ENCODING 250
SWIDTH 1000 0
DWIDTH 30 0
BBX 30 60 0 -12
BITMAP
00000000
00000000
00000000
00000000
00000000
00000000
00ffc000
00ffc000
00ffc000
00ffc000
00ffc000
00ffc000
3ff00000
3ff00000
3ff00000
3ff00000
3ff00000
3ff00000
fc03f800
fc03f800
fc03f800
fc03f800
fc03f800
fc03f800
fc03f800
fc03f800
fc03f800
fc03f800
fc03f800
fc03f800
fc03f800
fc03f800
fc03f800
fc03f800
fc03f800
fc03f800
fc03f800
fc03f800
fc03f800
fc03f800
fc03f800
fc03f800
3fffff00
3fffff00
3fffff00
3fffff00
3fffff00
3fffff00
00000000
00000000
00000000
00000000
00000000
00000000
00000000
00000000
00000000
00000000
00000000
00000000
ENDCHAR
STARTCHAR U+00F9
ENCODING 249
SWIDTH 1000 0
DWIDTH 30 0
BBX 30 60 0 -12
BITMAP
00000000
00000000
00000000
00000000
00000000
00000000
3ff00000
3ff00000
3ff00000
3ff00000
3ff00000
3ff00000
00ffc000
00ffc000
00ffc000
00ffc000
00ffc000
00ffc000
fc03f800
fc03f800
fc03f800
fc03f800
fc03f800
fc03f800
fc03f800
fc03f800
fc03f800
fc03f800
fc03f800
fc03f800
fc03f800
fc03f800
fc03f800
fc03f800
fc03f800
fc03f800
fc03f800
fc03f800
fc03f800
fc03f800
fc03f800
fc03f800
3fffff00
3fffff00
3fffff00
3fffff00
3fffff00
3fffff00
00000000
00000000
00000000
00000000
00000000
00000000
00000000
00000000
00000000
00000000
00000000
00000000
ENDCHAR
STARTCHAR U+00F8
ENCODING 248
SWIDTH 1000 0
DWIDTH 30 0
BBX 30 60 0 -12
BITMAP
00000000
00000000
00000000
00000000
00000000
00000000
00000000
00000000
00000000
00000000
00000000
00000000
00007f00
00007f00
00007f00
00007f00
00007f00
00007f00
3ffff800
3ffff800
3ffff800
3ffff800
3ffff800
3ffff800
fc1fff00
fc1fff00
fc1fff00
fc1fff00
fc1fff00
fc1fff00
fcfe7f00
fcfe7f00
fcfe7f00
fcfe7f00
fcfe7f00
fcfe7f00
fff07f00
fff07f00
fff07f00
fff07f00
fff07f00
fff07f00
3ffff800
3ffff800
3ffff800
3ffff800
3ffff800
3ffff800
fc000000
fc000000
fc000000
fc000000
fc000000
fc000000
00000000
00000000
00000000
00000000
00000000
00000000
ENDCHAR
STARTCHAR U+0153
ENCODING 339
SWIDTH 1000 0
DWIDTH 30 0
BBX 30 60 0 -12
BITMAP
00000000
00000000
00000000
00000000
00000000
00000000
00000000
00000000
00000000
00000000
00000000
00000000
00000000
00000000
00000000
00000000
00000000
00000000
3ffff800
3ffff800
3ffff800
3ffff800
3ffff800
3ffff800
fcfe7f00
fcfe7f00
fcfe7f00
fcfe7f00
fcfe7f00
fcfe7f00
fcffff00
fcffff00
fcffff00
fcffff00
fcffff00
fcffff00
fcfe0000
fcfe0000
fcfe0000
fcfe0000
fcfe0000
fcfe0000
3fffff00
3fffff00
3fffff00
3fffff00
3fffff00
3fffff00
00000000
00000000
00000000
00000000
00000000
00000000
00000000
00000000
00000000
00000000
00000000
00000000
ENDCHAR
STARTCHAR U+00F6
ENCODING 246
SWIDTH 1000 0
DWIDTH 30 0
BBX 30 60 0 -12
BITMAP
00000000
00000000
00000000
00000000
00000000
00000000
3f83f800
3f83f800
3f83f800
3f83f800
3f83f800
3f83f800
00000000
00000000
00000000
00000000
00000000
00000000
3ffff800
3ffff800
3ffff800
3ffff800
3ffff800
3ffff800
fc007f00
fc007f00
fc007f00
fc007f00
fc007f00
fc007f00
fc007f00
fc007f00
fc007f00
fc007f00
fc007f00
fc007f00
fc007f00
fc007f00
fc007f00
fc007f00
fc007f00
fc007f00
3ffff800
3ffff800
3ffff800
3ffff800
3ffff800
3ffff800
00000000
00000000
00000000
00000000
00000000
00000000
00000000
00000000
00000000
00000000
00000000
00000000
ENDCHAR
STARTCHAR U+00F5
ENCODING 245
SWIDTH 1000 0
DWIDTH 30 0
BBX 30 60 0 -12
BITMAP
3ff3f800
3ff3f800
3ff3f800
3ff3f800
3ff3f800
3ff3f800
fcffc000
fcffc000
fcffc000
fcffc000
fcffc000
fcffc000
00000000
00000000
00000000
00000000
00000000
00000000
3ffff800
3ffff800
3ffff800
3ffff800
3ffff800
3ffff800
fc007f00
fc007f00
fc007f00
fc007f00
fc007f00
fc007f00
fc007f00
fc007f00
fc007f00
fc007f00
fc007f00
fc007f00
fc007f00
fc007f00
fc007f00
fc007f00
fc007f00
fc007f00
3ffff800
3ffff800
3ffff800
3ffff800
3ffff800
3ffff800
00000000
00000000
00000000
00000000
00000000
00000000
00000000
00000000
00000000
00000000
00000000
00000000
ENDCHAR
STARTCHAR U+00F4
ENCODING 244
SWIDTH 1000 0
DWIDTH 30 0
BBX 30 60 0 -12
BITMAP
07ffc000
07ffc000
07ffc000
07ffc000
07ffc000
07ffc000
3f83f800
3f83f800
3f83f800
3f83f800
3f83f800
3f83f800
00000000
00000000
00000000
00000000
00000000
00000000
3ffff800
3ffff800
3ffff800
3ffff800
3ffff800
3ffff800
fc007f00
fc007f00
fc007f00
fc007f00
fc007f00
fc007f00
fc007f00
fc007f00
fc007f00
fc007f00
fc007f00
fc007f00
fc007f00
fc007f00
fc007f00
fc007f00
fc007f00
fc007f00
3ffff800
3ffff800
3ffff800
3ffff800
3ffff800
3ffff800
00000000
00000000
00000000
00000000
00000000
00000000
00000000
00000000
00000000
00000000
00000000
00000000
ENDCHAR
STARTCHAR U+00F3
ENCODING 243
SWIDTH 1000 0
DWIDTH 30 0
BBX 30 60 0 -12
BITMAP
00000000
00000000
00000000
00000000
00000000
00000000
00ffc000
00ffc000
00ffc000
00ffc000
00ffc000
00ffc000
3ff00000
3ff00000
3ff00000
3ff00000
3ff00000
3ff00000
3ffff800
3ffff800
3ffff800
3ffff800
3ffff800
3ffff800
fc007f00
fc007f00
fc007f00
fc007f00
fc007f00
fc007f00
fc007f00
fc007f00
fc007f00
fc007f00
fc007f00
fc007f00
fc007f00
fc007f00
fc007f00
fc007f00
fc007f00
fc007f00
3ffff800
3ffff800
3ffff800
3ffff800
3ffff800
3ffff800
00000000
00000000
00000000
00000000
00000000
00000000
00000000
00000000
00000000
00000000
00000000
00000000
ENDCHAR
STARTCHAR U+00F2
ENCODING 242
SWIDTH 1000 0
DWIDTH 30 0
BBX 30 60 0 -12
BITMAP
00000000
00000000
00000000
00000000
00000000
00000000
07fe0000
07fe0000
07fe0000
07fe0000
07fe0000
07fe0000
001ff800
001ff800
001ff800
001ff800
001ff800
001ff800
3ffff800
3ffff800
3ffff800
3ffff800
3ffff800
3ffff800
fc007f00
fc007f00
fc007f00
fc007f00
fc007f00
fc007f00
fc007f00
fc007f00
fc007f00
fc007f00
fc007f00
fc007f00
fc007f00
fc007f00
fc007f00
fc007f00
fc007f00
fc007f00
3ffff800
3ffff800
3ffff800
3ffff800
3ffff800
3ffff800
00000000
00000000
00000000
00000000
00000000
00000000
00000000
00000000
00000000
00000000
00000000
00000000
ENDCHAR
STARTCHAR U+00F1
ENCODING 241
SWIDTH 1000 0
DWIDTH 30 0
BBX 30 60 0 -12
BITMAP
3ff3f800
3ff3f800
3ff3f800
3ff3f800
3ff3f800
3ff3f800
fcffc000
fcffc000
fcffc000
fcffc000
fcffc000
fcffc000
00000000
00000000
00000000
00000000
00000000
00000000
fffff800
fffff800
fffff800
fffff800
fffff800
fffff800
ff807f00
ff807f00
ff807f00
ff807f00
ff807f00
ff807f00
fc007f00
fc007f00
fc007f00
fc007f00
fc007f00
fc007f00
fc007f00
fc007f00
fc007f00
fc007f00
fc007f00
fc007f00
fc007f00
fc007f00
fc007f00
fc007f00
fc007f00
fc007f00
00000000
00000000
00000000
00000000
00000000
00000000
00000000
00000000
00000000
00000000
00000000
00000000
ENDCHAR
STARTCHAR U+00F0
ENCODING 240
SWIDTH 1000 0
DWIDTH 30 0
BBX 30 60 0 -12
BITMAP
00fe7f00
00fe7f00
00fe7f00
00fe7f00
00fe7f00
00fe7f00
001ff800
001ff800
001ff800
001ff800
001ff800
001ff800
00fe7f00
00fe7f00
00fe7f00
00fe7f00
00fe7f00
00fe7f00
3fffff00
3fffff00
3fffff00
3fffff00
3fffff00
3fffff00
fc03ff00
fc03ff00
fc03ff00
fc03ff00
fc03ff00
fc03ff00
fc007f00
fc007f00
fc007f00
fc007f00
fc007f00
fc007f00
fc03f800
fc03f800
fc03f800
fc03f800
fc03f800
fc03f800
3fffc000
3fffc000
3fffc000
3fffc000
3fffc000
3fffc000
00000000
00000000
00000000
00000000
00000000
00000000
00000000
00000000
00000000
00000000
00000000
00000000
ENDCHAR
STARTCHAR U+00EF
ENCODING 239
SWIDTH 1000 0
DWIDTH 30 0
BBX 30 60 0 -12
BITMAP
00000000
00000000
00000000
00000000
00000000
00000000
3f83f800
3f83f800
3f83f800
3f83f800
3f83f800
3f83f800
00000000
00000000
00000000
00000000
00000000
00000000
07fe0000
07fe0000
07fe0000
07fe0000
07fe0000
07fe0000
00fe0000
00fe0000
00fe0000
00fe0000
00fe0000
00fe0000
00fe0000
00fe0000
00fe0000
00fe0000
00fe0000
00fe0000
00fe0000
00fe0000
00fe0000
00fe0000
00fe0000
00fe0000
3ffff800
3ffff800
3ffff800
3ffff800
3ffff800
3ffff800
00000000
00000000
00000000
00000000
00000000
00000000
00000000
00000000
00000000
00000000
00000000
00000000
ENDCHAR
STARTCHAR U+00EE
ENCODING 238
SWIDTH 1000 0
DWIDTH 30 0
BBX 30 60 0 -12
BITMAP
07ffc000
07ffc000
07ffc000
07ffc000
07ffc000
07ffc000
3f83f800
3f83f800
3f83f800
3f83f800
3f83f800
3f83f800
00000000
00000000
00000000
00000000
00000000
00000000
07fe0000
07fe0000
07fe0000
07fe0000
07fe0000
07fe0000
00fe0000
00fe0000
00fe0000
00fe0000
00fe0000
00fe0000
00fe0000
00fe0000
00fe0000
00fe0000
00fe0000
00fe0000
00fe0000
00fe0000
00fe0000
00fe0000
00fe0000
00fe0000
3ffff800
3ffff800
3ffff800
3ffff800
3ffff800
3ffff800
00000000
00000000
00000000
00000000
00000000
00000000
00000000
00000000
00000000
00000000
00000000
00000000
ENDCHAR
STARTCHAR U+00ED
ENCODING 237
SWIDTH 1000 0
DWIDTH 30 0
BBX 30 60 0 -12
BITMAP
00000000
00000000
00000000
00000000
00000000
00000000
00ffc000
00ffc000
00ffc000
00ffc000
00ffc000
00ffc000
3ff00000
3ff00000
3ff00000
3ff00000
3ff00000
3ff00000
07fe0000
07fe0000
07fe0000
07fe0000
07fe0000
07fe0000
00fe0000
00fe0000
00fe0000
00fe0000
00fe0000
00fe0000
00fe0000
00fe0000
00fe0000
00fe0000
00fe0000
00fe0000
00fe0000
00fe0000
00fe0000
00fe0000
00fe0000
00fe0000
3ffff800
3ffff800
3ffff800
3ffff800
3ffff800
3ffff800
00000000
00000000
00000000
00000000
00000000
00000000
00000000
00000000
00000000
00000000
00000000
00000000
ENDCHAR
STARTCHAR U+00EC
ENCODING 236
SWIDTH 1000 0
DWIDTH 30 0
BBX 30 60 0 -12
BITMAP
00000000
00000000
00000000
00000000
00000000
00000000
3ff00000
3ff00000
3ff00000
3ff00000
3ff00000
3ff00000
00ffc000
00ffc000
00ffc000
00ffc000
00ffc000
00ffc000
07fe0000
07fe0000
07fe0000
07fe0000
07fe0000
07fe0000
00fe0000
00fe0000
00fe0000
00fe0000
00fe0000
00fe0000
00fe0000
00fe0000
00fe0000
00fe0000
00fe0000
00fe0000
00fe0000
00fe0000
00fe0000
00fe0000
00fe0000
00fe0000
3ffff800
3ffff800
3ffff800
3ffff800
3ffff800
3ffff800
00000000
00000000
00000000
00000000
00000000
00000000
00000000
00000000
00000000
00000000
00000000
00000000
ENDCHAR
STARTCHAR U+00EB
ENCODING 235
SWIDTH 1000 0
DWIDTH 30 0
BBX 30 60 0 -12
BITMAP
00000000
00000000
00000000
00000000
00000000
00000000
3f83f800
3f83f800
3f83f800
3f83f800
3f83f800
3f83f800
00000000
00000000
00000000
00000000
00000000
00000000
3ffff800
3ffff800
3ffff800
3ffff800
3ffff800
3ffff800
fc007f00
fc007f00
fc007f00
fc007f00
fc007f00
fc007f00
ffffff00
ffffff00
ffffff00
ffffff00
ffffff00
ffffff00
fc000000
fc000000
fc000000
fc000000
fc000000
fc000000
3ffff800
3ffff800
3ffff800
3ffff800
3ffff800
3ffff800
00000000
00000000
00000000
00000000
00000000
00000000
00000000
00000000
00000000
00000000
00000000
00000000
ENDCHAR
STARTCHAR U+00EA
ENCODING 234
SWIDTH 1000 0
DWIDTH 30 0
BBX 30 60 0 -12
BITMAP
07ffc000
07ffc000
07ffc000
07ffc000
07ffc000
07ffc000
3f83f800
3f83f800
3f83f800
3f83f800
3f83f800
3f83f800
00000000
00000000
00000000
00000000
00000000
00000000
3ffff800
3ffff800
3ffff800
3ffff800
3ffff800
3ffff800
fc007f00
fc007f00
fc007f00
fc007f00
fc007f00
fc007f00
ffffff00
ffffff00
ffffff00
ffffff00
ffffff00
ffffff00
fc000000
fc000000
fc000000
fc000000
fc000000
fc000000
3ffff800
3ffff800
3ffff800
3ffff800
3ffff800
3ffff800
00000000
00000000
00000000
00000000
00000000
00000000
00000000
00000000
00000000
00000000
00000000
00000000
ENDCHAR
STARTCHAR U+00E9
ENCODING 233
SWIDTH 1000 0
DWIDTH 30 0
BBX 30 60 0 -12
BITMAP
00000000
00000000
00000000
00000000
00000000
00000000
00ffc000
00ffc000
00ffc000
00ffc000
00ffc000
00ffc000
3ff00000
3ff00000
3ff00000
3ff00000
3ff00000
3ff00000
3ffff800
3ffff800
3ffff800
3ffff800
3ffff800
3ffff800
fc007f00
fc007f00
fc007f00
fc007f00
fc007f00
fc007f00
ffffff00
ffffff00
ffffff00
ffffff00
ffffff00
ffffff00
fc000000
fc000000
fc000000
fc000000
fc000000
fc000000
3ffff800
3ffff800
3ffff800
3ffff800
3ffff800
3ffff800
00000000
00000000
00000000
00000000
00000000
00000000
00000000
00000000
00000000
00000000
00000000
00000000
ENDCHAR
STARTCHAR U+00E8
ENCODING 232
SWIDTH 1000 0
DWIDTH 30 0
BBX 30 60 0 -12
BITMAP
00000000
00000000
00000000
00000000
00000000
00000000
07fe0000
07fe0000
07fe0000
07fe0000
07fe0000
07fe0000
001ff800
001ff800
001ff800
001ff800
001ff800
001ff800
3ffff800
3ffff800
3ffff800
3ffff800
3ffff800
3ffff800
fc007f00
fc007f00
fc007f00
fc007f00
fc007f00
fc007f00
ffffff00
ffffff00
ffffff00
ffffff00
ffffff00
ffffff00
fc000000
fc000000
fc000000
fc000000
fc000000
fc000000
3ffff800
3ffff800
3ffff800
3ffff800
3ffff800
3ffff800
00000000
00000000
00000000
00000000
00000000
00000000
00000000
00000000
00000000
00000000
00000000
00000000
ENDCHAR
STARTCHAR U+00E7
ENCODING 231
SWIDTH 1000 0
DWIDTH 30 0
BBX 30 60 0 -12
BITMAP
00000000
00000000
00000000
00000000
00000000
00000000
00000000
00000000
00000000
00000000
00000000
00000000
00000000
00000000
00000000
00000000
00000000
00000000
3ffff800
3ffff800
3ffff800
3ffff800
3ffff800
3ffff800
fc007f00
fc007f00
fc007f00
fc007f00
fc007f00
fc007f00
fc000000
fc000000
fc000000
fc000000
fc000000
fc000000
fc007f00
fc007f00
fc007f00
fc007f00
fc007f00
fc007f00
3ffff800
3ffff800
3ffff800
3ffff800
3ffff800
3ffff800
001fc000
001fc000
001fc000
001fc000
001fc000
001fc000
07ffc000
07ffc000
07ffc000
07ffc000
07ffc000
07ffc000
ENDCHAR
STARTCHAR U+00E6
ENCODING 230
SWIDTH 1000 0
DWIDTH 30 0
BBX 30 60 0 -12
BITMAP
00000000
00000000
00000000
00000000
00000000
00000000
00000000
00000000
00000000
00000000
00000000
00000000
00000000
00000000
00000000
00000000
00000000
00000000
3ffff800
3ffff800
3ffff800
3ffff800
3ffff800
3ffff800
00fe7f00
00fe7f00
00fe7f00
00fe7f00
00fe7f00
00fe7f00
3fffff00
3fffff00
3fffff00
3fffff00
3fffff00
3fffff00
fcfe0000
fcfe0000
fcfe0000
fcfe0000
fcfe0000
fcfe0000
3fffff00
3fffff00
3fffff00
3fffff00
3fffff00
3fffff00
00000000
00000000
00000000
00000000
00000000
00000000
00000000
00000000
00000000
00000000
00000000
00000000
ENDCHAR
STARTCHAR U+00E5
ENCODING 229
SWIDTH 1000 0
DWIDTH 30 0
BBX 30 60 0 -12
BITMAP
07ffc000
07ffc000
07ffc000
07ffc000
07ffc000
07ffc000
3f83f800
3f83f800
3f83f800
3f83f800
3f83f800
3f83f800
07ffc000
07ffc000
07ffc000
07ffc000
07ffc000
07ffc000
3ffff800
3ffff800
3ffff800
3ffff800
3ffff800
3ffff800
00007f00
00007f00
00007f00
00007f00
00007f00
00007f00
3fffff00
3fffff00
3fffff00
3fffff00
3fffff00
3fffff00
fc03ff00
fc03ff00
fc03ff00
fc03ff00
fc03ff00
fc03ff00
3fffff00
3fffff00
3fffff00
3fffff00
3fffff00
3fffff00
00000000
00000000
00000000
00000000
00000000
00000000
00000000
00000000
00000000
00000000
00000000
00000000
ENDCHAR
STARTCHAR U+00E4
ENCODING 228
SWIDTH 1000 0
DWIDTH 30 0
BBX 30 60 0 -12
BITMAP
00000000
00000000
00000000
00000000
00000000
00000000
3f83f800
3f83f800
3f83f800
3f83f800
3f83f800
3f83f800
00000000
00000000
00000000
00000000
00000000
00000000
3ffff800
3ffff800
3ffff800
3ffff800
3ffff800
3ffff800
00007f00
00007f00
00007f00
00007f00
00007f00
00007f00
3fffff00
3fffff00
3fffff00
3fffff00
3fffff00
3fffff00
fc03ff00
fc03ff00
fc03ff00
fc03ff00
fc03ff00
fc03ff00
3fffff00
3fffff00
3fffff00
3fffff00
3fffff00
3fffff00
00000000
00000000
00000000
00000000
00000000
00000000
00000000
00000000
00000000
00000000
00000000
00000000
ENDCHAR
STARTCHAR U+00E3
ENCODING 227
SWIDTH 1000 0
DWIDTH 30 0
BBX 30 60 0 -12
BITMAP
07fe7f00
07fe7f00
07fe7f00
07fe7f00
07fe7f00
07fe7f00
3f9ff800
3f9ff800
3f9ff800
3f9ff800
3f9ff800
3f9ff800
00000000
00000000
00000000
00000000
00000000
00000000
3ffff800
3ffff800
3ffff800
3ffff800
3ffff800
3ffff800
00007f00
00007f00
00007f00
00007f00
00007f00
00007f00
3fffff00
3fffff00
3fffff00
3fffff00
3fffff00
3fffff00
fc03ff00
fc03ff00
fc03ff00
fc03ff00
fc03ff00
fc03ff00
3fffff00
3fffff00
3fffff00
3fffff00
3fffff00
3fffff00
00000000
00000000
00000000
00000000
00000000
00000000
00000000
00000000
00000000
00000000
00000000
00000000
ENDCHAR
STARTCHAR U+00E2
ENCODING 226
SWIDTH 1000 0
DWIDTH 30 0
BBX 30 60 0 -12
BITMAP
07ffc000
07ffc000
07ffc000
07ffc000
07ffc000
07ffc000
3f83f800
3f83f800
3f83f800
3f83f800
3f83f800
3f83f800
00000000
00000000
00000000
00000000
00000000
00000000
3ffff800
3ffff800
3ffff800
3ffff800
3ffff800
3ffff800
00007f00
00007f00
00007f00
00007f00
00007f00
00007f00
3fffff00
3fffff00
3fffff00
3fffff00
3fffff00
3fffff00
fc03ff00
fc03ff00
fc03ff00
fc03ff00
fc03ff00
fc03ff00
3fffff00
3fffff00
3fffff00
3fffff00
3fffff00
3fffff00
00000000
00000000
00000000
00000000
00000000
00000000
00000000
00000000
00000000
00000000
00000000
00000000
ENDCHAR
STARTCHAR U+00E1
ENCODING 225
SWIDTH 1000 0
DWIDTH 30 0
BBX 30 60 0 -12
BITMAP
00000000
00000000
00000000
00000000
00000000
00000000
00ffc000
00ffc000
00ffc000
00ffc000
00ffc000
00ffc000
3ff00000
3ff00000
3ff00000
3ff00000
3ff00000
3ff00000
3ffff800
3ffff800
3ffff800
3ffff800
3ffff800
3ffff800
00007f00
00007f00
00007f00
00007f00
00007f00
00007f00
3fffff00
3fffff00
3fffff00
3fffff00
3fffff00
3fffff00
fc03ff00
fc03ff00
fc03ff00
fc03ff00
fc03ff00
fc03ff00
3fffff00
3fffff00
3fffff00
3fffff00
3fffff00
3fffff00
00000000
00000000
00000000
00000000
00000000
00000000
00000000
00000000
00000000
00000000
00000000
00000000
ENDCHAR
STARTCHAR U+00E0
ENCODING 224
SWIDTH 1000 0
DWIDTH 30 0
BBX 30 60 0 -12
BITMAP
00000000
00000000
00000000
00000000
00000000
00000000
07fe0000
07fe0000
07fe0000
07fe0000
07fe0000
07fe0000
001ff800
001ff800
001ff800
001ff800
001ff800
001ff800
3ffff800
3ffff800
3ffff800
3ffff800
3ffff800
3ffff800
00007f00
00007f00
00007f00
00007f00
00007f00
00007f00
3fffff00
3fffff00
3fffff00
3fffff00
3fffff00
3fffff00
fc03ff00
fc03ff00
fc03ff00
fc03ff00
fc03ff00
fc03ff00
3fffff00
3fffff00
3fffff00
3fffff00
3fffff00
3fffff00
00000000
00000000
00000000
00000000
00000000
00000000
00000000
00000000
00000000
00000000
00000000
00000000
ENDCHAR
STARTCHAR U+00DF
ENCODING 223
SWIDTH 1000 0
DWIDTH 30 0
BBX 30 60 0 -12
BITMAP
00000000
00000000
00000000
00000000
00000000
00000000
07ffc000
07ffc000
07ffc000
07ffc000
07ffc000
07ffc000
3f83f800
3f83f800
3f83f800
3f83f800
3f83f800
3f83f800
fc03f800
fc03f800
fc03f800
fc03f800
fc03f800
fc03f800
ffffc000
ffffc000
ffffc000
ffffc000
ffffc000
ffffc000
fc03f800
fc03f800
fc03f800
fc03f800
fc03f800
fc03f800
fff07f00
fff07f00
fff07f00
fff07f00
fff07f00
fff07f00
fcfff800
fcfff800
fcfff800
fcfff800
fcfff800
fcfff800
fc000000
fc000000
fc000000
fc000000
fc000000
fc000000
00000000
00000000
00000000
00000000
00000000
00000000
ENDCHAR
STARTCHAR U+00DE
ENCODING 222
SWIDTH 1000 0
DWIDTH 30 0
BBX 30 60 0 -12
BITMAP
00000000
00000000
00000000
00000000
00000000
00000000
ff800000
ff800000
ff800000
ff800000
ff800000
ff800000
3ffff800
3ffff800
3ffff800
3ffff800
3ffff800
3ffff800
3f807f00
3f807f00
3f807f00
3f807f00
3f807f00
3f807f00
3f807f00
3f807f00
3f807f00
3f807f00
3f807f00
3f807f00
3f807f00
3f807f00
3f807f00
3f807f00
3f807f00
3f807f00
3ffff800
3ffff800
3ffff800
3ffff800
3ffff800
3ffff800
ff800000
ff800000
ff800000
ff800000
ff800000
ff800000
00000000
00000000
00000000
00000000
00000000
00000000
00000000
00000000
00000000
00000000
00000000
00000000
ENDCHAR
STARTCHAR U+0178
ENCODING 376
SWIDTH 1000 0
DWIDTH 30 0
BBX 30 60 0 -12
BITMAP
3f83f800
3f83f800
3f83f800
3f83f800
3f83f800
3f83f800
00000000
00000000
00000000
00000000
00000000
00000000
fc007f00
fc007f00
fc007f00
fc007f00
fc007f00
fc007f00
3f83f800
3f83f800
3f83f800
3f83f800
3f83f800
3f83f800
07ffc000
07ffc000
07ffc000
07ffc000
07ffc000
07ffc000
00fe0000
00fe0000
00fe0000
00fe0000
00fe0000
00fe0000
00fe0000
00fe0000
00fe0000
00fe0000
00fe0000
00fe0000
00fe0000
00fe0000
00fe0000
00fe0000
00fe0000
00fe0000
00000000
00000000
00000000
00000000
00000000
00000000
00000000
00000000
00000000
00000000
00000000
00000000
ENDCHAR
STARTCHAR U+00DC
ENCODING 220
SWIDTH 1000 0
DWIDTH 30 0
BBX 30 60 0 -12
BITMAP
3f83f800
3f83f800
3f83f800
3f83f800
3f83f800
3f83f800
00000000
00000000
00000000
00000000
00000000
00000000
fc007f00
fc007f00
fc007f00
fc007f00
fc007f00
fc007f00
fc007f00
fc007f00
fc007f00
fc007f00
fc007f00
fc007f00
fc007f00
fc007f00
fc007f00
fc007f00
fc007f00
fc007f00
fc007f00
fc007f00
fc007f00
fc007f00
fc007f00
fc007f00
fc007f00
fc007f00
fc007f00
fc007f00
fc007f00
fc007f00
3ffff800
3ffff800
3ffff800
3ffff800
3ffff800
3ffff800
00000000
00000000
00000000
00000000
00000000
00000000
00000000
00000000
00000000
00000000
00000000
00000000
ENDCHAR
STARTCHAR U+00DB
ENCODING 219
SWIDTH 1000 0
DWIDTH 30 0
BBX 30 60 0 -12
BITMAP
00fe0000
00fe0000
00fe0000
00fe0000
00fe0000
00fe0000
07ffc000
07ffc000
07ffc000
07ffc000
07ffc000
07ffc000
fc007f00
fc007f00
fc007f00
fc007f00
fc007f00
fc007f00
fc007f00
fc007f00
fc007f00
fc007f00
fc007f00
fc007f00
fc007f00
fc007f00
fc007f00
fc007f00
fc007f00
fc007f00
fc007f00
fc007f00
fc007f00
fc007f00
fc007f00
fc007f00
fc007f00
fc007f00
fc007f00
fc007f00
fc007f00
fc007f00
3ffff800
3ffff800
3ffff800
3ffff800
3ffff800
3ffff800
00000000
00000000
00000000
00000000
00000000
00000000
00000000
00000000
00000000
00000000
00000000
00000000
ENDCHAR
STARTCHAR U+00DA
ENCODING 218
SWIDTH 1000 0
DWIDTH 30 0
BBX 30 60 0 -12
BITMAP
001ff800
001ff800
001ff800
001ff800
001ff800
001ff800
07fe0000
07fe0000
07fe0000
07fe0000
07fe0000
07fe0000
fc007f00
fc007f00
fc007f00
fc007f00
fc007f00
fc007f00
fc007f00
fc007f00
fc007f00
fc007f00
fc007f00
fc007f00
fc007f00
fc007f00
fc007f00
fc007f00
fc007f00
fc007f00
fc007f00
fc007f00
fc007f00
fc007f00
fc007f00
fc007f00
fc007f00
fc007f00
fc007f00
fc007f00
fc007f00
fc007f00
3ffff800
3ffff800
3ffff800
3ffff800
3ffff800
3ffff800
00000000
00000000
00000000
00000000
00000000
00000000
00000000
00000000
00000000
00000000
00000000
00000000
ENDCHAR
STARTCHAR U+00D9
ENCODING 217
SWIDTH 1000 0
DWIDTH 30 0
BBX 30 60 0 -12
BITMAP
3ff00000
3ff00000
3ff00000
3ff00000
3ff00000
3ff00000
00ffc000
00ffc000
00ffc000
00ffc000
00ffc000
00ffc000
fc007f00
fc007f00
fc007f00
fc007f00
fc007f00
fc007f00
fc007f00
fc007f00
fc007f00
fc007f00
fc007f00
fc007f00
fc007f00
fc007f00
fc007f00
fc007f00
fc007f00
fc007f00
fc007f00
fc007f00
fc007f00
fc007f00
fc007f00
fc007f00
fc007f00
fc007f00
fc007f00
fc007f00
fc007f00
fc007f00
3ffff800
3ffff800
3ffff800
3ffff800
3ffff800
3ffff800
00000000
00000000
00000000
00000000
00000000
00000000
00000000
00000000
00000000
00000000
00000000
00000000
ENDCHAR
STARTCHAR U+00D8
ENCODING 216
SWIDTH 1000 0
DWIDTH 30 0
BBX 30 60 0 -12
BITMAP
00007f00
00007f00
00007f00
00007f00
00007f00
00007f00
3ffff800
3ffff800
3ffff800
3ffff800
3ffff800
3ffff800
fc03ff00
fc03ff00
fc03ff00
fc03ff00
fc03ff00
fc03ff00
fc1fff00
fc1fff00
fc1fff00
fc1fff00
fc1fff00
fc1fff00
fcfe7f00
fcfe7f00
fcfe7f00
fcfe7f00
fcfe7f00
fcfe7f00
fff07f00
fff07f00
fff07f00
fff07f00
fff07f00
fff07f00
ff807f00
ff807f00
ff807f00
ff807f00
ff807f00
ff807f00
3ffff800
3ffff800
3ffff800
3ffff800
3ffff800
3ffff800
fc000000
fc000000
fc000000
fc000000
fc000000
fc000000
00000000
00000000
00000000
00000000
00000000
00000000
ENDCHAR
STARTCHAR U+0152
ENCODING 338
SWIDTH 1000 0
DWIDTH 30 0
BBX 30 60 0 -12
BITMAP
00000000
00000000
00000000
00000000
00000000
00000000
3fffff00
3fffff00
3fffff00
3fffff00
3fffff00
3fffff00
fcfe0000
fcfe0000
fcfe0000
fcfe0000
fcfe0000
fcfe0000
fcfe0000
fcfe0000
fcfe0000
fcfe0000
fcfe0000
fcfe0000
fcfff800
fcfff800
fcfff800
fcfff800
fcfff800
fcfff800
fcfe0000
fcfe0000
fcfe0000
fcfe0000
fcfe0000
fcfe0000
fcfe0000
fcfe0000
fcfe0000
fcfe0000
fcfe0000
fcfe0000
3fffff00
3fffff00
3fffff00
3fffff00
3fffff00
3fffff00
00000000
00000000
00000000
00000000
00000000
00000000
00000000
00000000
00000000
00000000
00000000
00000000
ENDCHAR
STARTCHAR U+00D6
ENCODING 214
SWIDTH 1000 0
DWIDTH 30 0
BBX 30 60 0 -12
BITMAP
3f83f800
3f83f800
3f83f800
3f83f800
3f83f800
3f83f800
00000000
00000000
00000000
00000000
00000000
00000000
3ffff800
3ffff800
3ffff800
3ffff800
3ffff800
3ffff800
fc007f00
fc007f00
fc007f00
fc007f00
fc007f00
fc007f00
fc007f00
fc007f00
fc007f00
fc007f00
fc007f00
fc007f00
fc007f00
fc007f00
fc007f00
fc007f00
fc007f00
fc007f00
fc007f00
fc007f00
fc007f00
fc007f00
fc007f00
fc007f00
3ffff800
3ffff800
3ffff800
3ffff800
3ffff800
3ffff800
00000000
00000000
00000000
00000000
00000000
00000000
00000000
00000000
00000000
00000000
00000000
00000000
ENDCHAR
STARTCHAR U+00D5
ENCODING 213
SWIDTH 1000 0
DWIDTH 30 0
BBX 30 60 0 -12
BITMAP
3ff3f800
3ff3f800
3ff3f800
3ff3f800
3ff3f800
3ff3f800
fcffc000
fcffc000
fcffc000
fcffc000
fcffc000
fcffc000
3ffff800
3ffff800
3ffff800
3ffff800
3ffff800
3ffff800
fc007f00
fc007f00
fc007f00
fc007f00
fc007f00
fc007f00
fc007f00
fc007f00
fc007f00
fc007f00
fc007f00
fc007f00
fc007f00
fc007f00
fc007f00
fc007f00
fc007f00
fc007f00
fc007f00
fc007f00
fc007f00
fc007f00
fc007f00
fc007f00
3ffff800
3ffff800
3ffff800
3ffff800
3ffff800
3ffff800
00000000
00000000
00000000
00000000
00000000
00000000
00000000
00000000
00000000
00000000
00000000
00000000
ENDCHAR
STARTCHAR U+00D4
ENCODING 212
SWIDTH 1000 0
DWIDTH 30 0
BBX 30 60 0 -12
BITMAP
07ffc000
07ffc000
07ffc000
07ffc000
07ffc000
07ffc000
3f83f800
3f83f800
3f83f800
3f83f800
3f83f800
3f83f800
3ffff800
3ffff800
3ffff800
3ffff800
3ffff800
3ffff800
fc007f00
fc007f00
fc007f00
fc007f00
fc007f00
fc007f00
fc007f00
fc007f00
fc007f00
fc007f00
fc007f00
fc007f00
fc007f00
fc007f00
fc007f00
fc007f00
fc007f00
fc007f00
fc007f00
fc007f00
fc007f00
fc007f00
fc007f00
fc007f00
3ffff800
3ffff800
3ffff800
3ffff800
3ffff800
3ffff800
00000000
00000000
00000000
00000000
00000000
00000000
00000000
00000000
00000000
00000000
00000000
00000000
ENDCHAR
STARTCHAR U+00D3
ENCODING 211
SWIDTH 1000 0
DWIDTH 30 0
BBX 30 60 0 -12
BITMAP
00ffc000
00ffc000
00ffc000
00ffc000
00ffc000
00ffc000
3ff00000
3ff00000
3ff00000
3ff00000
3ff00000
3ff00000
3ffff800
3ffff800
3ffff800
3ffff800
3ffff800
3ffff800
fc007f00
fc007f00
fc007f00
fc007f00
fc007f00
fc007f00
fc007f00
fc007f00
fc007f00
fc007f00
fc007f00
fc007f00
fc007f00
fc007f00
fc007f00
fc007f00
fc007f00
fc007f00
fc007f00
fc007f00
fc007f00
fc007f00
fc007f00
fc007f00
3ffff800
3ffff800
3ffff800
3ffff800
3ffff800
3ffff800
00000000
00000000
00000000
00000000
00000000
00000000
00000000
00000000
00000000
00000000
00000000
00000000
ENDCHAR
STARTCHAR U+00D2
ENCODING 210
SWIDTH 1000 0
DWIDTH 30 0
BBX 30 60 0 -12
BITMAP
07fe0000
07fe0000
07fe0000
07fe0000
07fe0000
07fe0000
001ff800
001ff800
001ff800
001ff800
001ff800
001ff800
3ffff800
3ffff800
3ffff800
3ffff800
3ffff800
3ffff800
fc007f00
fc007f00
fc007f00
fc007f00
fc007f00
fc007f00
fc007f00
fc007f00
fc007f00
fc007f00
fc007f00
fc007f00
fc007f00
fc007f00
fc007f00
fc007f00
fc007f00
fc007f00
fc007f00
fc007f00
fc007f00
fc007f00
fc007f00
fc007f00
3ffff800
3ffff800
3ffff800
3ffff800
3ffff800
3ffff800
00000000
00000000
00000000
00000000
00000000
00000000
00000000
00000000
00000000
00000000
00000000
00000000
ENDCHAR
STARTCHAR U+00D1
ENCODING 209
SWIDTH 1000 0
DWIDTH 30 0
BBX 30 60 0 -12
BITMAP
07fe7f00
07fe7f00
07fe7f00
07fe7f00
07fe7f00
07fe7f00
3f9ff800
3f9ff800
3f9ff800
3f9ff800
3f9ff800
3f9ff800
ff807f00
ff807f00
ff807f00
ff807f00
ff807f00
ff807f00
fff07f00
fff07f00
fff07f00
fff07f00
fff07f00
fff07f00
fcfe7f00
fcfe7f00
fcfe7f00
fcfe7f00
fcfe7f00
fcfe7f00
fc1fff00
fc1fff00
fc1fff00
fc1fff00
fc1fff00
fc1fff00
fc03ff00
fc03ff00
fc03ff00
fc03ff00
fc03ff00
fc03ff00
fc007f00
fc007f00
fc007f00
fc007f00
fc007f00
fc007f00
00000000
00000000
00000000
00000000
00000000
00000000
00000000
00000000
00000000
00000000
00000000
00000000
ENDCHAR
STARTCHAR U+00D0
ENCODING 208
SWIDTH 1000 0
DWIDTH 30 0
BBX 30 60 0 -12
BITMAP
00000000
00000000
00000000
00000000
00000000
00000000
ffffc000
ffffc000
ffffc000
ffffc000
ffffc000
ffffc000
3f83f800
3f83f800
3f83f800
3f83f800
3f83f800
3f83f800
3f807f00
3f807f00
3f807f00
3f807f00
3f807f00
3f807f00
fffe7f00
fffe7f00
fffe7f00
fffe7f00
fffe7f00
fffe7f00
3f807f00
3f807f00
3f807f00
3f807f00
3f807f00
3f807f00
3f83f800
3f83f800
3f83f800
3f83f800
3f83f800
3f83f800
ffffc000
ffffc000
ffffc000
ffffc000
ffffc000
ffffc000
00000000
00000000
00000000
00000000
00000000
00000000
00000000
00000000
00000000
00000000
00000000
00000000
ENDCHAR
STARTCHAR U+00CF
ENCODING 207
SWIDTH 1000 0
DWIDTH 30 0
BBX 30 60 0 -12
BITMAP
3f83f800
3f83f800
3f83f800
3f83f800
3f83f800
3f83f800
00000000
00000000
00000000
00000000
00000000
00000000
3ffff800
3ffff800
3ffff800
3ffff800
3ffff800
3ffff800
00fe0000
00fe0000
00fe0000
00fe0000
00fe0000
00fe0000
00fe0000
00fe0000
00fe0000
00fe0000
00fe0000
00fe0000
00fe0000
00fe0000
00fe0000
00fe0000
00fe0000
00fe0000
00fe0000
00fe0000
00fe0000
00fe0000
00fe0000
00fe0000
3ffff800
3ffff800
3ffff800
3ffff800
3ffff800
3ffff800
00000000
00000000
00000000
00000000
00000000
00000000
00000000
00000000
00000000
00000000
00000000
00000000
ENDCHAR
STARTCHAR U+00CE
ENCODING 206
SWIDTH 1000 0
DWIDTH 30 0
BBX 30 60 0 -12
BITMAP
07ffc000
07ffc000
07ffc000
07ffc000
07ffc000
07ffc000
3f83f800
3f83f800
3f83f800
3f83f800
3f83f800
3f83f800
3ffff800
3ffff800
3ffff800
3ffff800
3ffff800
3ffff800
00fe0000
00fe0000
00fe0000
00fe0000
00fe0000
00fe0000
00fe0000
00fe0000
00fe0000
00fe0000
00fe0000
00fe0000
00fe0000
00fe0000
00fe0000
00fe0000
00fe0000
00fe0000
00fe0000
00fe0000
00fe0000
00fe0000
00fe0000
00fe0000
3ffff800
3ffff800
3ffff800
3ffff800
3ffff800
3ffff800
00000000
00000000
00000000
00000000
00000000
00000000
00000000
00000000
00000000
00000000
00000000
00000000
ENDCHAR
STARTCHAR U+00CD
ENCODING 205
SWIDTH 1000 0
DWIDTH 30 0
BBX 30 60 0 -12
BITMAP
00ffc000
00ffc000
00ffc000
00ffc000
00ffc000
00ffc000
3ff00000
3ff00000
3ff00000
3ff00000
3ff00000
3ff00000
3ffff800
3ffff800
3ffff800
3ffff800
3ffff800
3ffff800
00fe0000
00fe0000
00fe0000
00fe0000
00fe0000
00fe0000
00fe0000
00fe0000
00fe0000
00fe0000
00fe0000
00fe0000
00fe0000
00fe0000
00fe0000
00fe0000
00fe0000
00fe0000
00fe0000
00fe0000
00fe0000
00fe0000
00fe0000
00fe0000
3ffff800
3ffff800
3ffff800
3ffff800
3ffff800
3ffff800
00000000
00000000
00000000
00000000
00000000
00000000
00000000
00000000
00000000
00000000
00000000
00000000
ENDCHAR
STARTCHAR U+00CC
ENCODING 204
SWIDTH 1000 0
DWIDTH 30 0
BBX 30 60 0 -12
BITMAP
07fe0000
07fe0000
07fe0000
07fe0000
07fe0000
07fe0000
001ff800
001ff800
001ff800
001ff800
001ff800
001ff800
3ffff800
3ffff800
3ffff800
3ffff800
3ffff800
3ffff800
00fe0000
00fe0000
00fe0000
00fe0000
00fe0000
00fe0000
00fe0000
00fe0000
00fe0000
00fe0000
00fe0000
00fe0000
00fe0000
00fe0000
00fe0000
00fe0000
00fe0000
00fe0000
00fe0000
00fe0000
00fe0000
00fe0000
00fe0000
00fe0000
3ffff800
3ffff800
3ffff800
3ffff800
3ffff800
3ffff800
00000000
00000000
00000000
00000000
00000000
00000000
00000000
00000000
00000000
00000000
00000000
00000000
ENDCHAR
STARTCHAR U+00CB
ENCODING 203
SWIDTH 1000 0
DWIDTH 30 0
BBX 30 60 0 -12
BITMAP
3f83f800
3f83f800
3f83f800
3f83f800
3f83f800
3f83f800
00000000
00000000
00000000
00000000
00000000
00000000
ffffff00
ffffff00
ffffff00
ffffff00
ffffff00
ffffff00
fc000000
fc000000
fc000000
fc000000
fc000000
fc000000
ffffc000
ffffc000
ffffc000
ffffc000
ffffc000
ffffc000
fc000000
fc000000
fc000000
fc000000
fc000000
fc000000
fc000000
fc000000
fc000000
fc000000
fc000000
fc000000
ffffff00
ffffff00
ffffff00
ffffff00
ffffff00
ffffff00
00000000
00000000
00000000
00000000
00000000
00000000
00000000
00000000
00000000
00000000
00000000
00000000
ENDCHAR
STARTCHAR U+00CA
ENCODING 202
SWIDTH 1000 0
DWIDTH 30 0
BBX 30 60 0 -12
BITMAP
07ffc000
07ffc000
07ffc000
07ffc000
07ffc000
07ffc000
3f83f800
3f83f800
3f83f800
3f83f800
3f83f800
3f83f800
ffffff00
ffffff00
ffffff00
ffffff00
ffffff00
ffffff00
fc000000
fc000000
fc000000
fc000000
fc000000
fc000000
fffe0000
fffe0000
fffe0000
fffe0000
fffe0000
fffe0000
fc000000
fc000000
fc000000
fc000000
fc000000
fc000000
fc000000
fc000000
fc000000
fc000000
fc000000
fc000000
ffffff00
ffffff00
ffffff00
ffffff00
ffffff00
ffffff00
00000000
00000000
00000000
00000000
00000000
00000000
00000000
00000000
00000000
00000000
00000000
00000000
ENDCHAR
STARTCHAR U+00C9
ENCODING 201
SWIDTH 1000 0
DWIDTH 30 0
BBX 30 60 0 -12
BITMAP
001ff800
001ff800
001ff800
001ff800
001ff800
001ff800
07fe0000
07fe0000
07fe0000
07fe0000
07fe0000
07fe0000
ffffff00
ffffff00
ffffff00
ffffff00
ffffff00
ffffff00
fc000000
fc000000
fc000000
fc000000
fc000000
fc000000
ffffc000
ffffc000
ffffc000
ffffc000
ffffc000
ffffc000
fc000000
fc000000
fc000000
fc000000
fc000000
fc000000
fc000000
fc000000
fc000000
fc000000
fc000000
fc000000
ffffff00
ffffff00
ffffff00
ffffff00
ffffff00
ffffff00
00000000
00000000
00000000
00000000
00000000
00000000
00000000
00000000
00000000
00000000
00000000
00000000
ENDCHAR
STARTCHAR U+00C8
ENCODING 200
SWIDTH 1000 0
DWIDTH 30 0
BBX 30 60 0 -12
BITMAP
3ff00000
3ff00000
3ff00000
3ff00000
3ff00000
3ff00000
00ffc000
00ffc000
00ffc000
00ffc000
00ffc000
00ffc000
ffffff00
ffffff00
ffffff00
ffffff00
ffffff00
ffffff00
fc000000
fc000000
fc000000
fc000000
fc000000
fc000000
ffffc000
ffffc000
ffffc000
ffffc000
ffffc000
ffffc000
fc000000
fc000000
fc000000
fc000000
fc000000
fc000000
fc000000
fc000000
fc000000
fc000000
fc000000
fc000000
ffffff00
ffffff00
ffffff00
ffffff00
ffffff00
ffffff00
00000000
00000000
00000000
00000000
00000000
00000000
00000000
00000000
00000000
00000000
00000000
00000000
ENDCHAR
STARTCHAR U+00C7
ENCODING 199
SWIDTH 1000 0
DWIDTH 30 0
BBX 30 60 0 -12
BITMAP
00000000
00000000
00000000
00000000
00000000
00000000
07fff800
07fff800
07fff800
07fff800
07fff800
07fff800
3f807f00
3f807f00
3f807f00
3f807f00
3f807f00
3f807f00
fc000000
fc000000
fc000000
fc000000
fc000000
fc000000
fc000000
fc000000
fc000000
fc000000
fc000000
fc000000
fc000000
fc000000
fc000000
fc000000
fc000000
fc000000
3f807f00
3f807f00
3f807f00
3f807f00
3f807f00
3f807f00
07fff800
07fff800
07fff800
07fff800
07fff800
07fff800
001fc000
001fc000
001fc000
001fc000
001fc000
001fc000
07ffc000
07ffc000
07ffc000
07ffc000
07ffc000
07ffc000
ENDCHAR
STARTCHAR U+00C6
ENCODING 198
SWIDTH 1000 0
DWIDTH 30 0
BBX 30 60 0 -12
BITMAP
00000000
00000000
00000000
00000000
00000000
00000000
07ffff00
07ffff00
07ffff00
07ffff00
07ffff00
07ffff00
3ffe0000
3ffe0000
3ffe0000
3ffe0000
3ffe0000
3ffe0000
fcfe0000
fcfe0000
fcfe0000
fcfe0000
fcfe0000
fcfe0000
fcfff800
fcfff800
fcfff800
fcfff800
fcfff800
fcfff800
fffe0000
fffe0000
fffe0000
fffe0000
fffe0000
fffe0000
fcfe0000
fcfe0000
fcfe0000
fcfe0000
fcfe0000
fcfe0000
fcffff00
fcffff00
fcffff00
fcffff00
fcffff00
fcffff00
00000000
00000000
00000000
00000000
00000000
00000000
00000000
00000000
00000000
00000000
00000000
00000000
ENDCHAR
STARTCHAR U+00C5
ENCODING 197
SWIDTH 1000 0
DWIDTH 30 0
BBX 30 60 0 -12
BITMAP
07ffc000
07ffc000
07ffc000
07ffc000
07ffc000
07ffc000
3f83f800
3f83f800
3f83f800
3f83f800
3f83f800
3f83f800
07ffc000
07ffc000
07ffc000
07ffc000
07ffc000
07ffc000
07ffc000
07ffc000
07ffc000
07ffc000
07ffc000
07ffc000
3f83f800
3f83f800
3f83f800
3f83f800
3f83f800
3f83f800
ffffff00
ffffff00
ffffff00
ffffff00
ffffff00
ffffff00
fc007f00
fc007f00
fc007f00
fc007f00
fc007f00
fc007f00
fc007f00
fc007f00
fc007f00
fc007f00
fc007f00
fc007f00
00000000
00000000
00000000
00000000
00000000
00000000
00000000
00000000
00000000
00000000
00000000
00000000
ENDCHAR
STARTCHAR U+00C4
ENCODING 196
SWIDTH 1000 0
DWIDTH 30 0
BBX 30 60 0 -12
BITMAP
3f83f800
3f83f800
3f83f800
3f83f800
3f83f800
3f83f800
00000000
00000000
00000000
00000000
00000000
00000000
00fe0000
00fe0000
00fe0000
00fe0000
00fe0000
00fe0000
07ffc000
07ffc000
07ffc000
07ffc000
07ffc000
07ffc000
3f83f800
3f83f800
3f83f800
3f83f800
3f83f800
3f83f800
ffffff00
ffffff00
ffffff00
ffffff00
ffffff00
ffffff00
fc007f00
fc007f00
fc007f00
fc007f00
fc007f00
fc007f00
fc007f00
fc007f00
fc007f00
fc007f00
fc007f00
fc007f00
00000000
00000000
00000000
00000000
00000000
00000000
00000000
00000000
00000000
00000000
00000000
00000000
ENDCHAR
STARTCHAR U+00C3
ENCODING 195
SWIDTH 1000 0
DWIDTH 30 0
BBX 30 60 0 -12
BITMAP
07fe7f00
07fe7f00
07fe7f00
07fe7f00
07fe7f00
07fe7f00
3f9ff800
3f9ff800
3f9ff800
3f9ff800
3f9ff800
3f9ff800
00fe0000
00fe0000
00fe0000
00fe0000
00fe0000
00fe0000
07ffc000
07ffc000
07ffc000
07ffc000
07ffc000
07ffc000
3f83f800
3f83f800
3f83f800
3f83f800
3f83f800
3f83f800
ffffff00
ffffff00
ffffff00
ffffff00
ffffff00
ffffff00
fc007f00
fc007f00
fc007f00
fc007f00
fc007f00
fc007f00
fc007f00
fc007f00
fc007f00
fc007f00
fc007f00
fc007f00
00000000
00000000
00000000
00000000
00000000
00000000
00000000
00000000
00000000
00000000
00000000
00000000
ENDCHAR
STARTCHAR U+00C2
ENCODING 194
SWIDTH 1000 0
DWIDTH 30 0
BBX 30 60 0 -12
BITMAP
07ffc000
07ffc000
07ffc000
07ffc000
07ffc000
07ffc000
3f83f800
3f83f800
3f83f800
3f83f800
3f83f800
3f83f800
00fe0000
00fe0000
00fe0000
00fe0000
00fe0000
00fe0000
07ffc000
07ffc000
07ffc000
07ffc000
07ffc000
07ffc000
3f83f800
3f83f800
3f83f800
3f83f800
3f83f800
3f83f800
ffffff00
ffffff00
ffffff00
ffffff00
ffffff00
ffffff00
fc007f00
fc007f00
fc007f00
fc007f00
fc007f00
fc007f00
fc007f00
fc007f00
fc007f00
fc007f00
fc007f00
fc007f00
00000000
00000000
00000000
00000000
00000000
00000000
00000000
00000000
00000000
00000000
00000000
00000000
ENDCHAR
STARTCHAR U+00C1
ENCODING 193
SWIDTH 1000 0
DWIDTH 30 0
BBX 30 60 0 -12
BITMAP
00ffc000
00ffc000
00ffc000
00ffc000
00ffc000
00ffc000
3ff00000
3ff00000
3ff00000
3ff00000
3ff00000
3ff00000
00fe0000
00fe0000
00fe0000
00fe0000
00fe0000
00fe0000
07ffc000
07ffc000
07ffc000
07ffc000
07ffc000
07ffc000
3f83f800
3f83f800
3f83f800
3f83f800
3f83f800
3f83f800
ffffff00
ffffff00
ffffff00
ffffff00
ffffff00
ffffff00
fc007f00
fc007f00
fc007f00
fc007f00
fc007f00
fc007f00
fc007f00
fc007f00
fc007f00
fc007f00
fc007f00
fc007f00
00000000
00000000
00000000
00000000
00000000
00000000
00000000
00000000
00000000
00000000
00000000
00000000
ENDCHAR
STARTCHAR U+00C0
ENCODING 192
SWIDTH 1000 0
DWIDTH 30 0
BBX 30 60 0 -12
BITMAP
07fe0000
07fe0000
07fe0000
07fe0000
07fe0000
07fe0000
001ff800
001ff800
001ff800
001ff800
001ff800
001ff800
00fe0000
00fe0000
00fe0000
00fe0000
00fe0000
00fe0000
07ffc000
07ffc000
07ffc000
07ffc000
07ffc000
07ffc000
3f83f800
3f83f800
3f83f800
3f83f800
3f83f800
3f83f800
ffffff00
ffffff00
ffffff00
ffffff00
ffffff00
ffffff00
fc007f00
fc007f00
fc007f00
fc007f00
fc007f00
fc007f00
fc007f00
fc007f00
fc007f00
fc007f00
fc007f00
fc007f00
00000000
00000000
00000000
00000000
00000000
00000000
00000000
00000000
00000000
00000000
00000000
00000000
ENDCHAR
STARTCHAR U+00BF
ENCODING 191
SWIDTH 1000 0
DWIDTH 30 0
BBX 30 60 0 -12
BITMAP
00000000
00000000
00000000
00000000
00000000
00000000
00fe0000
00fe0000
00fe0000
00fe0000
00fe0000
00fe0000
00000000
00000000
00000000
00000000
00000000
00000000
00fe0000
00fe0000
00fe0000
00fe0000
00fe0000
00fe0000
00fe0000
00fe0000
00fe0000
00fe0000
00fe0000
00fe0000
3ff00000
3ff00000
3ff00000
3ff00000
3ff00000
3ff00000
fc007f00
fc007f00
fc007f00
fc007f00
fc007f00
fc007f00
3ffff800
3ffff800
3ffff800
3ffff800
3ffff800
3ffff800
00000000
00000000
00000000
00000000
00000000
00000000
00000000
00000000
00000000
00000000
00000000
00000000
ENDCHAR
STARTCHAR U+00BE
ENCODING 190
SWIDTH 1000 0
DWIDTH 30 0
BBX 30 60 0 -12
BITMAP
fffe0000
fffe0000
fffe0000
fffe0000
fffe0000
fffe0000
00fe0000
00fe0000
00fe0000
00fe0000
00fe0000
00fe0000
3ff3f800
3ff3f800
3ff3f800
3ff3f800
3ff3f800
3ff3f800
00ffc000
00ffc000
00ffc000
00ffc000
00ffc000
00ffc000
fffe0000
fffe0000
fffe0000
fffe0000
fffe0000
fffe0000
07f3f800
07f3f800
07f3f800
07f3f800
07f3f800
07f3f800
3f9ff800
3f9ff800
3f9ff800
3f9ff800
3f9ff800
3f9ff800
fcfff800
fcfff800
fcfff800
fcfff800
fcfff800
fcfff800
07ffff00
07ffff00
07ffff00
07ffff00
07ffff00
07ffff00
0003f800
0003f800
0003f800
0003f800
0003f800
0003f800
ENDCHAR
STARTCHAR U+00BD
ENCODING 189
SWIDTH 1000 0
DWIDTH 30 0
BBX 30 60 0 -12
BITMAP
00000000
00000000
00000000
00000000
00000000
00000000
3f800000
3f800000
3f800000
3f800000
3f800000
3f800000
ff83f800
ff83f800
ff83f800
ff83f800
ff83f800
ff83f800
3f9fc000
3f9fc000
3f9fc000
3f9fc000
3f9fc000
3f9fc000
3ffe0000
3ffe0000
3ffe0000
3ffe0000
3ffe0000
3ffe0000
07fff800
07fff800
07fff800
07fff800
07fff800
07fff800
3ffe7f00
3ffe7f00
3ffe7f00
3ffe7f00
3ffe7f00
3ffe7f00
fc03f800
fc03f800
fc03f800
fc03f800
fc03f800
fc03f800
001fc000
001fc000
001fc000
001fc000
001fc000
001fc000
00ffff00
00ffff00
00ffff00
00ffff00
00ffff00
00ffff00
ENDCHAR
STARTCHAR U+00BC
ENCODING 188
SWIDTH 1000 0
DWIDTH 30 0
BBX 30 60 0 -12
BITMAP
00000000
00000000
00000000
00000000
00000000
00000000
3f800000
3f800000
3f800000
3f800000
3f800000
3f800000
ff83f800
ff83f800
ff83f800
ff83f800
ff83f800
ff83f800
3f9fc000
3f9fc000
3f9fc000
3f9fc000
3f9fc000
3f9fc000
3ffe0000
3ffe0000
3ffe0000
3ffe0000
3ffe0000
3ffe0000
07f3f800
07f3f800
07f3f800
07f3f800
07f3f800
07f3f800
3f9ff800
3f9ff800
3f9ff800
3f9ff800
3f9ff800
3f9ff800
fcfff800
fcfff800
fcfff800
fcfff800
fcfff800
fcfff800
07ffff00
07ffff00
07ffff00
07ffff00
07ffff00
07ffff00
0003f800
0003f800
0003f800
0003f800
0003f800
0003f800
ENDCHAR
STARTCHAR U+00BB
ENCODING 187
SWIDTH 1000 0
DWIDTH 30 0
BBX 30 60 0 -12
BITMAP
00000000
00000000
00000000
00000000
00000000
00000000
fcfe0000
fcfe0000
fcfe0000
fcfe0000
fcfe0000
fcfe0000
3f9fc000
3f9fc000
3f9fc000
3f9fc000
3f9fc000
3f9fc000
07f3f800
07f3f800
07f3f800
07f3f800
07f3f800
07f3f800
00fe7f00
00fe7f00
00fe7f00
00fe7f00
00fe7f00
00fe7f00
07f3f800
07f3f800
07f3f800
07f3f800
07f3f800
07f3f800
3f9fc000
3f9fc000
3f9fc000
3f9fc000
3f9fc000
3f9fc000
fcfe0000
fcfe0000
fcfe0000
fcfe0000
fcfe0000
fcfe0000
00000000
00000000
00000000
00000000
00000000
00000000
00000000
00000000
00000000
00000000
00000000
00000000
ENDCHAR
STARTCHAR U+00BA
ENCODING 186
SWIDTH 1000 0
DWIDTH 30 0
BBX 30 60 0 -12
BITMAP
00000000
00000000
00000000
00000000
00000000
00000000
3ffff800
3ffff800
3ffff800
3ffff800
3ffff800
3ffff800
fc007f00
fc007f00
fc007f00
fc007f00
fc007f00
fc007f00
fc007f00
fc007f00
fc007f00
fc007f00
fc007f00
fc007f00
fc007f00
fc007f00
fc007f00
fc007f00
fc007f00
fc007f00
3ffff800
3ffff800
3ffff800
3ffff800
3ffff800
3ffff800
00000000
00000000
00000000
00000000
00000000
00000000
ffffff00
ffffff00
ffffff00
ffffff00
ffffff00
ffffff00
00000000
00000000
00000000
00000000
00000000
00000000
00000000
00000000
00000000
00000000
00000000
00000000
ENDCHAR
STARTCHAR U+00B9
ENCODING 185
SWIDTH 1000 0
DWIDTH 30 0
BBX 30 60 0 -12
BITMAP
00fe0000
00fe0000
00fe0000
00fe0000
00fe0000
00fe0000
07fe0000
07fe0000
07fe0000
07fe0000
07fe0000
07fe0000
00fe0000
00fe0000
00fe0000
00fe0000
00fe0000
00fe0000
00fe0000
00fe0000
00fe0000
00fe0000
00fe0000
00fe0000
07ffc000
07ffc000
07ffc000
07ffc000
07ffc000
07ffc000
00000000
00000000
00000000
00000000
00000000
00000000
00000000
00000000
00000000
00000000
00000000
00000000
00000000
00000000
00000000
00000000
00000000
00000000
00000000
00000000
00000000
00000000
00000000
00000000
00000000
00000000
00000000
00000000
00000000
00000000
ENDCHAR
STARTCHAR U+00B8
ENCODING 184
SWIDTH 1000 0
DWIDTH 30 0
BBX 30 60 0 -12
BITMAP
00000000
00000000
00000000
00000000
00000000
00000000
00000000
00000000
00000000
00000000
00000000
00000000
00000000
00000000
00000000
00000000
00000000
00000000
00000000
00000000
00000000
00000000
00000000
00000000
00000000
00000000
00000000
00000000
00000000
00000000
00000000
00000000
00000000
00000000
00000000
00000000
00000000
00000000
00000000
00000000
00000000
00000000
00000000
00000000
00000000
00000000
00000000
00000000
001fc000
001fc000
001fc000
001fc000
001fc000
001fc000
07ffc000
07ffc000
07ffc000
07ffc000
07ffc000
07ffc000
ENDCHAR
STARTCHAR U+2022
ENCODING 8226
SWIDTH 1000 0
DWIDTH 30 0
BBX 30 60 0 -12
BITMAP
00000000
00000000
00000000
00000000
00000000
00000000
00000000
00000000
00000000
00000000
00000000
00000000
00000000
00000000
00000000
00000000
00000000
00000000
07fe0000
07fe0000
07fe0000
07fe0000
07fe0000
07fe0000
07fe0000
07fe0000
07fe0000
07fe0000
07fe0000
07fe0000
00000000
00000000
00000000
00000000
00000000
00000000
00000000
00000000
00000000
00000000
00000000
00000000
00000000
00000000
00000000
00000000
00000000
00000000
00000000
00000000
00000000
00000000
00000000
00000000
00000000
00000000
00000000
00000000
00000000
00000000
ENDCHAR
STARTCHAR U+00B6
ENCODING 182
SWIDTH 1000 0
DWIDTH 30 0
BBX 30 60 0 -12
BITMAP
00000000
00000000
00000000
00000000
00000000
00000000
3fffff00
3fffff00
3fffff00
3fffff00
3fffff00
3fffff00
ff9fff00
ff9fff00
ff9fff00
ff9fff00
ff9fff00
ff9fff00
ff9fff00
ff9fff00
ff9fff00
ff9fff00
ff9fff00
ff9fff00
3fffff00
3fffff00
3fffff00
3fffff00
3fffff00
3fffff00
001fff00
001fff00
001fff00
001fff00
001fff00
001fff00
001fff00
001fff00
001fff00
001fff00
001fff00
001fff00
001fff00
001fff00
001fff00
001fff00
001fff00
001fff00
00000000
00000000
00000000
00000000
00000000
00000000
00000000
00000000
00000000
00000000
00000000
00000000
ENDCHAR
STARTCHAR U+00B5
ENCODING 181
SWIDTH 1000 0
DWIDTH 30 0
BBX 30 60 0 -12
BITMAP
00000000
00000000
00000000
00000000
00000000
00000000
00000000
00000000
00000000
00000000
00000000
00000000
00000000
00000000
00000000
00000000
00000000
00000000
3f807f00
3f807f00
3f807f00
3f807f00
3f807f00
3f807f00
3f807f00
3f807f00
3f807f00
3f807f00
3f807f00
3f807f00
3f807f00
3f807f00
3f807f00
3f807f00
3f807f00
3f807f00
3ff3ff00
3ff3ff00
3ff3ff00
3ff3ff00
3ff3ff00
3ff3ff00
3fffff00
3fffff00
3fffff00
3fffff00
3fffff00
3fffff00
3f800000
3f800000
3f800000
3f800000
3f800000
3f800000
fc000000
fc000000
fc000000
fc000000
fc000000
fc000000
ENDCHAR
STARTCHAR U+00B4
ENCODING 180
SWIDTH 1000 0
DWIDTH 30 0
BBX 30 60 0 -12
BITMAP
00000000
00000000
00000000
00000000
00000000
00000000
001ff800
001ff800
001ff800
001ff800
001ff800
001ff800
001fc000
001fc000
001fc000
001fc000
001fc000
001fc000
00fe0000
00fe0000
00fe0000
00fe0000
00fe0000
00fe0000
00000000
00000000
00000000
00000000
00000000
00000000
00000000
00000000
00000000
00000000
00000000
00000000
00000000
00000000
00000000
00000000
00000000
00000000
00000000
00000000
00000000
00000000
00000000
00000000
00000000
00000000
00000000
00000000
00000000
00000000
00000000
00000000
00000000
00000000
00000000
00000000
ENDCHAR
STARTCHAR U+00B3
ENCODING 179
SWIDTH 1000 0
DWIDTH 30 0
BBX 30 60 0 -12
BITMAP
3ffff800
3ffff800
3ffff800
3ffff800
3ffff800
3ffff800
0003f800
0003f800
0003f800
0003f800
0003f800
0003f800
00ffc000
00ffc000
00ffc000
00ffc000
00ffc000
00ffc000
0003f800
0003f800
0003f800
0003f800
0003f800
0003f800
3fffc000
3fffc000
3fffc000
3fffc000
3fffc000
3fffc000
00000000
00000000
00000000
00000000
00000000
00000000
00000000
00000000
00000000
00000000
00000000
00000000
00000000
00000000
00000000
00000000
00000000
00000000
00000000
00000000
00000000
00000000
00000000
00000000
00000000
00000000
00000000
00000000
00000000
00000000
ENDCHAR
STARTCHAR U+00B2
ENCODING 178
SWIDTH 1000 0
DWIDTH 30 0
BBX 30 60 0 -12
BITMAP
07ffc000
07ffc000
07ffc000
07ffc000
07ffc000
07ffc000
3f83f800
3f83f800
3f83f800
3f83f800
3f83f800
3f83f800
00ffc000
00ffc000
00ffc000
00ffc000
00ffc000
00ffc000
07f00000
07f00000
07f00000
07f00000
07f00000
07f00000
3ffff800
3ffff800
3ffff800
3ffff800
3ffff800
3ffff800
00000000
00000000
00000000
00000000
00000000
00000000
00000000
00000000
00000000
00000000
00000000
00000000
00000000
00000000
00000000
00000000
00000000
00000000
00000000
00000000
00000000
00000000
00000000
00000000
00000000
00000000
00000000
00000000
00000000
00000000
ENDCHAR
STARTCHAR U+00AF
ENCODING 175
SWIDTH 1000 0
DWIDTH 30 0
BBX 30 60 0 -12
BITMAP
3ffff800
3ffff800
3ffff800
3ffff800
3ffff800
3ffff800
00000000
00000000
00000000
00000000
00000000
00000000
00000000
00000000
00000000
00000000
00000000
00000000
00000000
00000000
00000000
00000000
00000000
00000000
00000000
00000000
00000000
00000000
00000000
00000000
00000000
00000000
00000000
00000000
00000000
00000000
00000000
00000000
00000000
00000000
00000000
00000000
00000000
00000000
00000000
00000000
00000000
00000000
00000000
00000000
00000000
00000000
00000000
00000000
00000000
00000000
00000000
00000000
00000000
00000000
ENDCHAR
STARTCHAR U+00AE
ENCODING 174
SWIDTH 1000 0
DWIDTH 30 0
BBX 30 60 0 -12
BITMAP
00000000
00000000
00000000
00000000
00000000
00000000
07ffc000
07ffc000
07ffc000
07ffc000
07ffc000
07ffc000
3f83f800
3f83f800
3f83f800
3f83f800
3f83f800
3f83f800
ffffff00
ffffff00
ffffff00
ffffff00
ffffff00
ffffff00
fff3ff00
fff3ff00
fff3ff00
fff3ff00
fff3ff00
fff3ff00
ffffff00
ffffff00
ffffff00
ffffff00
ffffff00
ffffff00
fffe7f00
fffe7f00
fffe7f00
fffe7f00
fffe7f00
fffe7f00
3ffff800
3ffff800
3ffff800
3ffff800
3ffff800
3ffff800
07ffc000
07ffc000
07ffc000
07ffc000
07ffc000
07ffc000
00000000
00000000
00000000
00000000
00000000
00000000
ENDCHAR
STARTCHAR U+00D7
ENCODING 215
SWIDTH 1000 0
DWIDTH 30 0
BBX 30 60 0 -12
BITMAP
00000000
00000000
00000000
00000000
00000000
00000000
00000000
00000000
00000000
00000000
00000000
00000000
3f83f800
3f83f800
3f83f800
3f83f800
3f83f800
3f83f800
07ffc000
07ffc000
07ffc000
07ffc000
07ffc000
07ffc000
00fe0000
00fe0000
00fe0000
00fe0000
00fe0000
00fe0000
07ffc000
07ffc000
07ffc000
07ffc000
07ffc000
07ffc000
3f83f800
3f83f800
3f83f800
3f83f800
3f83f800
3f83f800
00000000
00000000
00000000
00000000
00000000
00000000
00000000
00000000
00000000
00000000
00000000
00000000
00000000
00000000
00000000
00000000
00000000
00000000
ENDCHAR
STARTCHAR U+00AC
ENCODING 172
SWIDTH 1000 0
DWIDTH 30 0
BBX 30 60 0 -12
BITMAP
00000000
00000000
00000000
00000000
00000000
00000000
00000000
00000000
00000000
00000000
00000000
00000000
00000000
00000000
00000000
00000000
00000000
00000000
00000000
00000000
00000000
00000000
00000000
00000000
00000000
00000000
00000000
00000000
00000000
00000000
ffffff00
ffffff00
ffffff00
ffffff00
ffffff00
ffffff00
00007f00
00007f00
00007f00
00007f00
00007f00
00007f00
00007f00
00007f00
00007f00
00007f00
00007f00
00007f00
00000000
00000000
00000000
00000000
00000000
00000000
00000000
00000000
00000000
00000000
00000000
00000000
ENDCHAR
STARTCHAR U+00AB
ENCODING 171
SWIDTH 1000 0
DWIDTH 30 0
BBX 30 60 0 -12
BITMAP
00000000
00000000
00000000
00000000
00000000
00000000
00fe7f00
00fe7f00
00fe7f00
00fe7f00
00fe7f00
00fe7f00
07f3f800
07f3f800
07f3f800
07f3f800
07f3f800
07f3f800
3f9fc000
3f9fc000
3f9fc000
3f9fc000
3f9fc000
3f9fc000
fcfe0000
fcfe0000
fcfe0000
fcfe0000
fcfe0000
fcfe0000
3f9fc000
3f9fc000
3f9fc000
3f9fc000
3f9fc000
3f9fc000
07f3f800
07f3f800
07f3f800
07f3f800
07f3f800
07f3f800
00fe7f00
00fe7f00
00fe7f00
00fe7f00
00fe7f00
00fe7f00
00000000
00000000
00000000
00000000
00000000
00000000
00000000
00000000
00000000
00000000
00000000
00000000
ENDCHAR
STARTCHAR U+00AA
ENCODING 170
SWIDTH 1000 0
DWIDTH 30 0
BBX 30 60 0 -12
BITMAP
00000000
00000000
00000000
00000000
00000000
00000000
3ffff800
3ffff800
3ffff800
3ffff800
3ffff800
3ffff800
00007f00
00007f00
00007f00
00007f00
00007f00
00007f00
3fffff00
3fffff00
3fffff00
3fffff00
3fffff00
3fffff00
fc03ff00
fc03ff00
fc03ff00
fc03ff00
fc03ff00
fc03ff00
3fffff00
3fffff00
3fffff00
3fffff00
3fffff00
3fffff00
00000000
00000000
00000000
00000000
00000000
00000000
ffffff00
ffffff00
ffffff00
ffffff00
ffffff00
ffffff00
00000000
00000000
00000000
00000000
00000000
00000000
00000000
00000000
00000000
00000000
00000000
00000000
ENDCHAR
STARTCHAR U+00A9
ENCODING 169
SWIDTH 1000 0
DWIDTH 30 0
BBX 30 60 0 -12
BITMAP
00000000
00000000
00000000
00000000
00000000
00000000
07ffc000
07ffc000
07ffc000
07ffc000
07ffc000
07ffc000
3f83f800
3f83f800
3f83f800
3f83f800
3f83f800
3f83f800
fcffff00
fcffff00
fcffff00
fcffff00
fcffff00
fcffff00
fff07f00
fff07f00
fff07f00
fff07f00
fff07f00
fff07f00
fff07f00
fff07f00
fff07f00
fff07f00
fff07f00
fff07f00
fcffff00
fcffff00
fcffff00
fcffff00
fcffff00
fcffff00
3f83f800
3f83f800
3f83f800
3f83f800
3f83f800
3f83f800
07ffc000
07ffc000
07ffc000
07ffc000
07ffc000
07ffc000
00000000
00000000
00000000
00000000
00000000
00000000
ENDCHAR
STARTCHAR U+00A4
ENCODING 164
SWIDTH 1000 0
DWIDTH 30 0
BBX 30 60 0 -12
BITMAP
00000000
00000000
00000000
00000000
00000000
00000000
00000000
00000000
00000000
00000000
00000000
00000000
fc007f00
fc007f00
fc007f00
fc007f00
fc007f00
fc007f00
3ffff800
3ffff800
3ffff800
3ffff800
3ffff800
3ffff800
3f83f800
3f83f800
3f83f800
3f83f800
3f83f800
3f83f800
3ffff800
3ffff800
3ffff800
3ffff800
3ffff800
3ffff800
fc007f00
fc007f00
fc007f00
fc007f00
fc007f00
fc007f00
00000000
00000000
00000000
00000000
00000000
00000000
00000000
00000000
00000000
00000000
00000000
00000000
00000000
00000000
00000000
00000000
00000000
00000000
ENDCHAR
STARTCHAR U+00A7
ENCODING 167
SWIDTH 1000 0
DWIDTH 30 0
BBX 30 60 0 -12
BITMAP
00000000
00000000
00000000
00000000
00000000
00000000
07fff800
07fff800
07fff800
07fff800
07fff800
07fff800
3f800000
3f800000
3f800000
3f800000
3f800000
3f800000
07ffc000
07ffc000
07ffc000
07ffc000
07ffc000
07ffc000
3f83f800
3f83f800
3f83f800
3f83f800
3f83f800
3f83f800
07ffc000
07ffc000
07ffc000
07ffc000
07ffc000
07ffc000
0003f800
0003f800
0003f800
0003f800
0003f800
0003f800
3fffc000
3fffc000
3fffc000
3fffc000
3fffc000
3fffc000
00000000
00000000
00000000
00000000
00000000
00000000
00000000
00000000
00000000
00000000
00000000
00000000
ENDCHAR
STARTCHAR U+00A6
ENCODING 166
SWIDTH 1000 0
DWIDTH 30 0
BBX 30 60 0 -12
BITMAP
00000000
00000000
00000000
00000000
00000000
00000000
00fe0000
00fe0000
00fe0000
00fe0000
00fe0000
00fe0000
00fe0000
00fe0000
00fe0000
00fe0000
00fe0000
00fe0000
00fe0000
00fe0000
00fe0000
00fe0000
00fe0000
00fe0000
00000000
00000000
00000000
00000000
00000000
00000000
00fe0000
00fe0000
00fe0000
00fe0000
00fe0000
00fe0000
00fe0000
00fe0000
00fe0000
00fe0000
00fe0000
00fe0000
00fe0000
00fe0000
00fe0000
00fe0000
00fe0000
00fe0000
00000000
00000000
00000000
00000000
00000000
00000000
00000000
00000000
00000000
00000000
00000000
00000000
ENDCHAR
STARTCHAR U+00A5
ENCODING 165
SWIDTH 1000 0
DWIDTH 30 0
BBX 30 60 0 -12
BITMAP
00000000
00000000
00000000
00000000
00000000
00000000
fc007f00
fc007f00
fc007f00
fc007f00
fc007f00
fc007f00
3f83f800
3f83f800
3f83f800
3f83f800
3f83f800
3f83f800
07ffc000
07ffc000
07ffc000
07ffc000
07ffc000
07ffc000
00fe0000
00fe0000
00fe0000
00fe0000
00fe0000
00fe0000
ffffff00
ffffff00
ffffff00
ffffff00
ffffff00
ffffff00
00fe0000
00fe0000
00fe0000
00fe0000
00fe0000
00fe0000
00fe0000
00fe0000
00fe0000
00fe0000
00fe0000
00fe0000
00000000
00000000
00000000
00000000
00000000
00000000
00000000
00000000
00000000
00000000
00000000
00000000
ENDCHAR
STARTCHAR U+00A8
ENCODING 168
SWIDTH 1000 0
DWIDTH 30 0
BBX 30 60 0 -12
BITMAP
3f83f800
3f83f800
3f83f800
3f83f800
3f83f800
3f83f800
00000000
00000000
00000000
00000000
00000000
00000000
00000000
00000000
00000000
00000000
00000000
00000000
00000000
00000000
00000000
00000000
00000000
00000000
00000000
00000000
00000000
00000000
00000000
00000000
00000000
00000000
00000000
00000000
00000000
00000000
00000000
00000000
00000000
00000000
00000000
00000000
00000000
00000000
00000000
00000000
00000000
00000000
00000000
00000000
00000000
00000000
00000000
00000000
00000000
00000000
00000000
00000000
00000000
00000000
ENDCHAR
STARTCHAR U+00A2
ENCODING 162
SWIDTH 1000 0
DWIDTH 30 0
BBX 30 60 0 -12
BITMAP
00000000
00000000
00000000
00000000
00000000
00000000
00000000
00000000
00000000
00000000
00000000
00000000
00fe0000
00fe0000
00fe0000
00fe0000
00fe0000
00fe0000
3ffff800
3ffff800
3ffff800
3ffff800
3ffff800
3ffff800
fcfe7f00
fcfe7f00
fcfe7f00
fcfe7f00
fcfe7f00
fcfe7f00
fcfe0000
fcfe0000
fcfe0000
fcfe0000
fcfe0000
fcfe0000
fcfe7f00
fcfe7f00
fcfe7f00
fcfe7f00
fcfe7f00
fcfe7f00
3ffff800
3ffff800
3ffff800
3ffff800
3ffff800
3ffff800
00fe0000
00fe0000
00fe0000
00fe0000
00fe0000
00fe0000
00000000
00000000
00000000
00000000
00000000
00000000
ENDCHAR
STARTCHAR U+00A1
ENCODING 161
SWIDTH 1000 0
DWIDTH 30 0
BBX 30 60 0 -12
BITMAP
00000000
00000000
00000000
00000000
00000000
00000000
00fe0000
00fe0000
00fe0000
00fe0000
00fe0000
00fe0000
00000000
00000000
00000000
00000000
00000000
00000000
00fe0000
00fe0000
00fe0000
00fe0000
00fe0000
00fe0000
00fe0000
00fe0000
00fe0000
00fe0000
00fe0000
00fe0000
00fe0000
00fe0000
00fe0000
00fe0000
00fe0000
00fe0000
00fe0000
00fe0000
00fe0000
00fe0000
00fe0000
00fe0000
00fe0000
00fe0000
00fe0000
00fe0000
00fe0000
00fe0000
00000000
00000000
00000000
00000000
00000000
00000000
00000000
00000000
00000000
00000000
00000000
00000000
ENDCHAR
STARTCHAR U+201F
ENCODING 8223
SWIDTH 1000 0
DWIDTH 30 0
BBX 30 60 0 -12
BITMAP
00000000
00000000
00000000
00000000
00000000
00000000
3ffff800
3ffff800
3ffff800
3ffff800
3ffff800
3ffff800
3f9fc000
3f9fc000
3f9fc000
3f9fc000
3f9fc000
3f9fc000
07f3f800
07f3f800
07f3f800
07f3f800
07f3f800
07f3f800
00000000
00000000
00000000
00000000
00000000
00000000
00000000
00000000
00000000
00000000
00000000
00000000
00000000
00000000
00000000
00000000
00000000
00000000
00000000
00000000
00000000
00000000
00000000
00000000
00000000
00000000
00000000
00000000
00000000
00000000
00000000
00000000
00000000
00000000
00000000
00000000
ENDCHAR
STARTCHAR U+201E
ENCODING 8222
SWIDTH 1000 0
DWIDTH 30 0
BBX 30 60 0 -12
BITMAP
00000000
00000000
00000000
00000000
00000000
00000000
00000000
00000000
00000000
00000000
00000000
00000000
00000000
00000000
00000000
00000000
00000000
00000000
00000000
00000000
00000000
00000000
00000000
00000000
00000000
00000000
00000000
00000000
00000000
00000000
00000000
00000000
00000000
00000000
00000000
00000000
00000000
00000000
00000000
00000000
00000000
00000000
3f9fc000
3f9fc000
3f9fc000
3f9fc000
3f9fc000
3f9fc000
3f9fc000
3f9fc000
3f9fc000
3f9fc000
3f9fc000
3f9fc000
00000000
00000000
00000000
00000000
00000000
00000000
ENDCHAR
STARTCHAR U+201D
ENCODING 8221
SWIDTH 1000 0
DWIDTH 30 0
BBX 30 60 0 -12
BITMAP
00000000
00000000
00000000
00000000
00000000
00000000
3ff3ff00
3ff3ff00
3ff3ff00
3ff3ff00
3ff3ff00
3ff3ff00
07f07f00
07f07f00
07f07f00
07f07f00
07f07f00
07f07f00
3f83f800
3f83f800
3f83f800
3f83f800
3f83f800
3f83f800
00000000
00000000
00000000
00000000
00000000
00000000
00000000
00000000
00000000
00000000
00000000
00000000
00000000
00000000
00000000
00000000
00000000
00000000
00000000
00000000
00000000
00000000
00000000
00000000
00000000
00000000
00000000
00000000
00000000
00000000
00000000
00000000
00000000
00000000
00000000
00000000
ENDCHAR
STARTCHAR U+201C
ENCODING 8220
SWIDTH 1000 0
DWIDTH 30 0
BBX 30 60 0 -12
BITMAP
00000000
00000000
00000000
00000000
00000000
00000000
07f07f00
07f07f00
07f07f00
07f07f00
07f07f00
07f07f00
3f83f800
3f83f800
3f83f800
3f83f800
3f83f800
3f83f800
3ff3ff00
3ff3ff00
3ff3ff00
3ff3ff00
3ff3ff00
3ff3ff00
00000000
00000000
00000000
00000000
00000000
00000000
00000000
00000000
00000000
00000000
00000000
00000000
00000000
00000000
00000000
00000000
00000000
00000000
00000000
00000000
00000000
00000000
00000000
00000000
00000000
00000000
00000000
00000000
00000000
00000000
00000000
00000000
00000000
00000000
00000000
00000000
ENDCHAR
STARTCHAR U+201B
ENCODING 8219
SWIDTH 1000 0
DWIDTH 30 0
BBX 30 60 0 -12
BITMAP
00000000
00000000
00000000
00000000
00000000
00000000
00fe0000
00fe0000
00fe0000
00fe0000
00fe0000
00fe0000
00fe0000
00fe0000
00fe0000
00fe0000
00fe0000
00fe0000
00fe0000
00fe0000
00fe0000
00fe0000
00fe0000
00fe0000
00000000
00000000
00000000
00000000
00000000
00000000
00000000
00000000
00000000
00000000
00000000
00000000
00000000
00000000
00000000
00000000
00000000
00000000
00000000
00000000
00000000
00000000
00000000
00000000
00000000
00000000
00000000
00000000
00000000
00000000
00000000
00000000
00000000
00000000
00000000
00000000
ENDCHAR
STARTCHAR U+201A
ENCODING 8218
SWIDTH 1000 0
DWIDTH 30 0
BBX 30 60 0 -12
BITMAP
00000000
00000000
00000000
00000000
00000000
00000000
00000000
00000000
00000000
00000000
00000000
00000000
00000000
00000000
00000000
00000000
00000000
00000000
00000000
00000000
00000000
00000000
00000000
00000000
00000000
00000000
00000000
00000000
00000000
00000000
00fe0000
00fe0000
00fe0000
00fe0000
00fe0000
00fe0000
00fe0000
00fe0000
00fe0000
00fe0000
00fe0000
00fe0000
00fe0000
00fe0000
00fe0000
00fe0000
00fe0000
00fe0000
00000000
00000000
00000000
00000000
00000000
00000000
00000000
00000000
00000000
00000000
00000000
00000000
ENDCHAR
STARTCHAR U+2019
ENCODING 8217
SWIDTH 1000 0
DWIDTH 30 0
BBX 30 60 0 -12
BITMAP
00000000
00000000
00000000
00000000
00000000
00000000
3ff00000
3ff00000
3ff00000
3ff00000
3ff00000
3ff00000
07f00000
07f00000
07f00000
07f00000
07f00000
07f00000
3f800000
3f800000
3f800000
3f800000
3f800000
3f800000
00000000
00000000
00000000
00000000
00000000
00000000
00000000
00000000
00000000
00000000
00000000
00000000
00000000
00000000
00000000
00000000
00000000
00000000
00000000
00000000
00000000
00000000
00000000
00000000
00000000
00000000
00000000
00000000
00000000
00000000
00000000
00000000
00000000
00000000
00000000
00000000
ENDCHAR
STARTCHAR U+2018
ENCODING 8216
SWIDTH 1000 0
DWIDTH 30 0
BBX 30 60 0 -12
BITMAP
00000000
00000000
00000000
00000000
00000000
00000000
00007f00
00007f00
00007f00
00007f00
00007f00
00007f00
0003f800
0003f800
0003f800
0003f800
0003f800
0003f800
0003ff00
0003ff00
0003ff00
0003ff00
0003ff00
0003ff00
00000000
00000000
00000000
00000000
00000000
00000000
00000000
00000000
00000000
00000000
00000000
00000000
00000000
00000000
00000000
00000000
00000000
00000000
00000000
00000000
00000000
00000000
00000000
00000000
00000000
00000000
00000000
00000000
00000000
00000000
00000000
00000000
00000000
00000000
00000000
00000000
ENDCHAR
STARTCHAR U+2017
ENCODING 8215
SWIDTH 1000 0
DWIDTH 30 0
BBX 30 60 0 -12
BITMAP
00000000
00000000
00000000
00000000
00000000
00000000
00000000
00000000
00000000
00000000
00000000
00000000
00000000
00000000
00000000
00000000
00000000
00000000
00000000
00000000
00000000
00000000
00000000
00000000
00000000
00000000
00000000
00000000
00000000
00000000
00000000
00000000
00000000
00000000
00000000
00000000
00000000
00000000
00000000
00000000
00000000
00000000
ffffff00
ffffff00
ffffff00
ffffff00
ffffff00
ffffff00
00000000
00000000
00000000
00000000
00000000
00000000
ffffff00
ffffff00
ffffff00
ffffff00
ffffff00
ffffff00
ENDCHAR
STARTCHAR U+2016
ENCODING 8214
SWIDTH 1000 0
DWIDTH 30 0
BBX 30 60 0 -12
BITMAP
00000000
00000000
00000000
00000000
00000000
00000000
00fff800
00fff800
00fff800
00fff800
00fff800
00fff800
00fff800
00fff800
00fff800
00fff800
00fff800
00fff800
00fff800
00fff800
00fff800
00fff800
00fff800
00fff800
00fff800
00fff800
00fff800
00fff800
00fff800
00fff800
00fff800
00fff800
00fff800
00fff800
00fff800
00fff800
00fff800
00fff800
00fff800
00fff800
00fff800
00fff800
00fff800
00fff800
00fff800
00fff800
00fff800
00fff800
00000000
00000000
00000000
00000000
00000000
00000000
00000000
00000000
00000000
00000000
00000000
00000000
ENDCHAR
STARTCHAR U+2015
ENCODING 8213
SWIDTH 1000 0
DWIDTH 30 0
BBX 30 60 0 -12
BITMAP
00000000
00000000
00000000
00000000
00000000
00000000
00000000
00000000
00000000
00000000
00000000
00000000
00000000
00000000
00000000
00000000
00000000
00000000
00000000
00000000
00000000
00000000
00000000
00000000
fffffffc
fffffffc
fffffffc
fffffffc
fffffffc
fffffffc
00000000
00000000
00000000
00000000
00000000
00000000
00000000
00000000
00000000
00000000
00000000
00000000
00000000
00000000
00000000
00000000
00000000
00000000
00000000
00000000
00000000
00000000
00000000
00000000
00000000
00000000
00000000
00000000
00000000
00000000
ENDCHAR
STARTCHAR U+2014
ENCODING 8212
SWIDTH 1000 0
DWIDTH 30 0
BBX 30 60 0 -12
BITMAP
00000000
00000000
00000000
00000000
00000000
00000000
00000000
00000000
00000000
00000000
00000000
00000000
00000000
00000000
00000000
00000000
00000000
00000000
00000000
00000000
00000000
00000000
00000000
00000000
ffffff00
ffffff00
ffffff00
ffffff00
ffffff00
ffffff00
00000000
00000000
00000000
00000000
00000000
00000000
00000000
00000000
00000000
00000000
00000000
00000000
00000000
00000000
00000000
00000000
00000000
00000000
00000000
00000000
00000000
00000000
00000000
00000000
00000000
00000000
00000000
00000000
00000000
00000000
ENDCHAR
STARTCHAR U+2013
ENCODING 8211
SWIDTH 1000 0
DWIDTH 30 0
BBX 30 60 0 -12
BITMAP
00000000
00000000
00000000
00000000
00000000
00000000
00000000
00000000
00000000
00000000
00000000
00000000
00000000
00000000
00000000
00000000
00000000
00000000
00000000
00000000
00000000
00000000
00000000
00000000
07fff800
07fff800
07fff800
07fff800
07fff800
07fff800
00000000
00000000
00000000
00000000
00000000
00000000
00000000
00000000
00000000
00000000
00000000
00000000
00000000
00000000
00000000
00000000
00000000
00000000
00000000
00000000
00000000
00000000
00000000
00000000
00000000
00000000
00000000
00000000
00000000
00000000
ENDCHAR
STARTCHAR U+2012
ENCODING 8210
SWIDTH 1000 0
DWIDTH 30 0
BBX 30 60 0 -12
BITMAP
00000000
00000000
00000000
00000000
00000000
00000000
00000000
00000000
00000000
00000000
00000000
00000000
00000000
00000000
00000000
00000000
00000000
00000000
00000000
00000000
00000000
00000000
00000000
00000000
3ffff800
3ffff800
3ffff800
3ffff800
3ffff800
3ffff800
00000000
00000000
00000000
00000000
00000000
00000000
00000000
00000000
00000000
00000000
00000000
00000000
00000000
00000000
00000000
00000000
00000000
00000000
00000000
00000000
00000000
00000000
00000000
00000000
00000000
00000000
00000000
00000000
00000000
00000000
ENDCHAR
STARTCHAR U+2011
ENCODING 8209
SWIDTH 1000 0
DWIDTH 30 0
BBX 30 60 0 -12
BITMAP
00000000
00000000
00000000
00000000
00000000
00000000
00000000
00000000
00000000
00000000
00000000
00000000
00000000
00000000
00000000
00000000
00000000
00000000
00000000
00000000
00000000
00000000
00000000
00000000
07ffc000
07ffc000
07ffc000
07ffc000
07ffc000
07ffc000
00000000
00000000
00000000
00000000
00000000
00000000
00000000
00000000
00000000
00000000
00000000
00000000
00000000
00000000
00000000
00000000
00000000
00000000
00000000
00000000
00000000
00000000
00000000
00000000
00000000
00000000
00000000
00000000
00000000
00000000
ENDCHAR
STARTCHAR U+2010
ENCODING 8208
SWIDTH 1000 0
DWIDTH 30 0
BBX 30 60 0 -12
BITMAP
00000000
00000000
00000000
00000000
00000000
00000000
00000000
00000000
00000000
00000000
00000000
00000000
00000000
00000000
00000000
00000000
00000000
00000000
00000000
00000000
00000000
00000000
00000000
00000000
07ffc000
07ffc000
07ffc000
07ffc000
07ffc000
07ffc000
00000000
00000000
00000000
00000000
00000000
00000000
00000000
00000000
00000000
00000000
00000000
00000000
00000000
00000000
00000000
00000000
00000000
00000000
00000000
00000000
00000000
00000000
00000000
00000000
00000000
00000000
00000000
00000000
00000000
00000000
ENDCHAR
STARTCHAR U+007F
ENCODING 127
SWIDTH 1000 0
DWIDTH 30 0
BBX 30 60 0 -12
BITMAP
00000000
00000000
00000000
00000000
00000000
00000000
fff00000
fff00000
fff00000
fff00000
fff00000
fff00000
fcfe0000
fcfe0000
fcfe0000
fcfe0000
fcfe0000
fcfe0000
fcfe0000
fcfe0000
fcfe0000
fcfe0000
fcfe0000
fcfe0000
fcfe0000
fcfe0000
fcfe0000
fcfe0000
fcfe0000
fcfe0000
ffffc000
ffffc000
ffffc000
ffffc000
ffffc000
ffffc000
07f00000
07f00000
07f00000
07f00000
07f00000
07f00000
07f00000
07f00000
07f00000
07f00000
07f00000
07f00000
07f00000
07f00000
07f00000
07f00000
07f00000
07f00000
07f00000
07f00000
07f00000
07f00000
07f00000
07f00000
ENDCHAR
STARTCHAR U+007E
ENCODING 126
SWIDTH 1000 0
DWIDTH 30 0
BBX 30 60 0 -12
BITMAP
00000000
00000000
00000000
00000000
00000000
00000000
3ff07f00
3ff07f00
3ff07f00
3ff07f00
3ff07f00
3ff07f00
fcfe7f00
fcfe7f00
fcfe7f00
fcfe7f00
fcfe7f00
fcfe7f00
fc1ff800
fc1ff800
fc1ff800
fc1ff800
fc1ff800
fc1ff800
00000000
00000000
00000000
00000000
00000000
00000000
00000000
00000000
00000000
00000000
00000000
00000000
00000000
00000000
00000000
00000000
00000000
00000000
00000000
00000000
00000000
00000000
00000000
00000000
00000000
00000000
00000000
00000000
00000000
00000000
00000000
00000000
00000000
00000000
00000000
00000000
ENDCHAR
STARTCHAR U+007D
ENCODING 125
SWIDTH 1000 0
DWIDTH 30 0
BBX 30 60 0 -12
BITMAP
00000000
00000000
00000000
00000000
00000000
00000000
fff00000
fff00000
fff00000
fff00000
fff00000
fff00000
00fe0000
00fe0000
00fe0000
00fe0000
00fe0000
00fe0000
07f00000
07f00000
07f00000
07f00000
07f00000
07f00000
00ffc000
00ffc000
00ffc000
00ffc000
00ffc000
00ffc000
07f00000
07f00000
07f00000
07f00000
07f00000
07f00000
00fe0000
00fe0000
00fe0000
00fe0000
00fe0000
00fe0000
fff00000
fff00000
fff00000
fff00000
fff00000
fff00000
00000000
00000000
00000000
00000000
00000000
00000000
00000000
00000000
00000000
00000000
00000000
00000000
ENDCHAR
STARTCHAR U+007C
ENCODING 124
SWIDTH 1000 0
DWIDTH 30 0
BBX 30 60 0 -12
BITMAP
00000000
00000000
00000000
00000000
00000000
00000000
00fe0000
00fe0000
00fe0000
00fe0000
00fe0000
00fe0000
00fe0000
00fe0000
00fe0000
00fe0000
00fe0000
00fe0000
00fe0000
00fe0000
00fe0000
00fe0000
00fe0000
00fe0000
00fe0000
00fe0000
00fe0000
00fe0000
00fe0000
00fe0000
00fe0000
00fe0000
00fe0000
00fe0000
00fe0000
00fe0000
00fe0000
00fe0000
00fe0000
00fe0000
00fe0000
00fe0000
00fe0000
00fe0000
00fe0000
00fe0000
00fe0000
00fe0000
00000000
00000000
00000000
00000000
00000000
00000000
00000000
00000000
00000000
00000000
00000000
00000000
ENDCHAR
STARTCHAR U+007B
ENCODING 123
SWIDTH 1000 0
DWIDTH 30 0
BBX 30 60 0 -12
BITMAP
00000000
00000000
00000000
00000000
00000000
00000000
001fff00
001fff00
001fff00
001fff00
001fff00
001fff00
00fe0000
00fe0000
00fe0000
00fe0000
00fe0000
00fe0000
001fc000
001fc000
001fc000
001fc000
001fc000
001fc000
07fe0000
07fe0000
07fe0000
07fe0000
07fe0000
07fe0000
001fc000
001fc000
001fc000
001fc000
001fc000
001fc000
00fe0000
00fe0000
00fe0000
00fe0000
00fe0000
00fe0000
001fff00
001fff00
001fff00
001fff00
001fff00
001fff00
00000000
00000000
00000000
00000000
00000000
00000000
00000000
00000000
00000000
00000000
00000000
00000000
ENDCHAR
STARTCHAR U+007A
ENCODING 122
SWIDTH 1000 0
DWIDTH 30 0
BBX 30 60 0 -12
BITMAP
00000000
00000000
00000000
00000000
00000000
00000000
00000000
00000000
00000000
00000000
00000000
00000000
00000000
00000000
00000000
00000000
00000000
00000000
ffffff00
ffffff00
ffffff00
ffffff00
ffffff00
ffffff00
0003f800
0003f800
0003f800
0003f800
0003f800
0003f800
00ffc000
00ffc000
00ffc000
00ffc000
00ffc000
00ffc000
07f00000
07f00000
07f00000
07f00000
07f00000
07f00000
ffffff00
ffffff00
ffffff00
ffffff00
ffffff00
ffffff00
00000000
00000000
00000000
00000000
00000000
00000000
00000000
00000000
00000000
00000000
00000000
00000000
ENDCHAR
STARTCHAR U+0079
ENCODING 121
SWIDTH 1000 0
DWIDTH 30 0
BBX 30 60 0 -12
BITMAP
00000000
00000000
00000000
00000000
00000000
00000000
00000000
00000000
00000000
00000000
00000000
00000000
00000000
00000000
00000000
00000000
00000000
00000000
fc03f800
fc03f800
fc03f800
fc03f800
fc03f800
fc03f800
fc03f800
fc03f800
fc03f800
fc03f800
fc03f800
fc03f800
fc1ff800
fc1ff800
fc1ff800
fc1ff800
fc1ff800
fc1ff800
3ffff800
3ffff800
3ffff800
3ffff800
3ffff800
3ffff800
0003f800
0003f800
0003f800
0003f800
0003f800
0003f800
fc03f800
fc03f800
fc03f800
fc03f800
fc03f800
fc03f800
3fffc000
3fffc000
3fffc000
3fffc000
3fffc000
3fffc000
ENDCHAR
STARTCHAR U+0078
ENCODING 120
SWIDTH 1000 0
DWIDTH 30 0
BBX 30 60 0 -12
BITMAP
00000000
00000000
00000000
00000000
00000000
00000000
00000000
00000000
00000000
00000000
00000000
00000000
00000000
00000000
00000000
00000000
00000000
00000000
fc03f800
fc03f800
fc03f800
fc03f800
fc03f800
fc03f800
3f9fc000
3f9fc000
3f9fc000
3f9fc000
3f9fc000
3f9fc000
07fe0000
07fe0000
07fe0000
07fe0000
07fe0000
07fe0000
3f9fc000
3f9fc000
3f9fc000
3f9fc000
3f9fc000
3f9fc000
fc03f800
fc03f800
fc03f800
fc03f800
fc03f800
fc03f800
00000000
00000000
00000000
00000000
00000000
00000000
00000000
00000000
00000000
00000000
00000000
00000000
ENDCHAR
STARTCHAR U+0077
ENCODING 119
SWIDTH 1000 0
DWIDTH 30 0
BBX 30 60 0 -12
BITMAP
00000000
00000000
00000000
00000000
00000000
00000000
00000000
00000000
00000000
00000000
00000000
00000000
00000000
00000000
00000000
00000000
00000000
00000000
fc007f00
fc007f00
fc007f00
fc007f00
fc007f00
fc007f00
fc007f00
fc007f00
fc007f00
fc007f00
fc007f00
fc007f00
fcfe7f00
fcfe7f00
fcfe7f00
fcfe7f00
fcfe7f00
fcfe7f00
ffffff00
ffffff00
ffffff00
ffffff00
ffffff00
ffffff00
3f83f800
3f83f800
3f83f800
3f83f800
3f83f800
3f83f800
00000000
00000000
00000000
00000000
00000000
00000000
00000000
00000000
00000000
00000000
00000000
00000000
ENDCHAR
STARTCHAR U+0076
ENCODING 118
SWIDTH 1000 0
DWIDTH 30 0
BBX 30 60 0 -12
BITMAP
00000000
00000000
00000000
00000000
00000000
00000000
00000000
00000000
00000000
00000000
00000000
00000000
00000000
00000000
00000000
00000000
00000000
00000000
fc007f00
fc007f00
fc007f00
fc007f00
fc007f00
fc007f00
fc007f00
fc007f00
fc007f00
fc007f00
fc007f00
fc007f00
3f83f800
3f83f800
3f83f800
3f83f800
3f83f800
3f83f800
07ffc000
07ffc000
07ffc000
07ffc000
07ffc000
07ffc000
00fe0000
00fe0000
00fe0000
00fe0000
00fe0000
00fe0000
00000000
00000000
00000000
00000000
00000000
00000000
00000000
00000000
00000000
00000000
00000000
00000000
ENDCHAR
STARTCHAR U+0075
ENCODING 117
SWIDTH 1000 0
DWIDTH 30 0
BBX 30 60 0 -12
BITMAP
00000000
00000000
00000000
00000000
00000000
00000000
00000000
00000000
00000000
00000000
00000000
00000000
00000000
00000000
00000000
00000000
00000000
00000000
fc03f800
fc03f800
fc03f800
fc03f800
fc03f800
fc03f800
fc03f800
fc03f800
fc03f800
fc03f800
fc03f800
fc03f800
fc03f800
fc03f800
fc03f800
fc03f800
fc03f800
fc03f800
fc03f800
fc03f800
fc03f800
fc03f800
fc03f800
fc03f800
3fffff00
3fffff00
3fffff00
3fffff00
3fffff00
3fffff00
00000000
00000000
00000000
00000000
00000000
00000000
00000000
00000000
00000000
00000000
00000000
00000000
ENDCHAR
STARTCHAR U+0074
ENCODING 116
SWIDTH 1000 0
DWIDTH 30 0
BBX 30 60 0 -12
BITMAP
00000000
00000000
00000000
00000000
00000000
00000000
07f00000
07f00000
07f00000
07f00000
07f00000
07f00000
07f00000
07f00000
07f00000
07f00000
07f00000
07f00000
ffffc000
ffffc000
ffffc000
ffffc000
ffffc000
ffffc000
07f00000
07f00000
07f00000
07f00000
07f00000
07f00000
07f00000
07f00000
07f00000
07f00000
07f00000
07f00000
07f3f800
07f3f800
07f3f800
07f3f800
07f3f800
07f3f800
00ffc000
00ffc000
00ffc000
00ffc000
00ffc000
00ffc000
00000000
00000000
00000000
00000000
00000000
00000000
00000000
00000000
00000000
00000000
00000000
00000000
ENDCHAR
STARTCHAR U+0073
ENCODING 115
SWIDTH 1000 0
DWIDTH 30 0
BBX 30 60 0 -12
BITMAP
00000000
00000000
00000000
00000000
00000000
00000000
00000000
00000000
00000000
00000000
00000000
00000000
00000000
00000000
00000000
00000000
00000000
00000000
3ffff800
3ffff800
3ffff800
3ffff800
3ffff800
3ffff800
fc000000
fc000000
fc000000
fc000000
fc000000
fc000000
3ffff800
3ffff800
3ffff800
3ffff800
3ffff800
3ffff800
00007f00
00007f00
00007f00
00007f00
00007f00
00007f00
fffff800
fffff800
fffff800
fffff800
fffff800
fffff800
00000000
00000000
00000000
00000000
00000000
00000000
00000000
00000000
00000000
00000000
00000000
00000000
ENDCHAR
STARTCHAR U+0072
ENCODING 114
SWIDTH 1000 0
DWIDTH 30 0
BBX 30 60 0 -12
BITMAP
00000000
00000000
00000000
00000000
00000000
00000000
00000000
00000000
00000000
00000000
00000000
00000000
00000000
00000000
00000000
00000000
00000000
00000000
fcfff800
fcfff800
fcfff800
fcfff800
fcfff800
fcfff800
3ff07f00
3ff07f00
3ff07f00
3ff07f00
3ff07f00
3ff07f00
3f800000
3f800000
3f800000
3f800000
3f800000
3f800000
3f800000
3f800000
3f800000
3f800000
3f800000
3f800000
3f800000
3f800000
3f800000
3f800000
3f800000
3f800000
00000000
00000000
00000000
00000000
00000000
00000000
00000000
00000000
00000000
00000000
00000000
00000000
ENDCHAR
STARTCHAR U+0071
ENCODING 113
SWIDTH 1000 0
DWIDTH 30 0
BBX 30 60 0 -12
BITMAP
00000000
00000000
00000000
00000000
00000000
00000000
00000000
00000000
00000000
00000000
00000000
00000000
00000000
00000000
00000000
00000000
00000000
00000000
3fffff00
3fffff00
3fffff00
3fffff00
3fffff00
3fffff00
fc03ff00
fc03ff00
fc03ff00
fc03ff00
fc03ff00
fc03ff00
fc03ff00
fc03ff00
fc03ff00
fc03ff00
fc03ff00
fc03ff00
3fffff00
3fffff00
3fffff00
3fffff00
3fffff00
3fffff00
00007f00
00007f00
00007f00
00007f00
00007f00
00007f00
00007f00
00007f00
00007f00
00007f00
00007f00
00007f00
00007f00
00007f00
00007f00
00007f00
00007f00
00007f00
ENDCHAR
STARTCHAR U+0070
ENCODING 112
SWIDTH 1000 0
DWIDTH 30 0
BBX 30 60 0 -12
BITMAP
00000000
00000000
00000000
00000000
00000000
00000000
00000000
00000000
00000000
00000000
00000000
00000000
00000000
00000000
00000000
00000000
00000000
00000000
fffff800
fffff800
fffff800
fffff800
fffff800
fffff800
ff807f00
ff807f00
ff807f00
ff807f00
ff807f00
ff807f00
ff807f00
ff807f00
ff807f00
ff807f00
ff807f00
ff807f00
fffff800
fffff800
fffff800
fffff800
fffff800
fffff800
fc000000
fc000000
fc000000
fc000000
fc000000
fc000000
fc000000
fc000000
fc000000
fc000000
fc000000
fc000000
fc000000
fc000000
fc000000
fc000000
fc000000
fc000000
ENDCHAR
STARTCHAR U+006f
ENCODING 111
SWIDTH 1000 0
DWIDTH 30 0
BBX 30 60 0 -12
BITMAP
00000000
00000000
00000000
00000000
00000000
00000000
00000000
00000000
00000000
00000000
00000000
00000000
00000000
00000000
00000000
00000000
00000000
00000000
3ffff800
3ffff800
3ffff800
3ffff800
3ffff800
3ffff800
fc007f00
fc007f00
fc007f00
fc007f00
fc007f00
fc007f00
fc007f00
fc007f00
fc007f00
fc007f00
fc007f00
fc007f00
fc007f00
fc007f00
fc007f00
fc007f00
fc007f00
fc007f00
3ffff800
3ffff800
3ffff800
3ffff800
3ffff800
3ffff800
00000000
00000000
00000000
00000000
00000000
00000000
00000000
00000000
00000000
00000000
00000000
00000000
ENDCHAR
STARTCHAR U+006e
ENCODING 110
SWIDTH 1000 0
DWIDTH 30 0
BBX 30 60 0 -12
BITMAP
00000000
00000000
00000000
00000000
00000000
00000000
00000000
00000000
00000000
00000000
00000000
00000000
00000000
00000000
00000000
00000000
00000000
00000000
fffff800
fffff800
fffff800
fffff800
fffff800
fffff800
ff807f00
ff807f00
ff807f00
ff807f00
ff807f00
ff807f00
fc007f00
fc007f00
fc007f00
fc007f00
fc007f00
fc007f00
fc007f00
fc007f00
fc007f00
fc007f00
fc007f00
fc007f00
fc007f00
fc007f00
fc007f00
fc007f00
fc007f00
fc007f00
00000000
00000000
00000000
00000000
00000000
00000000
00000000
00000000
00000000
00000000
00000000
00000000
ENDCHAR
STARTCHAR U+006d
ENCODING 109
SWIDTH 1000 0
DWIDTH 30 0
BBX 30 60 0 -12
BITMAP
00000000
00000000
00000000
00000000
00000000
00000000
00000000
00000000
00000000
00000000
00000000
00000000
00000000
00000000
00000000
00000000
00000000
00000000
ff83f800
ff83f800
ff83f800
ff83f800
ff83f800
ff83f800
ffffff00
ffffff00
ffffff00
ffffff00
ffffff00
ffffff00
fcfe7f00
fcfe7f00
fcfe7f00
fcfe7f00
fcfe7f00
fcfe7f00
fcfe7f00
fcfe7f00
fcfe7f00
fcfe7f00
fcfe7f00
fcfe7f00
fc007f00
fc007f00
fc007f00
fc007f00
fc007f00
fc007f00
00000000
00000000
00000000
00000000
00000000
00000000
00000000
00000000
00000000
00000000
00000000
00000000
ENDCHAR
STARTCHAR U+006c
ENCODING 108
SWIDTH 1000 0
DWIDTH 30 0
BBX 30 60 0 -12
BITMAP
00000000
00000000
00000000
00000000
00000000
00000000
07fe0000
07fe0000
07fe0000
07fe0000
07fe0000
07fe0000
00fe0000
00fe0000
00fe0000
00fe0000
00fe0000
00fe0000
00fe0000
00fe0000
00fe0000
00fe0000
00fe0000
00fe0000
00fe0000
00fe0000
00fe0000
00fe0000
00fe0000
00fe0000
00fe0000
00fe0000
00fe0000
00fe0000
00fe0000
00fe0000
00fe0000
00fe0000
00fe0000
00fe0000
00fe0000
00fe0000
07ffc000
07ffc000
07ffc000
07ffc000
07ffc000
07ffc000
00000000
00000000
00000000
00000000
00000000
00000000
00000000
00000000
00000000
00000000
00000000
00000000
ENDCHAR
STARTCHAR U+006b
ENCODING 107
SWIDTH 1000 0
DWIDTH 30 0
BBX 30 60 0 -12
BITMAP
00000000
00000000
00000000
00000000
00000000
00000000
fc000000
fc000000
fc000000
fc000000
fc000000
fc000000
fc000000
fc000000
fc000000
fc000000
fc000000
fc000000
fc1fc000
fc1fc000
fc1fc000
fc1fc000
fc1fc000
fc1fc000
fcfe0000
fcfe0000
fcfe0000
fcfe0000
fcfe0000
fcfe0000
fff00000
fff00000
fff00000
fff00000
fff00000
fff00000
fc1fc000
fc1fc000
fc1fc000
fc1fc000
fc1fc000
fc1fc000
fc007f00
fc007f00
fc007f00
fc007f00
fc007f00
fc007f00
00000000
00000000
00000000
00000000
00000000
00000000
00000000
00000000
00000000
00000000
00000000
00000000
ENDCHAR
STARTCHAR U+006a
ENCODING 106
SWIDTH 1000 0
DWIDTH 30 0
BBX 30 60 0 -12
BITMAP
00000000
00000000
00000000
00000000
00000000
00000000
0003f800
0003f800
0003f800
0003f800
0003f800
0003f800
00000000
00000000
00000000
00000000
00000000
00000000
0003f800
0003f800
0003f800
0003f800
0003f800
0003f800
0003f800
0003f800
0003f800
0003f800
0003f800
0003f800
0003f800
0003f800
0003f800
0003f800
0003f800
0003f800
0003f800
0003f800
0003f800
0003f800
0003f800
0003f800
fc03f800
fc03f800
fc03f800
fc03f800
fc03f800
fc03f800
fc03f800
fc03f800
fc03f800
fc03f800
fc03f800
fc03f800
3fffc000
3fffc000
3fffc000
3fffc000
3fffc000
3fffc000
ENDCHAR
STARTCHAR U+0069
ENCODING 105
SWIDTH 1000 0
DWIDTH 30 0
BBX 30 60 0 -12
BITMAP
00000000
00000000
00000000
00000000
00000000
00000000
00fe0000
00fe0000
00fe0000
00fe0000
00fe0000
00fe0000
00000000
00000000
00000000
00000000
00000000
00000000
07fe0000
07fe0000
07fe0000
07fe0000
07fe0000
07fe0000
00fe0000
00fe0000
00fe0000
00fe0000
00fe0000
00fe0000
00fe0000
00fe0000
00fe0000
00fe0000
00fe0000
00fe0000
00fe0000
00fe0000
00fe0000
00fe0000
00fe0000
00fe0000
3ffff800
3ffff800
3ffff800
3ffff800
3ffff800
3ffff800
00000000
00000000
00000000
00000000
00000000
00000000
00000000
00000000
00000000
00000000
00000000
00000000
ENDCHAR
STARTCHAR U+0068
ENCODING 104
SWIDTH 1000 0
DWIDTH 30 0
BBX 30 60 0 -12
BITMAP
00000000
00000000
00000000
00000000
00000000
00000000
fc000000
fc000000
fc000000
fc000000
fc000000
fc000000
fc000000
fc000000
fc000000
fc000000
fc000000
fc000000
fffff800
fffff800
fffff800
fffff800
fffff800
fffff800
ff807f00
ff807f00
ff807f00
ff807f00
ff807f00
ff807f00
fc007f00
fc007f00
fc007f00
fc007f00
fc007f00
fc007f00
fc007f00
fc007f00
fc007f00
fc007f00
fc007f00
fc007f00
fc007f00
fc007f00
fc007f00
fc007f00
fc007f00
fc007f00
00000000
00000000
00000000
00000000
00000000
00000000
00000000
00000000
00000000
00000000
00000000
00000000
ENDCHAR
STARTCHAR U+0067
ENCODING 103
SWIDTH 1000 0
DWIDTH 30 0
BBX 30 60 0 -12
BITMAP
00000000
00000000
00000000
00000000
00000000
00000000
00000000
00000000
00000000
00000000
00000000
00000000
00000000
00000000
00000000
00000000
00000000
00000000
3fffff00
3fffff00
3fffff00
3fffff00
3fffff00
3fffff00
fc03f800
fc03f800
fc03f800
fc03f800
fc03f800
fc03f800
3fffc000
3fffc000
3fffc000
3fffc000
3fffc000
3fffc000
fc000000
fc000000
fc000000
fc000000
fc000000
fc000000
3ffff800
3ffff800
3ffff800
3ffff800
3ffff800
3ffff800
fc007f00
fc007f00
fc007f00
fc007f00
fc007f00
fc007f00
3ffff800
3ffff800
3ffff800
3ffff800
3ffff800
3ffff800
ENDCHAR
STARTCHAR U+0066
ENCODING 102
SWIDTH 1000 0
DWIDTH 30 0
BBX 30 60 0 -12
BITMAP
00000000
00000000
00000000
00000000
00000000
00000000
00fff800
00fff800
00fff800
00fff800
00fff800
00fff800
07f07f00
07f07f00
07f07f00
07f07f00
07f07f00
07f07f00
07f00000
07f00000
07f00000
07f00000
07f00000
07f00000
ffffc000
ffffc000
ffffc000
ffffc000
ffffc000
ffffc000
07f00000
07f00000
07f00000
07f00000
07f00000
07f00000
07f00000
07f00000
07f00000
07f00000
07f00000
07f00000
07f00000
07f00000
07f00000
07f00000
07f00000
07f00000
00000000
00000000
00000000
00000000
00000000
00000000
00000000
00000000
00000000
00000000
00000000
00000000
ENDCHAR
STARTCHAR U+0065
ENCODING 101
SWIDTH 1000 0
DWIDTH 30 0
BBX 30 60 0 -12
BITMAP
00000000
00000000
00000000
00000000
00000000
00000000
00000000
00000000
00000000
00000000
00000000
00000000
00000000
00000000
00000000
00000000
00000000
00000000
3ffff800
3ffff800
3ffff800
3ffff800
3ffff800
3ffff800
fc007f00
fc007f00
fc007f00
fc007f00
fc007f00
fc007f00
ffffff00
ffffff00
ffffff00
ffffff00
ffffff00
ffffff00
fc000000
fc000000
fc000000
fc000000
fc000000
fc000000
3ffff800
3ffff800
3ffff800
3ffff800
3ffff800
3ffff800
00000000
00000000
00000000
00000000
00000000
00000000
00000000
00000000
00000000
00000000
00000000
00000000
ENDCHAR
STARTCHAR U+0064
ENCODING 100
SWIDTH 1000 0
DWIDTH 30 0
BBX 30 60 0 -12
BITMAP
00000000
00000000
00000000
00000000
00000000
00000000
00007f00
00007f00
00007f00
00007f00
00007f00
00007f00
00007f00
00007f00
00007f00
00007f00
00007f00
00007f00
3fffff00
3fffff00
3fffff00
3fffff00
3fffff00
3fffff00
fc03ff00
fc03ff00
fc03ff00
fc03ff00
fc03ff00
fc03ff00
fc007f00
fc007f00
fc007f00
fc007f00
fc007f00
fc007f00
fc03ff00
fc03ff00
fc03ff00
fc03ff00
fc03ff00
fc03ff00
3fffff00
3fffff00
3fffff00
3fffff00
3fffff00
3fffff00
00000000
00000000
00000000
00000000
00000000
00000000
00000000
00000000
00000000
00000000
00000000
00000000
ENDCHAR
STARTCHAR U+0063
ENCODING 99
SWIDTH 1000 0
DWIDTH 30 0
BBX 30 60 0 -12
BITMAP
00000000
00000000
00000000
00000000
00000000
00000000
00000000
00000000
00000000
00000000
00000000
00000000
00000000
00000000
00000000
00000000
00000000
00000000
3ffff800
3ffff800
3ffff800
3ffff800
3ffff800
3ffff800
fc007f00
fc007f00
fc007f00
fc007f00
fc007f00
fc007f00
fc000000
fc000000
fc000000
fc000000
fc000000
fc000000
fc000000
fc000000
fc000000
fc000000
fc000000
fc000000
3fffff00
3fffff00
3fffff00
3fffff00
3fffff00
3fffff00
00000000
00000000
00000000
00000000
00000000
00000000
00000000
00000000
00000000
00000000
00000000
00000000
ENDCHAR
STARTCHAR U+0062
ENCODING 98
SWIDTH 1000 0
DWIDTH 30 0
BBX 30 60 0 -12
BITMAP
00000000
00000000
00000000
00000000
00000000
00000000
fc000000
fc000000
fc000000
fc000000
fc000000
fc000000
fc000000
fc000000
fc000000
fc000000
fc000000
fc000000
fffff800
fffff800
fffff800
fffff800
fffff800
fffff800
ff807f00
ff807f00
ff807f00
ff807f00
ff807f00
ff807f00
fc007f00
fc007f00
fc007f00
fc007f00
fc007f00
fc007f00
ff807f00
ff807f00
ff807f00
ff807f00
ff807f00
ff807f00
fffff800
fffff800
fffff800
fffff800
fffff800
fffff800
00000000
00000000
00000000
00000000
00000000
00000000
00000000
00000000
00000000
00000000
00000000
00000000
ENDCHAR
STARTCHAR U+0061
ENCODING 97
SWIDTH 1000 0
DWIDTH 30 0
BBX 30 60 0 -12
BITMAP
00000000
00000000
00000000
00000000
00000000
00000000
00000000
00000000
00000000
00000000
00000000
00000000
00000000
00000000
00000000
00000000
00000000
00000000
3ffff800
3ffff800
3ffff800
3ffff800
3ffff800
3ffff800
00007f00
00007f00
00007f00
00007f00
00007f00
00007f00
3fffff00
3fffff00
3fffff00
3fffff00
3fffff00
3fffff00
fc03ff00
fc03ff00
fc03ff00
fc03ff00
fc03ff00
fc03ff00
3fffff00
3fffff00
3fffff00
3fffff00
3fffff00
3fffff00
00000000
00000000
00000000
00000000
00000000
00000000
00000000
00000000
00000000
00000000
00000000
00000000
ENDCHAR
STARTCHAR U+0060
ENCODING 96
SWIDTH 1000 0
DWIDTH 30 0
BBX 30 60 0 -12
BITMAP
00000000
00000000
00000000
00000000
00000000
00000000
07fe0000
07fe0000
07fe0000
07fe0000
07fe0000
07fe0000
00fe0000
00fe0000
00fe0000
00fe0000
00fe0000
00fe0000
001fc000
001fc000
001fc000
001fc000
001fc000
001fc000
00000000
00000000
00000000
00000000
00000000
00000000
00000000
00000000
00000000
00000000
00000000
00000000
00000000
00000000
00000000
00000000
00000000
00000000
00000000
00000000
00000000
00000000
00000000
00000000
00000000
00000000
00000000
00000000
00000000
00000000
00000000
00000000
00000000
00000000
00000000
00000000
ENDCHAR
STARTCHAR U+005F
ENCODING 95
SWIDTH 1000 0
DWIDTH 30 0
BBX 30 60 0 -12
BITMAP
00000000
00000000
00000000
00000000
00000000
00000000
00000000
00000000
00000000
00000000
00000000
00000000
00000000
00000000
00000000
00000000
00000000
00000000
00000000
00000000
00000000
00000000
00000000
00000000
00000000
00000000
00000000
00000000
00000000
00000000
00000000
00000000
00000000
00000000
00000000
00000000
00000000
00000000
00000000
00000000
00000000
00000000
ffffff00
ffffff00
ffffff00
ffffff00
ffffff00
ffffff00
00000000
00000000
00000000
00000000
00000000
00000000
00000000
00000000
00000000
00000000
00000000
00000000
ENDCHAR
STARTCHAR U+005E
ENCODING 94
SWIDTH 1000 0
DWIDTH 30 0
BBX 30 60 0 -12
BITMAP
00000000
00000000
00000000
00000000
00000000
00000000
00fe0000
00fe0000
00fe0000
00fe0000
00fe0000
00fe0000
07ffc000
07ffc000
07ffc000
07ffc000
07ffc000
07ffc000
3f83f800
3f83f800
3f83f800
3f83f800
3f83f800
3f83f800
fc007f00
fc007f00
fc007f00
fc007f00
fc007f00
fc007f00
00000000
00000000
00000000
00000000
00000000
00000000
00000000
00000000
00000000
00000000
00000000
00000000
00000000
00000000
00000000
00000000
00000000
00000000
00000000
00000000
00000000
00000000
00000000
00000000
00000000
00000000
00000000
00000000
00000000
00000000
ENDCHAR
STARTCHAR U+005D
ENCODING 93
SWIDTH 1000 0
DWIDTH 30 0
BBX 30 60 0 -12
BITMAP
00000000
00000000
00000000
00000000
00000000
00000000
3fffc000
3fffc000
3fffc000
3fffc000
3fffc000
3fffc000
001fc000
001fc000
001fc000
001fc000
001fc000
001fc000
001fc000
001fc000
001fc000
001fc000
001fc000
001fc000
001fc000
001fc000
001fc000
001fc000
001fc000
001fc000
001fc000
001fc000
001fc000
001fc000
001fc000
001fc000
001fc000
001fc000
001fc000
001fc000
001fc000
001fc000
3fffc000
3fffc000
3fffc000
3fffc000
3fffc000
3fffc000
00000000
00000000
00000000
00000000
00000000
00000000
00000000
00000000
00000000
00000000
00000000
00000000
ENDCHAR
STARTCHAR U+005C
ENCODING 92
SWIDTH 1000 0
DWIDTH 30 0
BBX 30 60 0 -12
BITMAP
00000000
00000000
00000000
00000000
00000000
00000000
fc000000
fc000000
fc000000
fc000000
fc000000
fc000000
3f800000
3f800000
3f800000
3f800000
3f800000
3f800000
07f00000
07f00000
07f00000
07f00000
07f00000
07f00000
00fe0000
00fe0000
00fe0000
00fe0000
00fe0000
00fe0000
001fc000
001fc000
001fc000
001fc000
001fc000
001fc000
0003f800
0003f800
0003f800
0003f800
0003f800
0003f800
00007f00
00007f00
00007f00
00007f00
00007f00
00007f00
00000000
00000000
00000000
00000000
00000000
00000000
00000000
00000000
00000000
00000000
00000000
00000000
ENDCHAR
STARTCHAR U+005B
ENCODING 91
SWIDTH 1000 0
DWIDTH 30 0
BBX 30 60 0 -12
BITMAP
00000000
00000000
00000000
00000000
00000000
00000000
07fff800
07fff800
07fff800
07fff800
07fff800
07fff800
07f00000
07f00000
07f00000
07f00000
07f00000
07f00000
07f00000
07f00000
07f00000
07f00000
07f00000
07f00000
07f00000
07f00000
07f00000
07f00000
07f00000
07f00000
07f00000
07f00000
07f00000
07f00000
07f00000
07f00000
07f00000
07f00000
07f00000
07f00000
07f00000
07f00000
07fff800
07fff800
07fff800
07fff800
07fff800
07fff800
00000000
00000000
00000000
00000000
00000000
00000000
00000000
00000000
00000000
00000000
00000000
00000000
ENDCHAR
STARTCHAR U+005A
ENCODING 90
SWIDTH 1000 0
DWIDTH 30 0
BBX 30 60 0 -12
BITMAP
00000000
00000000
00000000
00000000
00000000
00000000
ffffff00
ffffff00
ffffff00
ffffff00
ffffff00
ffffff00
0003f800
0003f800
0003f800
0003f800
0003f800
0003f800
001fc000
001fc000
001fc000
001fc000
001fc000
001fc000
00fe0000
00fe0000
00fe0000
00fe0000
00fe0000
00fe0000
07f00000
07f00000
07f00000
07f00000
07f00000
07f00000
3f800000
3f800000
3f800000
3f800000
3f800000
3f800000
ffffff00
ffffff00
ffffff00
ffffff00
ffffff00
ffffff00
00000000
00000000
00000000
00000000
00000000
00000000
00000000
00000000
00000000
00000000
00000000
00000000
ENDCHAR
STARTCHAR U+0059
ENCODING 89
SWIDTH 1000 0
DWIDTH 30 0
BBX 30 60 0 -12
BITMAP
00000000
00000000
00000000
00000000
00000000
00000000
fc007f00
fc007f00
fc007f00
fc007f00
fc007f00
fc007f00
3f83f800
3f83f800
3f83f800
3f83f800
3f83f800
3f83f800
07ffc000
07ffc000
07ffc000
07ffc000
07ffc000
07ffc000
00fe0000
00fe0000
00fe0000
00fe0000
00fe0000
00fe0000
00fe0000
00fe0000
00fe0000
00fe0000
00fe0000
00fe0000
00fe0000
00fe0000
00fe0000
00fe0000
00fe0000
00fe0000
00fe0000
00fe0000
00fe0000
00fe0000
00fe0000
00fe0000
00000000
00000000
00000000
00000000
00000000
00000000
00000000
00000000
00000000
00000000
00000000
00000000
ENDCHAR
STARTCHAR U+0058
ENCODING 88
SWIDTH 1000 0
DWIDTH 30 0
BBX 30 60 0 -12
BITMAP
00000000
00000000
00000000
00000000
00000000
00000000
fc007f00
fc007f00
fc007f00
fc007f00
fc007f00
fc007f00
3f83f800
3f83f800
3f83f800
3f83f800
3f83f800
3f83f800
07ffc000
07ffc000
07ffc000
07ffc000
07ffc000
07ffc000
00fe0000
00fe0000
00fe0000
00fe0000
00fe0000
00fe0000
07ffc000
07ffc000
07ffc000
07ffc000
07ffc000
07ffc000
3f83f800
3f83f800
3f83f800
3f83f800
3f83f800
3f83f800
fc007f00
fc007f00
fc007f00
fc007f00
fc007f00
fc007f00
00000000
00000000
00000000
00000000
00000000
00000000
00000000
00000000
00000000
00000000
00000000
00000000
ENDCHAR
STARTCHAR U+0057
ENCODING 87
SWIDTH 1000 0
DWIDTH 30 0
BBX 30 60 0 -12
BITMAP
00000000
00000000
00000000
00000000
00000000
00000000
fc007f00
fc007f00
fc007f00
fc007f00
fc007f00
fc007f00
fc007f00
fc007f00
fc007f00
fc007f00
fc007f00
fc007f00
fc007f00
fc007f00
fc007f00
fc007f00
fc007f00
fc007f00
fcfe7f00
fcfe7f00
fcfe7f00
fcfe7f00
fcfe7f00
fcfe7f00
fcfe7f00
fcfe7f00
fcfe7f00
fcfe7f00
fcfe7f00
fcfe7f00
ffffff00
ffffff00
ffffff00
ffffff00
ffffff00
ffffff00
3f83f800
3f83f800
3f83f800
3f83f800
3f83f800
3f83f800
00000000
00000000
00000000
00000000
00000000
00000000
00000000
00000000
00000000
00000000
00000000
00000000
ENDCHAR
STARTCHAR U+0056
ENCODING 86
SWIDTH 1000 0
DWIDTH 30 0
BBX 30 60 0 -12
BITMAP
00000000
00000000
00000000
00000000
00000000
00000000
fc007f00
fc007f00
fc007f00
fc007f00
fc007f00
fc007f00
fc007f00
fc007f00
fc007f00
fc007f00
fc007f00
fc007f00
3f83f800
3f83f800
3f83f800
3f83f800
3f83f800
3f83f800
3f83f800
3f83f800
3f83f800
3f83f800
3f83f800
3f83f800
07ffc000
07ffc000
07ffc000
07ffc000
07ffc000
07ffc000
07ffc000
07ffc000
07ffc000
07ffc000
07ffc000
07ffc000
00fe0000
00fe0000
00fe0000
00fe0000
00fe0000
00fe0000
00000000
00000000
00000000
00000000
00000000
00000000
00000000
00000000
00000000
00000000
00000000
00000000
ENDCHAR
STARTCHAR U+0055
ENCODING 85
SWIDTH 1000 0
DWIDTH 30 0
BBX 30 60 0 -12
BITMAP
00000000
00000000
00000000
00000000
00000000
00000000
fc007f00
fc007f00
fc007f00
fc007f00
fc007f00
fc007f00
fc007f00
fc007f00
fc007f00
fc007f00
fc007f00
fc007f00
fc007f00
fc007f00
fc007f00
fc007f00
fc007f00
fc007f00
fc007f00
fc007f00
fc007f00
fc007f00
fc007f00
fc007f00
fc007f00
fc007f00
fc007f00
fc007f00
fc007f00
fc007f00
fc007f00
fc007f00
fc007f00
fc007f00
fc007f00
fc007f00
3ffff800
3ffff800
3ffff800
3ffff800
3ffff800
3ffff800
00000000
00000000
00000000
00000000
00000000
00000000
00000000
00000000
00000000
00000000
00000000
00000000
ENDCHAR
STARTCHAR U+0054
ENCODING 84
SWIDTH 1000 0
DWIDTH 30 0
BBX 30 60 0 -12
BITMAP
00000000
00000000
00000000
00000000
00000000
00000000
ffffff00
ffffff00
ffffff00
ffffff00
ffffff00
ffffff00
00fe0000
00fe0000
00fe0000
00fe0000
00fe0000
00fe0000
00fe0000
00fe0000
00fe0000
00fe0000
00fe0000
00fe0000
00fe0000
00fe0000
00fe0000
00fe0000
00fe0000
00fe0000
00fe0000
00fe0000
00fe0000
00fe0000
00fe0000
00fe0000
00fe0000
00fe0000
00fe0000
00fe0000
00fe0000
00fe0000
00fe0000
00fe0000
00fe0000
00fe0000
00fe0000
00fe0000
00000000
00000000
00000000
00000000
00000000
00000000
00000000
00000000
00000000
00000000
00000000
00000000
ENDCHAR
STARTCHAR U+0053
ENCODING 83
SWIDTH 1000 0
DWIDTH 30 0
BBX 30 60 0 -12
BITMAP
00000000
00000000
00000000
00000000
00000000
00000000
3ffff800
3ffff800
3ffff800
3ffff800
3ffff800
3ffff800
fc007f00
fc007f00
fc007f00
fc007f00
fc007f00
fc007f00
fc000000
fc000000
fc000000
fc000000
fc000000
fc000000
3ffff800
3ffff800
3ffff800
3ffff800
3ffff800
3ffff800
00007f00
00007f00
00007f00
00007f00
00007f00
00007f00
fc007f00
fc007f00
fc007f00
fc007f00
fc007f00
fc007f00
3ffff800
3ffff800
3ffff800
3ffff800
3ffff800
3ffff800
00000000
00000000
00000000
00000000
00000000
00000000
00000000
00000000
00000000
00000000
00000000
00000000
ENDCHAR
STARTCHAR U+0052
ENCODING 82
SWIDTH 1000 0
DWIDTH 30 0
BBX 30 60 0 -12
BITMAP
00000000
00000000
00000000
00000000
00000000
00000000
fffff800
fffff800
fffff800
fffff800
fffff800
fffff800
fc007f00
fc007f00
fc007f00
fc007f00
fc007f00
fc007f00
fc007f00
fc007f00
fc007f00
fc007f00
fc007f00
fc007f00
fffff800
fffff800
fffff800
fffff800
fffff800
fffff800
fc1fc000
fc1fc000
fc1fc000
fc1fc000
fc1fc000
fc1fc000
fc03f800
fc03f800
fc03f800
fc03f800
fc03f800
fc03f800
fc007f00
fc007f00
fc007f00
fc007f00
fc007f00
fc007f00
00000000
00000000
00000000
00000000
00000000
00000000
00000000
00000000
00000000
00000000
00000000
00000000
ENDCHAR
STARTCHAR U+0051
ENCODING 81
SWIDTH 1000 0
DWIDTH 30 0
BBX 30 60 0 -12
BITMAP
00000000
00000000
00000000
00000000
00000000
00000000
3ffff800
3ffff800
3ffff800
3ffff800
3ffff800
3ffff800
fc007f00
fc007f00
fc007f00
fc007f00
fc007f00
fc007f00
fc007f00
fc007f00
fc007f00
fc007f00
fc007f00
fc007f00
fc007f00
fc007f00
fc007f00
fc007f00
fc007f00
fc007f00
fc1fff00
fc1fff00
fc1fff00
fc1fff00
fc1fff00
fc1fff00
fc03f800
fc03f800
fc03f800
fc03f800
fc03f800
fc03f800
3fffff00
3fffff00
3fffff00
3fffff00
3fffff00
3fffff00
00000000
00000000
00000000
00000000
00000000
00000000
00000000
00000000
00000000
00000000
00000000
00000000
ENDCHAR
STARTCHAR U+0050
ENCODING 80
SWIDTH 1000 0
DWIDTH 30 0
BBX 30 60 0 -12
BITMAP
00000000
00000000
00000000
00000000
00000000
00000000
fffff800
fffff800
fffff800
fffff800
fffff800
fffff800
fc007f00
fc007f00
fc007f00
fc007f00
fc007f00
fc007f00
fc007f00
fc007f00
fc007f00
fc007f00
fc007f00
fc007f00
fffff800
fffff800
fffff800
fffff800
fffff800
fffff800
fc000000
fc000000
fc000000
fc000000
fc000000
fc000000
fc000000
fc000000
fc000000
fc000000
fc000000
fc000000
fc000000
fc000000
fc000000
fc000000
fc000000
fc000000
00000000
00000000
00000000
00000000
00000000
00000000
00000000
00000000
00000000
00000000
00000000
00000000
ENDCHAR
STARTCHAR U+004F
ENCODING 79
SWIDTH 1000 0
DWIDTH 30 0
BBX 30 60 0 -12
BITMAP
00000000
00000000
00000000
00000000
00000000
00000000
3ffff800
3ffff800
3ffff800
3ffff800
3ffff800
3ffff800
fc007f00
fc007f00
fc007f00
fc007f00
fc007f00
fc007f00
fc007f00
fc007f00
fc007f00
fc007f00
fc007f00
fc007f00
fc007f00
fc007f00
fc007f00
fc007f00
fc007f00
fc007f00
fc007f00
fc007f00
fc007f00
fc007f00
fc007f00
fc007f00
fc007f00
fc007f00
fc007f00
fc007f00
fc007f00
fc007f00
3ffff800
3ffff800
3ffff800
3ffff800
3ffff800
3ffff800
00000000
00000000
00000000
00000000
00000000
00000000
00000000
00000000
00000000
00000000
00000000
00000000
ENDCHAR
STARTCHAR U+004E
ENCODING 78
SWIDTH 1000 0
DWIDTH 30 0
BBX 30 60 0 -12
BITMAP
00000000
00000000
00000000
00000000
00000000
00000000
fc007f00
fc007f00
fc007f00
fc007f00
fc007f00
fc007f00
ff807f00
ff807f00
ff807f00
ff807f00
ff807f00
ff807f00
fff07f00
fff07f00
fff07f00
fff07f00
fff07f00
fff07f00
fcfe7f00
fcfe7f00
fcfe7f00
fcfe7f00
fcfe7f00
fcfe7f00
fc1fff00
fc1fff00
fc1fff00
fc1fff00
fc1fff00
fc1fff00
fc03ff00
fc03ff00
fc03ff00
fc03ff00
fc03ff00
fc03ff00
fc007f00
fc007f00
fc007f00
fc007f00
fc007f00
fc007f00
00000000
00000000
00000000
00000000
00000000
00000000
00000000
00000000
00000000
00000000
00000000
00000000
ENDCHAR
STARTCHAR U+004D
ENCODING 77
SWIDTH 1000 0
DWIDTH 30 0
BBX 30 60 0 -12
BITMAP
00000000
00000000
00000000
00000000
00000000
00000000
fc007f00
fc007f00
fc007f00
fc007f00
fc007f00
fc007f00
ff83ff00
ff83ff00
ff83ff00
ff83ff00
ff83ff00
ff83ff00
ffffff00
ffffff00
ffffff00
ffffff00
ffffff00
ffffff00
fcfe7f00
fcfe7f00
fcfe7f00
fcfe7f00
fcfe7f00
fcfe7f00
fc007f00
fc007f00
fc007f00
fc007f00
fc007f00
fc007f00
fc007f00
fc007f00
fc007f00
fc007f00
fc007f00
fc007f00
fc007f00
fc007f00
fc007f00
fc007f00
fc007f00
fc007f00
00000000
00000000
00000000
00000000
00000000
00000000
00000000
00000000
00000000
00000000
00000000
00000000
ENDCHAR
STARTCHAR U+004C
ENCODING 76
SWIDTH 1000 0
DWIDTH 30 0
BBX 30 60 0 -12
BITMAP
00000000
00000000
00000000
00000000
00000000
00000000
fc000000
fc000000
fc000000
fc000000
fc000000
fc000000
fc000000
fc000000
fc000000
fc000000
fc000000
fc000000
fc000000
fc000000
fc000000
fc000000
fc000000
fc000000
fc000000
fc000000
fc000000
fc000000
fc000000
fc000000
fc000000
fc000000
fc000000
fc000000
fc000000
fc000000
fc000000
fc000000
fc000000
fc000000
fc000000
fc000000
ffffff00
ffffff00
ffffff00
ffffff00
ffffff00
ffffff00
00000000
00000000
00000000
00000000
00000000
00000000
00000000
00000000
00000000
00000000
00000000
00000000
ENDCHAR
STARTCHAR U+004B
ENCODING 75
SWIDTH 1000 0
DWIDTH 30 0
BBX 30 60 0 -12
BITMAP
00000000
00000000
00000000
00000000
00000000
00000000
fc007f00
fc007f00
fc007f00
fc007f00
fc007f00
fc007f00
fc1ff800
fc1ff800
fc1ff800
fc1ff800
fc1ff800
fc1ff800
fffe0000
fffe0000
fffe0000
fffe0000
fffe0000
fffe0000
ff800000
ff800000
ff800000
ff800000
ff800000
ff800000
fffe0000
fffe0000
fffe0000
fffe0000
fffe0000
fffe0000
fc1ff800
fc1ff800
fc1ff800
fc1ff800
fc1ff800
fc1ff800
fc007f00
fc007f00
fc007f00
fc007f00
fc007f00
fc007f00
00000000
00000000
00000000
00000000
00000000
00000000
00000000
00000000
00000000
00000000
00000000
00000000
ENDCHAR
STARTCHAR U+004A
ENCODING 74
SWIDTH 1000 0
DWIDTH 30 0
BBX 30 60 0 -12
BITMAP
00000000
00000000
00000000
00000000
00000000
00000000
001fff00
001fff00
001fff00
001fff00
001fff00
001fff00
0003f800
0003f800
0003f800
0003f800
0003f800
0003f800
0003f800
0003f800
0003f800
0003f800
0003f800
0003f800
0003f800
0003f800
0003f800
0003f800
0003f800
0003f800
0003f800
0003f800
0003f800
0003f800
0003f800
0003f800
fc03f800
fc03f800
fc03f800
fc03f800
fc03f800
fc03f800
3fffc000
3fffc000
3fffc000
3fffc000
3fffc000
3fffc000
00000000
00000000
00000000
00000000
00000000
00000000
00000000
00000000
00000000
00000000
00000000
00000000
ENDCHAR
STARTCHAR U+0049
ENCODING 73
SWIDTH 1000 0
DWIDTH 30 0
BBX 30 60 0 -12
BITMAP
00000000
00000000
00000000
00000000
00000000
00000000
3ffff800
3ffff800
3ffff800
3ffff800
3ffff800
3ffff800
00fe0000
00fe0000
00fe0000
00fe0000
00fe0000
00fe0000
00fe0000
00fe0000
00fe0000
00fe0000
00fe0000
00fe0000
00fe0000
00fe0000
00fe0000
00fe0000
00fe0000
00fe0000
00fe0000
00fe0000
00fe0000
00fe0000
00fe0000
00fe0000
00fe0000
00fe0000
00fe0000
00fe0000
00fe0000
00fe0000
3ffff800
3ffff800
3ffff800
3ffff800
3ffff800
3ffff800
00000000
00000000
00000000
00000000
00000000
00000000
00000000
00000000
00000000
00000000
00000000
00000000
ENDCHAR
STARTCHAR U+0048
ENCODING 72
SWIDTH 1000 0
DWIDTH 30 0
BBX 30 60 0 -12
BITMAP
00000000
00000000
00000000
00000000
00000000
00000000
fc007f00
fc007f00
fc007f00
fc007f00
fc007f00
fc007f00
fc007f00
fc007f00
fc007f00
fc007f00
fc007f00
fc007f00
fc007f00
fc007f00
fc007f00
fc007f00
fc007f00
fc007f00
ffffff00
ffffff00
ffffff00
ffffff00
ffffff00
ffffff00
fc007f00
fc007f00
fc007f00
fc007f00
fc007f00
fc007f00
fc007f00
fc007f00
fc007f00
fc007f00
fc007f00
fc007f00
fc007f00
fc007f00
fc007f00
fc007f00
fc007f00
fc007f00
00000000
00000000
00000000
00000000
00000000
00000000
00000000
00000000
00000000
00000000
00000000
00000000
ENDCHAR
STARTCHAR U+0047
ENCODING 71
SWIDTH 1000 0
DWIDTH 30 0
BBX 30 60 0 -12
BITMAP
00000000
00000000
00000000
00000000
00000000
00000000
07fff800
07fff800
07fff800
07fff800
07fff800
07fff800
3f807f00
3f807f00
3f807f00
3f807f00
3f807f00
3f807f00
fc000000
fc000000
fc000000
fc000000
fc000000
fc000000
fc000000
fc000000
fc000000
fc000000
fc000000
fc000000
fc1fff00
fc1fff00
fc1fff00
fc1fff00
fc1fff00
fc1fff00
3f807f00
3f807f00
3f807f00
3f807f00
3f807f00
3f807f00
07fff800
07fff800
07fff800
07fff800
07fff800
07fff800
00000000
00000000
00000000
00000000
00000000
00000000
00000000
00000000
00000000
00000000
00000000
00000000
ENDCHAR
STARTCHAR U+0046
ENCODING 70
SWIDTH 1000 0
DWIDTH 30 0
BBX 30 60 0 -12
BITMAP
00000000
00000000
00000000
00000000
00000000
00000000
ffffff00
ffffff00
ffffff00
ffffff00
ffffff00
ffffff00
fc000000
fc000000
fc000000
fc000000
fc000000
fc000000
fc000000
fc000000
fc000000
fc000000
fc000000
fc000000
ffffc000
ffffc000
ffffc000
ffffc000
ffffc000
ffffc000
fc000000
fc000000
fc000000
fc000000
fc000000
fc000000
fc000000
fc000000
fc000000
fc000000
fc000000
fc000000
fc000000
fc000000
fc000000
fc000000
fc000000
fc000000
00000000
00000000
00000000
00000000
00000000
00000000
00000000
00000000
00000000
00000000
00000000
00000000
ENDCHAR
STARTCHAR U+0045
ENCODING 69
SWIDTH 1000 0
DWIDTH 30 0
BBX 30 60 0 -12
BITMAP
00000000
00000000
00000000
00000000
00000000
00000000
ffffff00
ffffff00
ffffff00
ffffff00
ffffff00
ffffff00
fc000000
fc000000
fc000000
fc000000
fc000000
fc000000
fc000000
fc000000
fc000000
fc000000
fc000000
fc000000
ffffc000
ffffc000
ffffc000
ffffc000
ffffc000
ffffc000
fc000000
fc000000
fc000000
fc000000
fc000000
fc000000
fc000000
fc000000
fc000000
fc000000
fc000000
fc000000
ffffff00
ffffff00
ffffff00
ffffff00
ffffff00
ffffff00
00000000
00000000
00000000
00000000
00000000
00000000
00000000
00000000
00000000
00000000
00000000
00000000
ENDCHAR
STARTCHAR U+0044
ENCODING 68
SWIDTH 1000 0
DWIDTH 30 0
BBX 30 60 0 -12
BITMAP
00000000
00000000
00000000
00000000
00000000
00000000
ffffc000
ffffc000
ffffc000
ffffc000
ffffc000
ffffc000
3f83f800
3f83f800
3f83f800
3f83f800
3f83f800
3f83f800
3f807f00
3f807f00
3f807f00
3f807f00
3f807f00
3f807f00
3f807f00
3f807f00
3f807f00
3f807f00
3f807f00
3f807f00
3f807f00
3f807f00
3f807f00
3f807f00
3f807f00
3f807f00
3f83f800
3f83f800
3f83f800
3f83f800
3f83f800
3f83f800
ffffc000
ffffc000
ffffc000
ffffc000
ffffc000
ffffc000
00000000
00000000
00000000
00000000
00000000
00000000
00000000
00000000
00000000
00000000
00000000
00000000
ENDCHAR
STARTCHAR U+0043
ENCODING 67
SWIDTH 1000 0
DWIDTH 30 0
BBX 30 60 0 -12
BITMAP
00000000
00000000
00000000
00000000
00000000
00000000
07fff800
07fff800
07fff800
07fff800
07fff800
07fff800
3f807f00
3f807f00
3f807f00
3f807f00
3f807f00
3f807f00
fc000000
fc000000
fc000000
fc000000
fc000000
fc000000
fc000000
fc000000
fc000000
fc000000
fc000000
fc000000
fc000000
fc000000
fc000000
fc000000
fc000000
fc000000
3f807f00
3f807f00
3f807f00
3f807f00
3f807f00
3f807f00
07fff800
07fff800
07fff800
07fff800
07fff800
07fff800
00000000
00000000
00000000
00000000
00000000
00000000
00000000
00000000
00000000
00000000
00000000
00000000
ENDCHAR
STARTCHAR U+0042
ENCODING 66
SWIDTH 1000 0
DWIDTH 30 0
BBX 30 60 0 -12
BITMAP
00000000
00000000
00000000
00000000
00000000
00000000
fffff800
fffff800
fffff800
fffff800
fffff800
fffff800
3f807f00
3f807f00
3f807f00
3f807f00
3f807f00
3f807f00
3f807f00
3f807f00
3f807f00
3f807f00
3f807f00
3f807f00
3ffff800
3ffff800
3ffff800
3ffff800
3ffff800
3ffff800
3f807f00
3f807f00
3f807f00
3f807f00
3f807f00
3f807f00
3f807f00
3f807f00
3f807f00
3f807f00
3f807f00
3f807f00
fffff800
fffff800
fffff800
fffff800
fffff800
fffff800
00000000
00000000
00000000
00000000
00000000
00000000
00000000
00000000
00000000
00000000
00000000
00000000
ENDCHAR
STARTCHAR U+0041
ENCODING 65
SWIDTH 1000 0
DWIDTH 30 0
BBX 30 60 0 -12
BITMAP
00000000
00000000
00000000
00000000
00000000
00000000
00fe0000
00fe0000
00fe0000
00fe0000
00fe0000
00fe0000
07ffc000
07ffc000
07ffc000
07ffc000
07ffc000
07ffc000
3f83f800
3f83f800
3f83f800
3f83f800
3f83f800
3f83f800
fc007f00
fc007f00
fc007f00
fc007f00
fc007f00
fc007f00
ffffff00
ffffff00
ffffff00
ffffff00
ffffff00
ffffff00
fc007f00
fc007f00
fc007f00
fc007f00
fc007f00
fc007f00
fc007f00
fc007f00
fc007f00
fc007f00
fc007f00
fc007f00
00000000
00000000
00000000
00000000
00000000
00000000
00000000
00000000
00000000
00000000
00000000
00000000
ENDCHAR
STARTCHAR U+0040
ENCODING 64
SWIDTH 1000 0
DWIDTH 30 0
BBX 30 60 0 -12
BITMAP
00000000
00000000
00000000
00000000
00000000
00000000
3ffff800
3ffff800
3ffff800
3ffff800
3ffff800
3ffff800
fc007f00
fc007f00
fc007f00
fc007f00
fc007f00
fc007f00
fcffff00
fcffff00
fcffff00
fcffff00
fcffff00
fcffff00
fff3ff00
fff3ff00
fff3ff00
fff3ff00
fff3ff00
fff3ff00
fcffff00
fcffff00
fcffff00
fcffff00
fcffff00
fcffff00
fc000000
fc000000
fc000000
fc000000
fc000000
fc000000
3ffff800
3ffff800
3ffff800
3ffff800
3ffff800
3ffff800
00000000
00000000
00000000
00000000
00000000
00000000
00000000
00000000
00000000
00000000
00000000
00000000
ENDCHAR
STARTCHAR U+003F
ENCODING 63
SWIDTH 1000 0
DWIDTH 30 0
BBX 30 60 0 -12
BITMAP
00000000
00000000
00000000
00000000
00000000
00000000
3ffff800
3ffff800
3ffff800
3ffff800
3ffff800
3ffff800
fc007f00
fc007f00
fc007f00
fc007f00
fc007f00
fc007f00
001ff800
001ff800
001ff800
001ff800
001ff800
001ff800
00fe0000
00fe0000
00fe0000
00fe0000
00fe0000
00fe0000
00fe0000
00fe0000
00fe0000
00fe0000
00fe0000
00fe0000
00000000
00000000
00000000
00000000
00000000
00000000
00fe0000
00fe0000
00fe0000
00fe0000
00fe0000
00fe0000
00000000
00000000
00000000
00000000
00000000
00000000
00000000
00000000
00000000
00000000
00000000
00000000
ENDCHAR
STARTCHAR U+003E
ENCODING 62
SWIDTH 1000 0
DWIDTH 30 0
BBX 30 60 0 -12
BITMAP
00000000
00000000
00000000
00000000
00000000
00000000
fc000000
fc000000
fc000000
fc000000
fc000000
fc000000
07f00000
07f00000
07f00000
07f00000
07f00000
07f00000
001fc000
001fc000
001fc000
001fc000
001fc000
001fc000
00007f00
00007f00
00007f00
00007f00
00007f00
00007f00
001fc000
001fc000
001fc000
001fc000
001fc000
001fc000
07f00000
07f00000
07f00000
07f00000
07f00000
07f00000
fc000000
fc000000
fc000000
fc000000
fc000000
fc000000
00000000
00000000
00000000
00000000
00000000
00000000
00000000
00000000
00000000
00000000
00000000
00000000
ENDCHAR
STARTCHAR U+003D
ENCODING 61
SWIDTH 1000 0
DWIDTH 30 0
BBX 30 60 0 -12
BITMAP
00000000
00000000
00000000
00000000
00000000
00000000
00000000
00000000
00000000
00000000
00000000
00000000
00000000
00000000
00000000
00000000
00000000
00000000
ffffff00
ffffff00
ffffff00
ffffff00
ffffff00
ffffff00
00000000
00000000
00000000
00000000
00000000
00000000
ffffff00
ffffff00
ffffff00
ffffff00
ffffff00
ffffff00
00000000
00000000
00000000
00000000
00000000
00000000
00000000
00000000
00000000
00000000
00000000
00000000
00000000
00000000
00000000
00000000
00000000
00000000
00000000
00000000
00000000
00000000
00000000
00000000
ENDCHAR
STARTCHAR U+003C
ENCODING 60
SWIDTH 1000 0
DWIDTH 30 0
BBX 30 60 0 -12
BITMAP
00000000
00000000
00000000
00000000
00000000
00000000
00007f00
00007f00
00007f00
00007f00
00007f00
00007f00
001fc000
001fc000
001fc000
001fc000
001fc000
001fc000
07f00000
07f00000
07f00000
07f00000
07f00000
07f00000
fc000000
fc000000
fc000000
fc000000
fc000000
fc000000
07f00000
07f00000
07f00000
07f00000
07f00000
07f00000
001fc000
001fc000
001fc000
001fc000
001fc000
001fc000
00007f00
00007f00
00007f00
00007f00
00007f00
00007f00
00000000
00000000
00000000
00000000
00000000
00000000
00000000
00000000
00000000
00000000
00000000
00000000
ENDCHAR
STARTCHAR U+003B
ENCODING 59
SWIDTH 1000 0
DWIDTH 30 0
BBX 30 60 0 -12
BITMAP
00000000
00000000
00000000
00000000
00000000
00000000
00000000
00000000
00000000
00000000
00000000
00000000
07fe0000
07fe0000
07fe0000
07fe0000
07fe0000
07fe0000
07fe0000
07fe0000
07fe0000
07fe0000
07fe0000
07fe0000
00000000
00000000
00000000
00000000
00000000
00000000
00000000
00000000
00000000
00000000
00000000
00000000
07fe0000
07fe0000
07fe0000
07fe0000
07fe0000
07fe0000
07f00000
07f00000
07f00000
07f00000
07f00000
07f00000
3f800000
3f800000
3f800000
3f800000
3f800000
3f800000
00000000
00000000
00000000
00000000
00000000
00000000
ENDCHAR
STARTCHAR U+003A
ENCODING 58
SWIDTH 1000 0
DWIDTH 30 0
BBX 30 60 0 -12
BITMAP
00000000
00000000
00000000
00000000
00000000
00000000
00000000
00000000
00000000
00000000
00000000
00000000
07fe0000
07fe0000
07fe0000
07fe0000
07fe0000
07fe0000
07fe0000
07fe0000
07fe0000
07fe0000
07fe0000
07fe0000
00000000
00000000
00000000
00000000
00000000
00000000
00000000
00000000
00000000
00000000
00000000
00000000
07fe0000
07fe0000
07fe0000
07fe0000
07fe0000
07fe0000
07fe0000
07fe0000
07fe0000
07fe0000
07fe0000
07fe0000
00000000
00000000
00000000
00000000
00000000
00000000
00000000
00000000
00000000
00000000
00000000
00000000
ENDCHAR
STARTCHAR U+0039
ENCODING 57
SWIDTH 1000 0
DWIDTH 30 0
BBX 30 60 0 -12
BITMAP
00000000
00000000
00000000
00000000
00000000
00000000
3ffff800
3ffff800
3ffff800
3ffff800
3ffff800
3ffff800
fc007f00
fc007f00
fc007f00
fc007f00
fc007f00
fc007f00
fc03ff00
fc03ff00
fc03ff00
fc03ff00
fc03ff00
fc03ff00
3fffff00
3fffff00
3fffff00
3fffff00
3fffff00
3fffff00
00007f00
00007f00
00007f00
00007f00
00007f00
00007f00
0003f800
0003f800
0003f800
0003f800
0003f800
0003f800
3fffc000
3fffc000
3fffc000
3fffc000
3fffc000
3fffc000
00000000
00000000
00000000
00000000
00000000
00000000
00000000
00000000
00000000
00000000
00000000
00000000
ENDCHAR
STARTCHAR U+0038
ENCODING 56
SWIDTH 1000 0
DWIDTH 30 0
BBX 30 60 0 -12
BITMAP
00000000
00000000
00000000
00000000
00000000
00000000
3ffff800
3ffff800
3ffff800
3ffff800
3ffff800
3ffff800
fc007f00
fc007f00
fc007f00
fc007f00
fc007f00
fc007f00
fc007f00
fc007f00
fc007f00
fc007f00
fc007f00
fc007f00
3ffff800
3ffff800
3ffff800
3ffff800
3ffff800
3ffff800
fc007f00
fc007f00
fc007f00
fc007f00
fc007f00
fc007f00
fc007f00
fc007f00
fc007f00
fc007f00
fc007f00
fc007f00
3ffff800
3ffff800
3ffff800
3ffff800
3ffff800
3ffff800
00000000
00000000
00000000
00000000
00000000
00000000
00000000
00000000
00000000
00000000
00000000
00000000
ENDCHAR
STARTCHAR U+0037
ENCODING 55
SWIDTH 1000 0
DWIDTH 30 0
BBX 30 60 0 -12
BITMAP
00000000
00000000
00000000
00000000
00000000
00000000
ffffff00
ffffff00
ffffff00
ffffff00
ffffff00
ffffff00
00007f00
00007f00
00007f00
00007f00
00007f00
00007f00
0003f800
0003f800
0003f800
0003f800
0003f800
0003f800
001fc000
001fc000
001fc000
001fc000
001fc000
001fc000
00fe0000
00fe0000
00fe0000
00fe0000
00fe0000
00fe0000
07f00000
07f00000
07f00000
07f00000
07f00000
07f00000
07f00000
07f00000
07f00000
07f00000
07f00000
07f00000
00000000
00000000
00000000
00000000
00000000
00000000
00000000
00000000
00000000
00000000
00000000
00000000
ENDCHAR
STARTCHAR U+0036
ENCODING 54
SWIDTH 1000 0
DWIDTH 30 0
BBX 30 60 0 -12
BITMAP
00000000
00000000
00000000
00000000
00000000
00000000
07fff800
07fff800
07fff800
07fff800
07fff800
07fff800
3f800000
3f800000
3f800000
3f800000
3f800000
3f800000
fc000000
fc000000
fc000000
fc000000
fc000000
fc000000
fffff800
fffff800
fffff800
fffff800
fffff800
fffff800
ff807f00
ff807f00
ff807f00
ff807f00
ff807f00
ff807f00
fc007f00
fc007f00
fc007f00
fc007f00
fc007f00
fc007f00
3ffff800
3ffff800
3ffff800
3ffff800
3ffff800
3ffff800
00000000
00000000
00000000
00000000
00000000
00000000
00000000
00000000
00000000
00000000
00000000
00000000
ENDCHAR
STARTCHAR U+0035
ENCODING 53
SWIDTH 1000 0
DWIDTH 30 0
BBX 30 60 0 -12
BITMAP
00000000
00000000
00000000
00000000
00000000
00000000
ffffff00
ffffff00
ffffff00
ffffff00
ffffff00
ffffff00
fc000000
fc000000
fc000000
fc000000
fc000000
fc000000
fffff800
fffff800
fffff800
fffff800
fffff800
fffff800
ff807f00
ff807f00
ff807f00
ff807f00
ff807f00
ff807f00
00007f00
00007f00
00007f00
00007f00
00007f00
00007f00
fc007f00
fc007f00
fc007f00
fc007f00
fc007f00
fc007f00
3ffff800
3ffff800
3ffff800
3ffff800
3ffff800
3ffff800
00000000
00000000
00000000
00000000
00000000
00000000
00000000
00000000
00000000
00000000
00000000
00000000
ENDCHAR
STARTCHAR U+0034
ENCODING 52
SWIDTH 1000 0
DWIDTH 30 0
BBX 30 60 0 -12
BITMAP
00000000
00000000
00000000
00000000
00000000
00000000
001fc000
001fc000
001fc000
001fc000
001fc000
001fc000
00ffc000
00ffc000
00ffc000
00ffc000
00ffc000
00ffc000
07ffc000
07ffc000
07ffc000
07ffc000
07ffc000
07ffc000
3f9fc000
3f9fc000
3f9fc000
3f9fc000
3f9fc000
3f9fc000
ffffff00
ffffff00
ffffff00
ffffff00
ffffff00
ffffff00
001fc000
001fc000
001fc000
001fc000
001fc000
001fc000
001fc000
001fc000
001fc000
001fc000
001fc000
001fc000
00000000
00000000
00000000
00000000
00000000
00000000
00000000
00000000
00000000
00000000
00000000
00000000
ENDCHAR
STARTCHAR U+0033
ENCODING 51
SWIDTH 1000 0
DWIDTH 30 0
BBX 30 60 0 -12
BITMAP
00000000
00000000
00000000
00000000
00000000
00000000
ffffff00
ffffff00
ffffff00
ffffff00
ffffff00
ffffff00
0003f800
0003f800
0003f800
0003f800
0003f800
0003f800
001fc000
001fc000
001fc000
001fc000
001fc000
001fc000
00fff800
00fff800
00fff800
00fff800
00fff800
00fff800
00007f00
00007f00
00007f00
00007f00
00007f00
00007f00
fc007f00
fc007f00
fc007f00
fc007f00
fc007f00
fc007f00
3ffff800
3ffff800
3ffff800
3ffff800
3ffff800
3ffff800
00000000
00000000
00000000
00000000
00000000
00000000
00000000
00000000
00000000
00000000
00000000
00000000
ENDCHAR
STARTCHAR U+0032
ENCODING 50
SWIDTH 1000 0
DWIDTH 30 0
BBX 30 60 0 -12
BITMAP
00000000
00000000
00000000
00000000
00000000
00000000
3ffff800
3ffff800
3ffff800
3ffff800
3ffff800
3ffff800
fc007f00
fc007f00
fc007f00
fc007f00
fc007f00
fc007f00
00007f00
00007f00
00007f00
00007f00
00007f00
00007f00
00fff800
00fff800
00fff800
00fff800
00fff800
00fff800
3ff00000
3ff00000
3ff00000
3ff00000
3ff00000
3ff00000
fc000000
fc000000
fc000000
fc000000
fc000000
fc000000
ffffff00
ffffff00
ffffff00
ffffff00
ffffff00
ffffff00
00000000
00000000
00000000
00000000
00000000
00000000
00000000
00000000
00000000
00000000
00000000
00000000
ENDCHAR
STARTCHAR U+0031
ENCODING 49
SWIDTH 1000 0
DWIDTH 30 0
BBX 30 60 0 -12
BITMAP
00000000
00000000
00000000
00000000
00000000
00000000
00fe0000
00fe0000
00fe0000
00fe0000
00fe0000
00fe0000
07fe0000
07fe0000
07fe0000
07fe0000
07fe0000
07fe0000
3ffe0000
3ffe0000
3ffe0000
3ffe0000
3ffe0000
3ffe0000
00fe0000
00fe0000
00fe0000
00fe0000
00fe0000
00fe0000
00fe0000
00fe0000
00fe0000
00fe0000
00fe0000
00fe0000
00fe0000
00fe0000
00fe0000
00fe0000
00fe0000
00fe0000
3ffff800
3ffff800
3ffff800
3ffff800
3ffff800
3ffff800
00000000
00000000
00000000
00000000
00000000
00000000
00000000
00000000
00000000
00000000
00000000
00000000
ENDCHAR
STARTCHAR U+0030
ENCODING 48
SWIDTH 1000 0
DWIDTH 30 0
BBX 30 60 0 -12
BITMAP
00000000
00000000
00000000
00000000
00000000
00000000
07ffc000
07ffc000
07ffc000
07ffc000
07ffc000
07ffc000
3f83f800
3f83f800
3f83f800
3f83f800
3f83f800
3f83f800
fc007f00
fc007f00
fc007f00
fc007f00
fc007f00
fc007f00
fc007f00
fc007f00
fc007f00
fc007f00
fc007f00
fc007f00
fc007f00
fc007f00
fc007f00
fc007f00
fc007f00
fc007f00
3f83f800
3f83f800
3f83f800
3f83f800
3f83f800
3f83f800
07ffc000
07ffc000
07ffc000
07ffc000
07ffc000
07ffc000
00000000
00000000
00000000
00000000
00000000
00000000
00000000
00000000
00000000
00000000
00000000
00000000
ENDCHAR
STARTCHAR U+002F
ENCODING 47
SWIDTH 1000 0
DWIDTH 30 0
BBX 30 60 0 -12
BITMAP
00000000
00000000
00000000
00000000
00000000
00000000
00007f00
00007f00
00007f00
00007f00
00007f00
00007f00
0003f800
0003f800
0003f800
0003f800
0003f800
0003f800
001fc000
001fc000
001fc000
001fc000
001fc000
001fc000
00fe0000
00fe0000
00fe0000
00fe0000
00fe0000
00fe0000
07f00000
07f00000
07f00000
07f00000
07f00000
07f00000
3f800000
3f800000
3f800000
3f800000
3f800000
3f800000
fc000000
fc000000
fc000000
fc000000
fc000000
fc000000
00000000
00000000
00000000
00000000
00000000
00000000
00000000
00000000
00000000
00000000
00000000
00000000
ENDCHAR
STARTCHAR U+002E
ENCODING 46
SWIDTH 1000 0
DWIDTH 30 0
BBX 30 60 0 -12
BITMAP
00000000
00000000
00000000
00000000
00000000
00000000
00000000
00000000
00000000
00000000
00000000
00000000
00000000
00000000
00000000
00000000
00000000
00000000
00000000
00000000
00000000
00000000
00000000
00000000
00000000
00000000
00000000
00000000
00000000
00000000
00000000
00000000
00000000
00000000
00000000
00000000
07fe0000
07fe0000
07fe0000
07fe0000
07fe0000
07fe0000
07fe0000
07fe0000
07fe0000
07fe0000
07fe0000
07fe0000
00000000
00000000
00000000
00000000
00000000
00000000
00000000
00000000
00000000
00000000
00000000
00000000
ENDCHAR
STARTCHAR U+002D
ENCODING 45
SWIDTH 1000 0
DWIDTH 30 0
BBX 30 60 0 -12
BITMAP
00000000
00000000
00000000
00000000
00000000
00000000
00000000
00000000
00000000
00000000
00000000
00000000
00000000
00000000
00000000
00000000
00000000
00000000
00000000
00000000
00000000
00000000
00000000
00000000
ffffff00
ffffff00
ffffff00
ffffff00
ffffff00
ffffff00
00000000
00000000
00000000
00000000
00000000
00000000
00000000
00000000
00000000
00000000
00000000
00000000
00000000
00000000
00000000
00000000
00000000
00000000
00000000
00000000
00000000
00000000
00000000
00000000
00000000
00000000
00000000
00000000
00000000
00000000
ENDCHAR
STARTCHAR U+002C
ENCODING 44
SWIDTH 1000 0
DWIDTH 30 0
BBX 30 60 0 -12
BITMAP
00000000
00000000
00000000
00000000
00000000
00000000
00000000
00000000
00000000
00000000
00000000
00000000
00000000
00000000
00000000
00000000
00000000
00000000
00000000
00000000
00000000
00000000
00000000
00000000
00000000
00000000
00000000
00000000
00000000
00000000
00000000
00000000
00000000
00000000
00000000
00000000
07fe0000
07fe0000
07fe0000
07fe0000
07fe0000
07fe0000
07f00000
07f00000
07f00000
07f00000
07f00000
07f00000
3f800000
3f800000
3f800000
3f800000
3f800000
3f800000
00000000
00000000
00000000
00000000
00000000
00000000
ENDCHAR
STARTCHAR U+002B
ENCODING 43
SWIDTH 1000 0
DWIDTH 30 0
BBX 30 60 0 -12
BITMAP
00000000
00000000
00000000
00000000
00000000
00000000
00000000
00000000
00000000
00000000
00000000
00000000
00fe0000
00fe0000
00fe0000
00fe0000
00fe0000
00fe0000
00fe0000
00fe0000
00fe0000
00fe0000
00fe0000
00fe0000
ffffff00
ffffff00
ffffff00
ffffff00
ffffff00
ffffff00
00fe0000
00fe0000
00fe0000
00fe0000
00fe0000
00fe0000
00fe0000
00fe0000
00fe0000
00fe0000
00fe0000
00fe0000
00000000
00000000
00000000
00000000
00000000
00000000
00000000
00000000
00000000
00000000
00000000
00000000
00000000
00000000
00000000
00000000
00000000
00000000
ENDCHAR
STARTCHAR U+002A
ENCODING 42
SWIDTH 1000 0
DWIDTH 30 0
BBX 30 60 0 -12
BITMAP
00000000
00000000
00000000
00000000
00000000
00000000
00000000
00000000
00000000
00000000
00000000
00000000
3f83f800
3f83f800
3f83f800
3f83f800
3f83f800
3f83f800
07ffc000
07ffc000
07ffc000
07ffc000
07ffc000
07ffc000
ffffff00
ffffff00
ffffff00
ffffff00
ffffff00
ffffff00
07ffc000
07ffc000
07ffc000
07ffc000
07ffc000
07ffc000
3f83f800
3f83f800
3f83f800
3f83f800
3f83f800
3f83f800
00000000
00000000
00000000
00000000
00000000
00000000
00000000
00000000
00000000
00000000
00000000
00000000
00000000
00000000
00000000
00000000
00000000
00000000
ENDCHAR
STARTCHAR U+0029
ENCODING 41
SWIDTH 1000 0
DWIDTH 30 0
BBX 30 60 0 -12
BITMAP
00000000
00000000
00000000
00000000
00000000
00000000
07f00000
07f00000
07f00000
07f00000
07f00000
07f00000
00fe0000
00fe0000
00fe0000
00fe0000
00fe0000
00fe0000
001fc000
001fc000
001fc000
001fc000
001fc000
001fc000
001fc000
001fc000
001fc000
001fc000
001fc000
001fc000
001fc000
001fc000
001fc000
001fc000
001fc000
001fc000
00fe0000
00fe0000
00fe0000
00fe0000
00fe0000
00fe0000
07f00000
07f00000
07f00000
07f00000
07f00000
07f00000
00000000
00000000
00000000
00000000
00000000
00000000
00000000
00000000
00000000
00000000
00000000
00000000
ENDCHAR
STARTCHAR U+0028
ENCODING 40
SWIDTH 1000 0
DWIDTH 30 0
BBX 30 60 0 -12
BITMAP
00000000
00000000
00000000
00000000
00000000
00000000
001fc000
001fc000
001fc000
001fc000
001fc000
001fc000
00fe0000
00fe0000
00fe0000
00fe0000
00fe0000
00fe0000
07f00000
07f00000
07f00000
07f00000
07f00000
07f00000
07f00000
07f00000
07f00000
07f00000
07f00000
07f00000
07f00000
07f00000
07f00000
07f00000
07f00000
07f00000
00fe0000
00fe0000
00fe0000
00fe0000
00fe0000
00fe0000
001fc000
001fc000
001fc000
001fc000
001fc000
001fc000
00000000
00000000
00000000
00000000
00000000
00000000
00000000
00000000
00000000
00000000
00000000
00000000
ENDCHAR
STARTCHAR U+0027
ENCODING 39
SWIDTH 1000 0
DWIDTH 30 0
BBX 30 60 0 -12
BITMAP
00000000
00000000
00000000
00000000
00000000
00000000
00ffc000
00ffc000
00ffc000
00ffc000
00ffc000
00ffc000
00fe0000
00fe0000
00fe0000
00fe0000
00fe0000
00fe0000
07f00000
07f00000
07f00000
07f00000
07f00000
07f00000
00000000
00000000
00000000
00000000
00000000
00000000
00000000
00000000
00000000
00000000
00000000
00000000
00000000
00000000
00000000
00000000
00000000
00000000
00000000
00000000
00000000
00000000
00000000
00000000
00000000
00000000
00000000
00000000
00000000
00000000
00000000
00000000
00000000
00000000
00000000
00000000
ENDCHAR
STARTCHAR U+0026
ENCODING 38
SWIDTH 1000 0
DWIDTH 30 0
BBX 30 60 0 -12
BITMAP
00000000
00000000
00000000
00000000
00000000
00000000
3ffe0000
3ffe0000
3ffe0000
3ffe0000
3ffe0000
3ffe0000
fc1fc000
fc1fc000
fc1fc000
fc1fc000
fc1fc000
fc1fc000
fc1fc000
fc1fc000
fc1fc000
fc1fc000
fc1fc000
fc1fc000
3ffe0000
3ffe0000
3ffe0000
3ffe0000
3ffe0000
3ffe0000
fc1fff00
fc1fff00
fc1fff00
fc1fff00
fc1fff00
fc1fff00
fc03f800
fc03f800
fc03f800
fc03f800
fc03f800
fc03f800
3fffff00
3fffff00
3fffff00
3fffff00
3fffff00
3fffff00
00000000
00000000
00000000
00000000
00000000
00000000
00000000
00000000
00000000
00000000
00000000
00000000
ENDCHAR
STARTCHAR U+0025
ENCODING 37
SWIDTH 1000 0
DWIDTH 30 0
BBX 30 60 0 -12
BITMAP
00000000
00000000
00000000
00000000
00000000
00000000
3f807f00
3f807f00
3f807f00
3f807f00
3f807f00
3f807f00
fff3f800
fff3f800
fff3f800
fff3f800
fff3f800
fff3f800
3f9fc000
3f9fc000
3f9fc000
3f9fc000
3f9fc000
3f9fc000
00fe0000
00fe0000
00fe0000
00fe0000
00fe0000
00fe0000
07f3f800
07f3f800
07f3f800
07f3f800
07f3f800
07f3f800
3f9fff00
3f9fff00
3f9fff00
3f9fff00
3f9fff00
3f9fff00
fc03f800
fc03f800
fc03f800
fc03f800
fc03f800
fc03f800
00000000
00000000
00000000
00000000
00000000
00000000
00000000
00000000
00000000
00000000
00000000
00000000
ENDCHAR
STARTCHAR U+0024
ENCODING 36
SWIDTH 1000 0
DWIDTH 30 0
BBX 30 60 0 -12
BITMAP
00000000
00000000
00000000
00000000
00000000
00000000
00fe0000
00fe0000
00fe0000
00fe0000
00fe0000
00fe0000
3ffff800
3ffff800
3ffff800
3ffff800
3ffff800
3ffff800
fcfe0000
fcfe0000
fcfe0000
fcfe0000
fcfe0000
fcfe0000
3ffff800
3ffff800
3ffff800
3ffff800
3ffff800
3ffff800
00fe7f00
00fe7f00
00fe7f00
00fe7f00
00fe7f00
00fe7f00
3ffff800
3ffff800
3ffff800
3ffff800
3ffff800
3ffff800
00fe0000
00fe0000
00fe0000
00fe0000
00fe0000
00fe0000
00000000
00000000
00000000
00000000
00000000
00000000
00000000
00000000
00000000
00000000
00000000
00000000
ENDCHAR
STARTCHAR U+0023
ENCODING 35
SWIDTH 1000 0
DWIDTH 30 0
BBX 30 60 0 -12
BITMAP
00000000
00000000
00000000
00000000
00000000
00000000
3f9fc000
3f9fc000
3f9fc000
3f9fc000
3f9fc000
3f9fc000
3f9fc000
3f9fc000
3f9fc000
3f9fc000
3f9fc000
3f9fc000
fffff800
fffff800
fffff800
fffff800
fffff800
fffff800
3f9fc000
3f9fc000
3f9fc000
3f9fc000
3f9fc000
3f9fc000
fffff800
fffff800
fffff800
fffff800
fffff800
fffff800
3f9fc000
3f9fc000
3f9fc000
3f9fc000
3f9fc000
3f9fc000
3f9fc000
3f9fc000
3f9fc000
3f9fc000
3f9fc000
3f9fc000
00000000
00000000
00000000
00000000
00000000
00000000
00000000
00000000
00000000
00000000
00000000
00000000
ENDCHAR
STARTCHAR U+0022
ENCODING 34
SWIDTH 1000 0
DWIDTH 30 0
BBX 30 60 0 -12
BITMAP
00000000
00000000
00000000
00000000
00000000
00000000
3f9fc000
3f9fc000
3f9fc000
3f9fc000
3f9fc000
3f9fc000
3f9fc000
3f9fc000
3f9fc000
3f9fc000
3f9fc000
3f9fc000
3f9fc000
3f9fc000
3f9fc000
3f9fc000
3f9fc000
3f9fc000
00000000
00000000
00000000
00000000
00000000
00000000
00000000
00000000
00000000
00000000
00000000
00000000
00000000
00000000
00000000
00000000
00000000
00000000
00000000
00000000
00000000
00000000
00000000
00000000
00000000
00000000
00000000
00000000
00000000
00000000
00000000
00000000
00000000
00000000
00000000
00000000
ENDCHAR
STARTCHAR U+0021
ENCODING 33
SWIDTH 1000 0
DWIDTH 30 0
BBX 30 60 0 -12
BITMAP
00000000
00000000
00000000
00000000
00000000
00000000
00fe0000
00fe0000
00fe0000
00fe0000
00fe0000
00fe0000
00fe0000
00fe0000
00fe0000
00fe0000
00fe0000
00fe0000
00fe0000
00fe0000
00fe0000
00fe0000
00fe0000
00fe0000
00fe0000
00fe0000
00fe0000
00fe0000
00fe0000
00fe0000
00fe0000
00fe0000
00fe0000
00fe0000
00fe0000
00fe0000
00000000
00000000
00000000
00000000
00000000
00000000
00fe0000
00fe0000
00fe0000
00fe0000
00fe0000
00fe0000
00000000
00000000
00000000
00000000
00000000
00000000
00000000
00000000
00000000
00000000
00000000
00000000
ENDCHAR
STARTCHAR U+2E2E
ENCODING 11822
SWIDTH 1000 0
DWIDTH 30 0
BBX 30 60 0 -12
BITMAP
00000000
00000000
00000000
00000000
00000000
00000000
3ffff800
3ffff800
3ffff800
3ffff800
3ffff800
3ffff800
fc007f00
fc007f00
fc007f00
fc007f00
fc007f00
fc007f00
3ff00000
3ff00000
3ff00000
3ff00000
3ff00000
3ff00000
00fe0000
00fe0000
00fe0000
00fe0000
00fe0000
00fe0000
00fe0000
00fe0000
00fe0000
00fe0000
00fe0000
00fe0000
00000000
00000000
00000000
00000000
00000000
00000000
00fe0000
00fe0000
00fe0000
00fe0000
00fe0000
00fe0000
00000000
00000000
00000000
00000000
00000000
00000000
00000000
00000000
00000000
00000000
00000000
00000000
ENDCHAR
STARTCHAR U+00b7
ENCODING 183
SWIDTH 1000 0
DWIDTH 30 0
BBX 30 60 0 -12
BITMAP
00000000
00000000
00000000
00000000
00000000
00000000
00000000
00000000
00000000
00000000
00000000
00000000
00000000
00000000
00000000
00000000
00000000
00000000
00000000
00000000
00000000
00000000
00000000
00000000
00fe0000
00fe0000
00fe0000
00fe0000
00fe0000
00fe0000
00000000
00000000
00000000
00000000
00000000
00000000
00000000
00000000
00000000
00000000
00000000
00000000
00000000
00000000
00000000
00000000
00000000
00000000
00000000
00000000
00000000
00000000
00000000
00000000
00000000
00000000
00000000
00000000
00000000
00000000
ENDCHAR
STARTCHAR U+00A3
ENCODING 163
SWIDTH 1000 0
DWIDTH 30 0
BBX 30 60 0 -12
BITMAP
00000000
00000000
00000000
00000000
00000000
00000000
00fff800
00fff800
00fff800
00fff800
00fff800
00fff800
07f07f00
07f07f00
07f07f00
07f07f00
07f07f00
07f07f00
07f00000
07f00000
07f00000
07f00000
07f00000
07f00000
ffffc000
ffffc000
ffffc000
ffffc000
ffffc000
ffffc000
07f00000
07f00000
07f00000
07f00000
07f00000
07f00000
3fffc000
3fffc000
3fffc000
3fffc000
3fffc000
3fffc000
fff3ff00
fff3ff00
fff3ff00
fff3ff00
fff3ff00
fff3ff00
3f800000
3f800000
3f800000
3f800000
3f800000
3f800000
00000000
00000000
00000000
00000000
00000000
00000000
ENDCHAR
STARTCHAR U+2260
ENCODING 8800
SWIDTH 1000 0
DWIDTH 30 0
BBX 30 60 0 -12
BITMAP
00000000
00000000
00000000
00000000
00000000
00000000
00007f00
00007f00
00007f00
00007f00
00007f00
00007f00
0003f800
0003f800
0003f800
0003f800
0003f800
0003f800
ffffff00
ffffff00
ffffff00
ffffff00
ffffff00
ffffff00
00fe0000
00fe0000
00fe0000
00fe0000
00fe0000
00fe0000
ffffff00
ffffff00
ffffff00
ffffff00
ffffff00
ffffff00
3f800000
3f800000
3f800000
3f800000
3f800000
3f800000
fc000000
fc000000
fc000000
fc000000
fc000000
fc000000
00000000
00000000
00000000
00000000
00000000
00000000
00000000
00000000
00000000
00000000
00000000
00000000
ENDCHAR
STARTCHAR U+03C0
ENCODING 960
SWIDTH 1000 0
DWIDTH 30 0
BBX 30 60 0 -12
BITMAP
00000000
00000000
00000000
00000000
00000000
00000000
00000000
00000000
00000000
00000000
00000000
00000000
00000000
00000000
00000000
00000000
00000000
00000000
ffffff00
ffffff00
ffffff00
ffffff00
ffffff00
ffffff00
07f3f800
07f3f800
07f3f800
07f3f800
07f3f800
07f3f800
07f3f800
07f3f800
07f3f800
07f3f800
07f3f800
07f3f800
07f3f800
07f3f800
07f3f800
07f3f800
07f3f800
07f3f800
3f83f800
3f83f800
3f83f800
3f83f800
3f83f800
3f83f800
00000000
00000000
00000000
00000000
00000000
00000000
00000000
00000000
00000000
00000000
00000000
00000000
ENDCHAR
STARTCHAR U+2265
ENCODING 8805
SWIDTH 1000 0
DWIDTH 30 0
BBX 30 60 0 -12
BITMAP
00000000
00000000
00000000
00000000
00000000
00000000
fc000000
fc000000
fc000000
fc000000
fc000000
fc000000
07f00000
07f00000
07f00000
07f00000
07f00000
07f00000
001fc000
001fc000
001fc000
001fc000
001fc000
001fc000
00007f00
00007f00
00007f00
00007f00
00007f00
00007f00
001fc000
001fc000
001fc000
001fc000
001fc000
001fc000
07f00000
07f00000
07f00000
07f00000
07f00000
07f00000
fc000000
fc000000
fc000000
fc000000
fc000000
fc000000
ffffff00
ffffff00
ffffff00
ffffff00
ffffff00
ffffff00
00000000
00000000
00000000
00000000
00000000
00000000
ENDCHAR
STARTCHAR U+2264
ENCODING 8804
SWIDTH 1000 0
DWIDTH 30 0
BBX 30 60 0 -12
BITMAP
00000000
00000000
00000000
00000000
00000000
00000000
00007f00
00007f00
00007f00
00007f00
00007f00
00007f00
001fc000
001fc000
001fc000
001fc000
001fc000
001fc000
07f00000
07f00000
07f00000
07f00000
07f00000
07f00000
fc000000
fc000000
fc000000
fc000000
fc000000
fc000000
07f00000
07f00000
07f00000
07f00000
07f00000
07f00000
001fc000
001fc000
001fc000
001fc000
001fc000
001fc000
00007f00
00007f00
00007f00
00007f00
00007f00
00007f00
ffffff00
ffffff00
ffffff00
ffffff00
ffffff00
ffffff00
00000000
00000000
00000000
00000000
00000000
00000000
ENDCHAR
STARTCHAR U+2502
ENCODING 9474
SWIDTH 1000 0
DWIDTH 30 0
BBX 30 60 0 -12
BITMAP
00fe0000
00fe0000
00fe0000
00fe0000
00fe0000
00fe0000
00fe0000
00fe0000
00fe0000
00fe0000
00fe0000
00fe0000
00fe0000
00fe0000
00fe0000
00fe0000
00fe0000
00fe0000
00fe0000
00fe0000
00fe0000
00fe0000
00fe0000
00fe0000
00fe0000
00fe0000
00fe0000
00fe0000
00fe0000
00fe0000
00fe0000
00fe0000
00fe0000
00fe0000
00fe0000
00fe0000
00fe0000
00fe0000
00fe0000
00fe0000
00fe0000
00fe0000
00fe0000
00fe0000
00fe0000
00fe0000
00fe0000
00fe0000
00fe0000
00fe0000
00fe0000
00fe0000
00fe0000
00fe0000
00fe0000
00fe0000
00fe0000
00fe0000
00fe0000
00fe0000
ENDCHAR
STARTCHAR U+252C
ENCODING 9516
SWIDTH 1000 0
DWIDTH 30 0
BBX 30 60 0 -12
BITMAP
00000000
00000000
00000000
00000000
00000000
00000000
00000000
00000000
00000000
00000000
00000000
00000000
00000000
00000000
00000000
00000000
00000000
00000000
00000000
00000000
00000000
00000000
00000000
00000000
fffffffc
fffffffc
fffffffc
fffffffc
fffffffc
fffffffc
00fe0000
00fe0000
00fe0000
00fe0000
00fe0000
00fe0000
00fe0000
00fe0000
00fe0000
00fe0000
00fe0000
00fe0000
00fe0000
00fe0000
00fe0000
00fe0000
00fe0000
00fe0000
00fe0000
00fe0000
00fe0000
00fe0000
00fe0000
00fe0000
00fe0000
00fe0000
00fe0000
00fe0000
00fe0000
00fe0000
ENDCHAR
STARTCHAR U+2534
ENCODING 9524
SWIDTH 1000 0
DWIDTH 30 0
BBX 30 60 0 -12
BITMAP
00fe0000
00fe0000
00fe0000
00fe0000
00fe0000
00fe0000
00fe0000
00fe0000
00fe0000
00fe0000
00fe0000
00fe0000
00fe0000
00fe0000
00fe0000
00fe0000
00fe0000
00fe0000
00fe0000
00fe0000
00fe0000
00fe0000
00fe0000
00fe0000
fffffffc
fffffffc
fffffffc
fffffffc
fffffffc
fffffffc
00000000
00000000
00000000
00000000
00000000
00000000
00000000
00000000
00000000
00000000
00000000
00000000
00000000
00000000
00000000
00000000
00000000
00000000
00000000
00000000
00000000
00000000
00000000
00000000
00000000
00000000
00000000
00000000
00000000
00000000
ENDCHAR
STARTCHAR U+2524
ENCODING 9508
SWIDTH 1000 0
DWIDTH 30 0
BBX 30 60 0 -12
BITMAP
00fe0000
00fe0000
00fe0000
00fe0000
00fe0000
00fe0000
00fe0000
00fe0000
00fe0000
00fe0000
00fe0000
00fe0000
00fe0000
00fe0000
00fe0000
00fe0000
00fe0000
00fe0000
00fe0000
00fe0000
00fe0000
00fe0000
00fe0000
00fe0000
fffe0000
fffe0000
fffe0000
fffe0000
fffe0000
fffe0000
00fe0000
00fe0000
00fe0000
00fe0000
00fe0000
00fe0000
00fe0000
00fe0000
00fe0000
00fe0000
00fe0000
00fe0000
00fe0000
00fe0000
00fe0000
00fe0000
00fe0000
00fe0000
00fe0000
00fe0000
00fe0000
00fe0000
00fe0000
00fe0000
00fe0000
00fe0000
00fe0000
00fe0000
00fe0000
00fe0000
ENDCHAR
STARTCHAR U+251C
ENCODING 9500
SWIDTH 1000 0
DWIDTH 30 0
BBX 30 60 0 -12
BITMAP
00fe0000
00fe0000
00fe0000
00fe0000
00fe0000
00fe0000
00fe0000
00fe0000
00fe0000
00fe0000
00fe0000
00fe0000
00fe0000
00fe0000
00fe0000
00fe0000
00fe0000
00fe0000
00fe0000
00fe0000
00fe0000
00fe0000
00fe0000
00fe0000
00fffffc
00fffffc
00fffffc
00fffffc
00fffffc
00fffffc
00fe0000
00fe0000
00fe0000
00fe0000
00fe0000
00fe0000
00fe0000
00fe0000
00fe0000
00fe0000
00fe0000
00fe0000
00fe0000
00fe0000
00fe0000
00fe0000
00fe0000
00fe0000
00fe0000
00fe0000
00fe0000
00fe0000
00fe0000
00fe0000
00fe0000
00fe0000
00fe0000
00fe0000
00fe0000
00fe0000
ENDCHAR
STARTCHAR U+23BD
ENCODING 9149
SWIDTH 1000 0
DWIDTH 30 0
BBX 30 60 0 -12
BITMAP
00000000
00000000
00000000
00000000
00000000
00000000
00000000
00000000
00000000
00000000
00000000
00000000
00000000
00000000
00000000
00000000
00000000
00000000
00000000
00000000
00000000
00000000
00000000
00000000
00000000
00000000
00000000
00000000
00000000
00000000
00000000
00000000
00000000
00000000
00000000
00000000
00000000
00000000
00000000
00000000
00000000
00000000
00000000
00000000
00000000
00000000
00000000
00000000
fffffffc
fffffffc
fffffffc
fffffffc
fffffffc
fffffffc
00000000
00000000
00000000
00000000
00000000
00000000
ENDCHAR
STARTCHAR U+23BC
ENCODING 9148
SWIDTH 1000 0
DWIDTH 30 0
BBX 30 60 0 -12
BITMAP
00000000
00000000
00000000
00000000
00000000
00000000
00000000
00000000
00000000
00000000
00000000
00000000
00000000
00000000
00000000
00000000
00000000
00000000
00000000
00000000
00000000
00000000
00000000
00000000
00000000
00000000
00000000
00000000
00000000
00000000
00000000
00000000
00000000
00000000
00000000
00000000
fffffffc
fffffffc
fffffffc
fffffffc
fffffffc
fffffffc
00000000
00000000
00000000
00000000
00000000
00000000
00000000
00000000
00000000
00000000
00000000
00000000
00000000
00000000
00000000
00000000
00000000
00000000
ENDCHAR
STARTCHAR U+2500
ENCODING 9472
SWIDTH 1000 0
DWIDTH 30 0
BBX 30 60 0 -12
BITMAP
00000000
00000000
00000000
00000000
00000000
00000000
00000000
00000000
00000000
00000000
00000000
00000000
00000000
00000000
00000000
00000000
00000000
00000000
00000000
00000000
00000000
00000000
00000000
00000000
fffffffc
fffffffc
fffffffc
fffffffc
fffffffc
fffffffc
00000000
00000000
00000000
00000000
00000000
00000000
00000000
00000000
00000000
00000000
00000000
00000000
00000000
00000000
00000000
00000000
00000000
00000000
00000000
00000000
00000000
00000000
00000000
00000000
00000000
00000000
00000000
00000000
00000000
00000000
ENDCHAR
STARTCHAR U+23BB
ENCODING 9147
SWIDTH 1000 0
DWIDTH 30 0
BBX 30 60 0 -12
BITMAP
00000000
00000000
00000000
00000000
00000000
00000000
00000000
00000000
00000000
00000000
00000000
00000000
fffffffc
fffffffc
fffffffc
fffffffc
fffffffc
fffffffc
00000000
00000000
00000000
00000000
00000000
00000000
00000000
00000000
00000000
00000000
00000000
00000000
00000000
00000000
00000000
00000000
00000000
00000000
00000000
00000000
00000000
00000000
00000000
00000000
00000000
00000000
00000000
00000000
00000000
00000000
00000000
00000000
00000000
00000000
00000000
00000000
00000000
00000000
00000000
00000000
00000000
00000000
ENDCHAR
STARTCHAR U+23BA
ENCODING 9146
SWIDTH 1000 0
DWIDTH 30 0
BBX 30 60 0 -12
BITMAP
fffffffc
fffffffc
fffffffc
fffffffc
fffffffc
fffffffc
00000000
00000000
00000000
00000000
00000000
00000000
00000000
00000000
00000000
00000000
00000000
00000000
00000000
00000000
00000000
00000000
00000000
00000000
00000000
00000000
00000000
00000000
00000000
00000000
00000000
00000000
00000000
00000000
00000000
00000000
00000000
00000000
00000000
00000000
00000000
00000000
00000000
00000000
00000000
00000000
00000000
00000000
00000000
00000000
00000000
00000000
00000000
00000000
00000000
00000000
00000000
00000000
00000000
00000000
ENDCHAR
STARTCHAR U+253C
ENCODING 9532
SWIDTH 1000 0
DWIDTH 30 0
BBX 30 60 0 -12
BITMAP
00fe0000
00fe0000
00fe0000
00fe0000
00fe0000
00fe0000
00fe0000
00fe0000
00fe0000
00fe0000
00fe0000
00fe0000
00fe0000
00fe0000
00fe0000
00fe0000
00fe0000
00fe0000
00fe0000
00fe0000
00fe0000
00fe0000
00fe0000
00fe0000
fffffffc
fffffffc
fffffffc
fffffffc
fffffffc
fffffffc
00fe0000
00fe0000
00fe0000
00fe0000
00fe0000
00fe0000
00fe0000
00fe0000
00fe0000
00fe0000
00fe0000
00fe0000
00fe0000
00fe0000
00fe0000
00fe0000
00fe0000
00fe0000
00fe0000
00fe0000
00fe0000
00fe0000
00fe0000
00fe0000
00fe0000
00fe0000
00fe0000
00fe0000
00fe0000
00fe0000
ENDCHAR
STARTCHAR U+2514
ENCODING 9492
SWIDTH 1000 0
DWIDTH 30 0
BBX 30 60 0 -12
BITMAP
00fe0000
00fe0000
00fe0000
00fe0000
00fe0000
00fe0000
00fe0000
00fe0000
00fe0000
00fe0000
00fe0000
00fe0000
00fe0000
00fe0000
00fe0000
00fe0000
00fe0000
00fe0000
00fe0000
00fe0000
00fe0000
00fe0000
00fe0000
00fe0000
00fffffc
00fffffc
00fffffc
00fffffc
00fffffc
00fffffc
00000000
00000000
00000000
00000000
00000000
00000000
00000000
00000000
00000000
00000000
00000000
00000000
00000000
00000000
00000000
00000000
00000000
00000000
00000000
00000000
00000000
00000000
00000000
00000000
00000000
00000000
00000000
00000000
00000000
00000000
ENDCHAR
STARTCHAR U+250C
ENCODING 9484
SWIDTH 1000 0
DWIDTH 30 0
BBX 30 60 0 -12
BITMAP
00000000
00000000
00000000
00000000
00000000
00000000
00000000
00000000
00000000
00000000
00000000
00000000
00000000
00000000
00000000
00000000
00000000
00000000
00000000
00000000
00000000
00000000
00000000
00000000
00fffffc
00fffffc
00fffffc
00fffffc
00fffffc
00fffffc
00fe0000
00fe0000
00fe0000
00fe0000
00fe0000
00fe0000
00fe0000
00fe0000
00fe0000
00fe0000
00fe0000
00fe0000
00fe0000
00fe0000
00fe0000
00fe0000
00fe0000
00fe0000
00fe0000
00fe0000
00fe0000
00fe0000
00fe0000
00fe0000
00fe0000
00fe0000
00fe0000
00fe0000
00fe0000
00fe0000
ENDCHAR
STARTCHAR U+2510
ENCODING 9488
SWIDTH 1000 0
DWIDTH 30 0
BBX 30 60 0 -12
BITMAP
00000000
00000000
00000000
00000000
00000000
00000000
00000000
00000000
00000000
00000000
00000000
00000000
00000000
00000000
00000000
00000000
00000000
00000000
00000000
00000000
00000000
00000000
00000000
00000000
fffe0000
fffe0000
fffe0000
fffe0000
fffe0000
fffe0000
00fe0000
00fe0000
00fe0000
00fe0000
00fe0000
00fe0000
00fe0000
00fe0000
00fe0000
00fe0000
00fe0000
00fe0000
00fe0000
00fe0000
00fe0000
00fe0000
00fe0000
00fe0000
00fe0000
00fe0000
00fe0000
00fe0000
00fe0000
00fe0000
00fe0000
00fe0000
00fe0000
00fe0000
00fe0000
00fe0000
ENDCHAR
STARTCHAR U+2518
ENCODING 9496
SWIDTH 1000 0
DWIDTH 30 0
BBX 30 60 0 -12
BITMAP
00fe0000
00fe0000
00fe0000
00fe0000
00fe0000
00fe0000
00fe0000
00fe0000
00fe0000
00fe0000
00fe0000
00fe0000
00fe0000
00fe0000
00fe0000
00fe0000
00fe0000
00fe0000
00fe0000
00fe0000
00fe0000
00fe0000
00fe0000
00fe0000
fffe0000
fffe0000
fffe0000
fffe0000
fffe0000
fffe0000
00000000
00000000
00000000
00000000
00000000
00000000
00000000
00000000
00000000
00000000
00000000
00000000
00000000
00000000
00000000
00000000
00000000
00000000
00000000
00000000
00000000
00000000
00000000
00000000
00000000
00000000
00000000
00000000
00000000
00000000
ENDCHAR
STARTCHAR U+240B
ENCODING 9227
SWIDTH 1000 0
DWIDTH 30 0
BBX 30 60 0 -12
BITMAP
00000000
00000000
00000000
00000000
00000000
00000000
fc1fc000
fc1fc000
fc1fc000
fc1fc000
fc1fc000
fc1fc000
fc1fc000
fc1fc000
fc1fc000
fc1fc000
fc1fc000
fc1fc000
3ffe0000
3ffe0000
3ffe0000
3ffe0000
3ffe0000
3ffe0000
3ffe0000
3ffe0000
3ffe0000
3ffe0000
3ffe0000
3ffe0000
07ffff00
07ffff00
07ffff00
07ffff00
07ffff00
07ffff00
001fc000
001fc000
001fc000
001fc000
001fc000
001fc000
001fc000
001fc000
001fc000
001fc000
001fc000
001fc000
001fc000
001fc000
001fc000
001fc000
001fc000
001fc000
001fc000
001fc000
001fc000
001fc000
001fc000
001fc000
ENDCHAR
STARTCHAR U+2424
ENCODING 9252
SWIDTH 1000 0
DWIDTH 30 0
BBX 30 60 0 -12
BITMAP
00000000
00000000
00000000
00000000
00000000
00000000
fc1fc000
fc1fc000
fc1fc000
fc1fc000
fc1fc000
fc1fc000
ff9fc000
ff9fc000
ff9fc000
ff9fc000
ff9fc000
ff9fc000
ffffc000
ffffc000
ffffc000
ffffc000
ffffc000
ffffc000
fcffc000
fcffc000
fcffc000
fcffc000
fcffc000
fcffc000
fcffc000
fcffc000
fcffc000
fcffc000
fcffc000
fcffc000
00fe0000
00fe0000
00fe0000
00fe0000
00fe0000
00fe0000
00fe0000
00fe0000
00fe0000
00fe0000
00fe0000
00fe0000
00fe0000
00fe0000
00fe0000
00fe0000
00fe0000
00fe0000
00ffff00
00ffff00
00ffff00
00ffff00
00ffff00
00ffff00
ENDCHAR
STARTCHAR U+00B1
ENCODING 177
SWIDTH 1000 0
DWIDTH 30 0
BBX 30 60 0 -12
BITMAP
00000000
00000000
00000000
00000000
00000000
00000000
00000000
00000000
00000000
00000000
00000000
00000000
00fe0000
00fe0000
00fe0000
00fe0000
00fe0000
00fe0000
00fe0000
00fe0000
00fe0000
00fe0000
00fe0000
00fe0000
ffffff00
ffffff00
ffffff00
ffffff00
ffffff00
ffffff00
00fe0000
00fe0000
00fe0000
00fe0000
00fe0000
00fe0000
00fe0000
00fe0000
00fe0000
00fe0000
00fe0000
00fe0000
ffffff00
ffffff00
ffffff00
ffffff00
ffffff00
ffffff00
00000000
00000000
00000000
00000000
00000000
00000000
00000000
00000000
00000000
00000000
00000000
00000000
ENDCHAR
STARTCHAR U+00B0
ENCODING 176
SWIDTH 1000 0
DWIDTH 30 0
BBX 30 60 0 -12
BITMAP
00000000
00000000
00000000
00000000
00000000
00000000
07ffc000
07ffc000
07ffc000
07ffc000
07ffc000
07ffc000
3f83f800
3f83f800
3f83f800
3f83f800
3f83f800
3f83f800
07ffc000
07ffc000
07ffc000
07ffc000
07ffc000
07ffc000
00000000
00000000
00000000
00000000
00000000
00000000
00000000
00000000
00000000
00000000
00000000
00000000
00000000
00000000
00000000
00000000
00000000
00000000
00000000
00000000
00000000
00000000
00000000
00000000
00000000
00000000
00000000
00000000
00000000
00000000
00000000
00000000
00000000
00000000
00000000
00000000
ENDCHAR
STARTCHAR U+240A
ENCODING 9226
SWIDTH 1000 0
DWIDTH 30 0
BBX 30 60 0 -12
BITMAP
00000000
00000000
00000000
00000000
00000000
00000000
fc000000
fc000000
fc000000
fc000000
fc000000
fc000000
fc000000
fc000000
fc000000
fc000000
fc000000
fc000000
fc000000
fc000000
fc000000
fc000000
fc000000
fc000000
fc000000
fc000000
fc000000
fc000000
fc000000
fc000000
ffffff00
ffffff00
ffffff00
ffffff00
ffffff00
ffffff00
00fe0000
00fe0000
00fe0000
00fe0000
00fe0000
00fe0000
00fff800
00fff800
00fff800
00fff800
00fff800
00fff800
00fe0000
00fe0000
00fe0000
00fe0000
00fe0000
00fe0000
00fe0000
00fe0000
00fe0000
00fe0000
00fe0000
00fe0000
ENDCHAR
STARTCHAR U+240D
ENCODING 9229
SWIDTH 1000 0
DWIDTH 30 0
BBX 30 60 0 -12
BITMAP
00000000
00000000
00000000
00000000
00000000
00000000
3ffe0000
3ffe0000
3ffe0000
3ffe0000
3ffe0000
3ffe0000
fc000000
fc000000
fc000000
fc000000
fc000000
fc000000
fc000000
fc000000
fc000000
fc000000
fc000000
fc000000
fc000000
fc000000
fc000000
fc000000
fc000000
fc000000
3ffff800
3ffff800
3ffff800
3ffff800
3ffff800
3ffff800
00fe7f00
00fe7f00
00fe7f00
00fe7f00
00fe7f00
00fe7f00
00fff800
00fff800
00fff800
00fff800
00fff800
00fff800
00fe7f00
00fe7f00
00fe7f00
00fe7f00
00fe7f00
00fe7f00
00fe7f00
00fe7f00
00fe7f00
00fe7f00
00fe7f00
00fe7f00
ENDCHAR
STARTCHAR U+240C
ENCODING 9228
SWIDTH 1000 0
DWIDTH 30 0
BBX 30 60 0 -12
BITMAP
00000000
00000000
00000000
00000000
00000000
00000000
fffe0000
fffe0000
fffe0000
fffe0000
fffe0000
fffe0000
fc000000
fc000000
fc000000
fc000000
fc000000
fc000000
fff00000
fff00000
fff00000
fff00000
fff00000
fff00000
fc000000
fc000000
fc000000
fc000000
fc000000
fc000000
fcffff00
fcffff00
fcffff00
fcffff00
fcffff00
fcffff00
00fe0000
00fe0000
00fe0000
00fe0000
00fe0000
00fe0000
00fff800
00fff800
00fff800
00fff800
00fff800
00fff800
00fe0000
00fe0000
00fe0000
00fe0000
00fe0000
00fe0000
00fe0000
00fe0000
00fe0000
00fe0000
00fe0000
00fe0000
ENDCHAR
STARTCHAR U+2409
ENCODING 9225
SWIDTH 1000 0
DWIDTH 30 0
BBX 30 60 0 -12
BITMAP
00000000
00000000
00000000
00000000
00000000
00000000
fcfe0000
fcfe0000
fcfe0000
fcfe0000
fcfe0000
fcfe0000
fcfe0000
fcfe0000
fcfe0000
fcfe0000
fcfe0000
fcfe0000
fffe0000
fffe0000
fffe0000
fffe0000
fffe0000
fffe0000
fcfe0000
fcfe0000
fcfe0000
fcfe0000
fcfe0000
fcfe0000
ffffff00
ffffff00
ffffff00
ffffff00
ffffff00
ffffff00
001fc000
001fc000
001fc000
001fc000
001fc000
001fc000
001fc000
001fc000
001fc000
001fc000
001fc000
001fc000
001fc000
001fc000
001fc000
001fc000
001fc000
001fc000
001fc000
001fc000
001fc000
001fc000
001fc000
001fc000
ENDCHAR
STARTCHAR U+2592
ENCODING 9618
SWIDTH 1000 0
DWIDTH 30 0
BBX 30 60 0 -12
BITMAP
00000000
00000000
00000000
00000000
00000000
00000000
fcfe7f00
fcfe7f00
fcfe7f00
fcfe7f00
fcfe7f00
fcfe7f00
3f83f800
3f83f800
3f83f800
3f83f800
3f83f800
3f83f800
fcfe7f00
fcfe7f00
fcfe7f00
fcfe7f00
fcfe7f00
fcfe7f00
3f83f800
3f83f800
3f83f800
3f83f800
3f83f800
3f83f800
fcfe7f00
fcfe7f00
fcfe7f00
fcfe7f00
fcfe7f00
fcfe7f00
3f83f800
3f83f800
3f83f800
3f83f800
3f83f800
3f83f800
fcfe7f00
fcfe7f00
fcfe7f00
fcfe7f00
fcfe7f00
fcfe7f00
00000000
00000000
00000000
00000000
00000000
00000000
00000000
00000000
00000000
00000000
00000000
00000000
ENDCHAR
STARTCHAR U+25C6
ENCODING 9670
SWIDTH 1000 0
DWIDTH 30 0
BBX 30 60 0 -12
BITMAP
00000000
00000000
00000000
00000000
00000000
00000000
00fe0000
00fe0000
00fe0000
00fe0000
00fe0000
00fe0000
07ffc000
07ffc000
07ffc000
07ffc000
07ffc000
07ffc000
3ffff800
3ffff800
3ffff800
3ffff800
3ffff800
3ffff800
ffffff00
ffffff00
ffffff00
ffffff00
ffffff00
ffffff00
3ffff800
3ffff800
3ffff800
3ffff800
3ffff800
3ffff800
07ffc000
07ffc000
07ffc000
07ffc000
07ffc000
07ffc000
00fe0000
00fe0000
00fe0000
00fe0000
00fe0000
00fe0000
00000000
00000000
00000000
00000000
00000000
00000000
00000000
00000000
00000000
00000000
00000000
00000000
ENDCHAR
STARTCHAR U+0020
ENCODING 32
SWIDTH 1000 0
DWIDTH 30 0
BBX 30 60 0 -12
BITMAP
00000000
00000000
00000000
00000000
00000000
00000000
00000000
00000000
00000000
00000000
00000000
00000000
00000000
00000000
00000000
00000000
00000000
00000000
00000000
00000000
00000000
00000000
00000000
00000000
00000000
00000000
00000000
00000000
00000000
00000000
00000000
00000000
00000000
00000000
00000000
00000000
00000000
00000000
00000000
00000000
00000000
00000000
00000000
00000000
00000000
00000000
00000000
00000000
00000000
00000000
00000000
00000000
00000000
00000000
00000000
00000000
00000000
00000000
00000000
00000000
ENDCHAR
ENDFONT
